SplineFontDB: 3.0
FontName: Rokkitt-Regular
FamilyName: Rokkitt
ItalicAngle: 0
UnderlinePosition: 0
UnderlineWidth: 0
Ascent: 1638
Descent: 410
UFOAscent: 1152
UFODescent: -410
LayerCount: 2
Layer: 0 0 "Back"  1
Layer: 1 0 "Fore"  0
OS2Version: 0
OS2_WeightWidthSlopeOnly: 0
OS2_UseTypoMetrics: 0
CreationTime: 1390510956
ModificationTime: 1390528580
PfmFamily: 0
TTFWeight: 440
TTFWidth: 5
LineGap: 0
VLineGap: 0
Panose: 2 0 5 3 5 0 0 2 0 3
OS2TypoAscent: 0
OS2TypoAOffset: 1
OS2TypoDescent: 0
OS2TypoDOffset: 1
OS2TypoLinegap: 0
OS2WinAscent: 0
OS2WinAOffset: 1
OS2WinDescent: 0
OS2WinDOffset: 1
HheadAscent: 0
HheadAOffset: 1
HheadDescent: 0
HheadDOffset: 1
OS2SubXSize: 1331
OS2SubYSize: 1228
OS2SubXOff: 0
OS2SubYOff: 153
OS2SupXSize: 1331
OS2SupYSize: 1228
OS2SupXOff: 0
OS2SupYOff: 716
OS2StrikeYSize: 0
OS2StrikeYPos: 501
OS2Vendor: 'PfEd'
Lookup: 258 0 0 "'kern' Horizontal Kerning in Latin lookup 0"  {"'kern' Horizontal Kerning in Latin lookup 0 subtable"  } ['kern' ('latn' <'dflt' > ) ]
DEI: 91125
PickledData: "(dp1
S'com.typemytype.robofont.compileSettings.generateFormat'
p2
I0
sS'com.petr.ptt'
p3
(dp4
S'originals'
p5
(dp6
S'maxp'
p7
(dp8
S'numGlyphs'
p9
I423
sS'tableTag'
p10
S'maxp'
p11
sS'tableVersion'
p12
I20480
ssssS'com.schriftgestaltung.weight'
p13
S'Light'
p14
sS'com.typemytype.robofont.compileSettings.autohint'
p15
I0
sS'GSDimensionPlugin.Dimensions'
p16
(dp17
S'1F09728C-766D-4240-AE17-E499EF32E23D'
p18
(dp19
sS'98C086B7-81AA-4491-8494-0C6A76849168'
p20
(dp21
sS'EFCDB4D9-E20B-4A8D-9DB5-150AD166B0AE'
p22
(dp23
ssS'com.typemytype.robofont.compileSettings.checkOutlines'
p24
I1
sS'com.typemytype.robofont.compileSettings.MacRomanFirst'
p25
I1
sS'com.typemytype.robofont.shouldAddPointsInSplineConversion'
p26
I1
sS'com.typemytype.robofont.compileSettings.decompose'
p27
I1
sS'com.typemytype.robofont.compileSettings.path'
p28
S'/Users/vern/Github/RokkittFont/in-progress/roman/Light/Rokkitt-Light.otf'
p29
sS'com.typemytype.robofont.layerOrder'
p30
(S'b'
tp31

StartChar: A
Encoding: 65 65 1
Width: 1382
VWidth: 0
Flags: HW
PickledData: "(dp1
S'org.robofab.postScriptHintData'
p2
(dp3
sS'com.typemytype.robofont.layerData'
p4
(dp5
S'b'
(dp6
S'name'
p7
S'A'
sS'lib'
p8
(dp9
sS'unicodes'
p10
(tsS'width'
p11
I1383
sS'contours'
p12
(tsS'components'
p13
(tsS'anchors'
p14
(tsss."
AnchorPoint: "top" 692 1152 basechar 0
LayerCount: 2
Fore
SplineSet
489 536 m 1
 683 1076 l 1
 691 1076 l 1
 885 536 l 1
 489 536 l 1
75 0 m 1
 478 0 l 1
 478 71 l 1
 326 71 l 1
 468 466 l 1
 906 466 l 1
 1049 71 l 1
 898 71 l 1
 898 0 l 1
 1307 0 l 1
 1307 71 l 1
 1160 71 l 1
 786 1081 l 1
 927 1081 l 1
 927 1152 l 1
 457 1152 l 1
 457 1081 l 1
 596 1081 l 1
 225 71 l 1
 75 71 l 1
 75 0 l 1
EndSplineSet
EndChar

StartChar: AE
Encoding: 198 198 2
Width: 2115
VWidth: 0
Flags: HW
PickledData: "(dp1
S'org.robofab.postScriptHintData'
p2
(dp3
sS'com.typemytype.robofont.layerData'
p4
(dp5
S'b'
(dp6
S'name'
p7
S'AE'
p8
sS'lib'
p9
(dp10
sS'unicodes'
p11
(tsS'width'
p12
I2243
sS'contours'
p13
(tsS'components'
p14
(tsS'anchors'
p15
(tsss."
AnchorPoint: "top" 1222 1152 basechar 0
LayerCount: 2
Fore
SplineSet
109 0 m 257
 536 0 l 257
 536 71 l 257
 391 71 l 257
 594 429 l 257
 1048 429 l 257
 1090 71 l 257
 931 71 l 257
 931 0 l 257
 1952 0 l 257
 1910 381 l 257
 1826 381 l 257
 1863 71 l 257
 1196 71 l 257
 1142 538 l 257
 1551 538 l 257
 1576 367 l 257
 1636 367 l 257
 1586 770 l 257
 1525 770 l 257
 1546 613 l 257
 1138 613 l 257
 1083 1081 l 257
 1711 1081 l 257
 1749 772 l 257
 1832 772 l 257
 1791 1152 l 257
 736 1152 l 257
 736 1081 l 257
 869 1081 l 257
 277 71 l 257
 109 71 l 257
 109 0 l 257
630 497 m 257
 964 1081 l 257
 978 1081 l 257
 1045 497 l 257
 630 497 l 257
EndSplineSet
EndChar

StartChar: B
Encoding: 66 66 14
Width: 1251
VWidth: 0
Flags: HW
PickledData: "(dp1
S'org.robofab.postScriptHintData'
p2
(dp3
sS'com.typemytype.robofont.layerData'
p4
(dp5
S'b'
(dp6
S'name'
p7
S'B'
sS'lib'
p8
(dp9
sS'unicodes'
p10
(tsS'width'
p11
I1354
sS'contours'
p12
((dp13
S'points'
p14
((dp15
S'segmentType'
p16
S'line'
p17
sS'x'
I353
sS'smooth'
p18
I0
sS'y'
I1095
s(dp19
g16
S'line'
p20
sS'x'
I740
sg18
I1
sS'y'
I1095
s(dp21
S'y'
I1095
sS'x'
I917
sg18
I0
s(dp22
S'y'
I983
sS'x'
I1004
sg18
I0
s(dp23
g16
S'curve'
p24
sS'x'
I1004
sg18
I1
sS'y'
I868
s(dp25
S'y'
I751
sS'x'
I1004
sg18
I0
s(dp26
S'y'
I634
sS'x'
I928
sg18
I0
s(dp27
g16
S'curve'
p28
sS'x'
I784
sg18
I1
sS'y'
I634
s(dp29
g16
S'line'
p30
sS'x'
I353
sg18
I0
sS'y'
I634
stp31
s(dp32
g14
((dp33
g16
S'line'
p34
sS'x'
I353
sg18
I0
sS'y'
I573
s(dp35
g16
S'line'
p36
sS'x'
I793
sg18
I1
sS'y'
I573
s(dp37
S'y'
I573
sS'x'
I979
sg18
I0
s(dp38
S'y'
I439
sS'x'
I1072
sg18
I0
s(dp39
g16
S'curve'
p40
sS'x'
I1072
sg18
I1
sS'y'
I320
s(dp41
S'y'
I187
sS'x'
I1072
sg18
I0
s(dp42
S'y'
I58
sS'x'
I985
sg18
I0
s(dp43
g16
S'curve'
p44
sS'x'
I807
sg18
I1
sS'y'
I58
s(dp45
g16
S'line'
p46
sS'x'
I353
sg18
I0
sS'y'
I58
stp47
s(dp48
g14
((dp49
g16
S'line'
p50
sS'x'
I807
sg18
I1
sS'y'
I0
s(dp51
S'y'
I0
sS'x'
I1031
sg18
I0
s(dp52
S'y'
I158
sS'x'
I1146
sg18
I0
s(dp53
g16
S'curve'
p54
sS'x'
I1146
sg18
I1
sS'y'
I316
s(dp55
S'y'
I439
sS'x'
I1146
sg18
I0
s(dp56
S'y'
I568
sS'x'
I1074
sg18
I0
s(dp57
g16
S'curve'
p58
sS'x'
I919
sg18
I0
sS'y'
I611
s(dp59
S'y'
I669
sS'x'
I1029
sg18
I0
s(dp60
S'y'
I769
sS'x'
I1079
sg18
I0
s(dp61
g16
S'curve'
p62
sS'x'
I1079
sg18
I1
sS'y'
I870
s(dp63
S'y'
I1012
sS'x'
I1079
sg18
I0
s(dp64
S'y'
I1154
sS'x'
I964
sg18
I0
s(dp65
g16
S'curve'
p66
sS'x'
I740
sg18
I1
sS'y'
I1154
s(dp67
g16
S'line'
p68
sS'x'
I122
sg18
I0
sS'y'
I1154
s(dp69
g16
S'line'
p70
sS'x'
I122
sg18
I0
sS'y'
I1095
s(dp71
g16
S'line'
p72
sS'x'
I278
sg18
I0
sS'y'
I1095
s(dp73
g16
S'line'
p74
sS'x'
I278
sg18
I0
sS'y'
I58
s(dp75
g16
S'line'
p76
sS'x'
I135
sg18
I0
sS'y'
I58
s(dp77
g16
S'line'
p78
sS'x'
I135
sg18
I0
sS'y'
I0
stp79
stp80
sS'components'
p81
(tsS'anchors'
p82
(tsss."
AnchorPoint: "top" 558 1152 basechar 0
LayerCount: 2
Fore
SplineSet
724 1152 m 2
 105 1152 l 1
 105 1081 l 1
 273 1081 l 1
 273 71 l 1
 105 71 l 1
 105 0 l 1
 796 0 l 2
 1037 0 1151 144 1151 320 c 0
 1151 453 1086 577 911 611 c 1
 1018 639 1085 736 1085 870 c 0
 1085 1057 958 1152 724 1152 c 2
378 1081 m 1
 485.333333333 1081 592.666666667 1081 700 1081 c 0
 889 1081 982 1019 982 866 c 0
 982 734 917 642 753 642 c 2
 378 642 l 1
 378 1081 l 1
378 569 m 1
 762 569 l 2
 958 569 1045 464 1045 323 c 0
 1045 169 954 71 782 71 c 0
 647.333333333 71 512.666666667 71 378 71 c 1
 378 569 l 1
EndSplineSet
EndChar

StartChar: C
Encoding: 67 67 16
Width: 1387
VWidth: 0
Flags: HW
PickledData: "(dp1
S'org.robofab.postScriptHintData'
p2
(dp3
sS'com.typemytype.robofont.layerData'
p4
(dp5
S'b'
(dp6
S'name'
p7
S'C'
sS'lib'
p8
(dp9
sS'unicodes'
p10
(tsS'width'
p11
I1411
sS'contours'
p12
(tsS'components'
p13
(tsS'anchors'
p14
(tsss."
AnchorPoint: "bot" 706 0 basechar 0
AnchorPoint: "top" 718 1152 basechar 0
LayerCount: 2
Fore
SplineSet
709 -22 m 0
 938 -21 1132 57 1243 278 c 1
 1169 320 l 1
 1074 123 892 57 715 57 c 0
 456 57 217 240 217 580 c 0
 217 855 402 1093 715 1093 c 0
 937 1093 1064 1005 1160 810 c 1
 1232 820 l 1
 1232 1153 l 1
 1148 1153 l 1
 1148 950 l 1
 1059 1087 934 1173 710 1173 c 0
 349 1173 111 915 111 580 c 0
 111 188 397 -21 709 -22 c 0
EndSplineSet
EndChar

StartChar: D
Encoding: 68 68 23
Width: 1418
VWidth: 0
Flags: HW
PickledData: "(dp1
S'org.robofab.postScriptHintData'
p2
(dp3
sS'com.typemytype.robofont.layerData'
p4
(dp5
S'b'
(dp6
S'name'
p7
S'D'
sS'lib'
p8
(dp9
sS'unicodes'
p10
(tsS'width'
p11
I1434
sS'contours'
p12
(tsS'components'
p13
(tsS'anchors'
p14
(tsss."
AnchorPoint: "top" 628 1152 basechar 0
LayerCount: 2
Fore
SplineSet
274 71 m 1
 218 71 162 71 106 71 c 1
 106 0 l 1
 771 0 l 2
 1125 0 1303 284 1303 579 c 0
 1303 846 1134 1152 768 1152 c 2
 106 1152 l 1
 106 1081 l 1
 162 1081 218 1081 274 1081 c 1
 274 71 l 1
379 1081 m 1
 507.666666667 1081 636.333333333 1081 765 1081 c 0
 1057 1081 1196 820 1196 577 c 0
 1196 319 1059 71 758 71 c 0
 631.666666667 71 505.333333333 71 379 71 c 1
 379 1081 l 1
EndSplineSet
EndChar

StartChar: Delta
Encoding: 916 916 27
Width: 1167
VWidth: 0
Flags: HW
PickledData: "(dp1
S'org.robofab.postScriptHintData'
p2
(dp3
s."
LayerCount: 2
Fore
SplineSet
84 0 m 257
 1083 0 l 257
 1083 46 l 257
 618 1152 l 257
 525 1152 l 257
 84 46 l 257
 84 0 l 257
178 73 m 257
 561 1054 l 257
 967 73 l 257
 178 73 l 257
EndSplineSet
EndChar

StartChar: E
Encoding: 69 69 30
Width: 1209
VWidth: 0
Flags: HW
PickledData: "(dp1
S'org.robofab.postScriptHintData'
p2
(dp3
sS'com.typemytype.robofont.layerData'
p4
(dp5
S'b'
(dp6
S'name'
p7
S'E'
sS'lib'
p8
(dp9
sS'unicodes'
p10
(tsS'width'
p11
I1227
sS'contours'
p12
(tsS'components'
p13
(tsS'anchors'
p14
(tsss."
AnchorPoint: "bot" 641 0 basechar 0
AnchorPoint: "top" 655 1152 basechar 0
LayerCount: 2
Fore
SplineSet
987 818 m 1
 1071 818 l 1
 1071 1152 l 1
 105 1152 l 1
 105 1081 l 1
 273 1081 l 1
 273 71 l 1
 105 71 l 1
 105 0 l 1
 1090 0 l 1
 1090 340 l 1
 1006 340 l 1
 1006 71 l 1
 796.666666667 71 587.333333333 71 378 71 c 1
 378 554 l 1
 774 554 l 1
 774 392 l 1
 835 392 l 1
 835 784 l 1
 773 784 l 1
 773 629 l 1
 378 629 l 1
 378 1081 l 1
 581 1081 784 1081 987 1081 c 1
 987 818 l 1
EndSplineSet
EndChar

StartChar: Eng
Encoding: 330 330 39
Width: 1443
VWidth: 0
Flags: HW
PickledData: "(dp1
S'org.robofab.postScriptHintData'
p2
(dp3
s."
LayerCount: 2
Fore
SplineSet
835 -378 m 257
 1070 -378 1233 -275 1233 -22 c 258
 1233 220 l 257
 1147 220 l 257
 1147 -34 l 258
 1147 -210 1043 -306 837 -306 c 257
 835 -378 l 257
EndSplineSet
Refer: 79 78 N 1 0 0 1 0 0 2
EndChar

StartChar: Euro
Encoding: 8364 8364 42
Width: 1385
VWidth: 0
Flags: HW
PickledData: "(dp1
S'org.robofab.postScriptHintData'
p2
(dp3
s."
LayerCount: 2
Fore
SplineSet
-25 428 m 257
 602 428 l 257
 633 492 l 257
 6 492 l 257
 -25 428 l 257
-25 635 m 257
 602 635 l 257
 633 699 l 257
 6 699 l 257
 -25 635 l 257
EndSplineSet
Refer: 16 67 N 1 0 0 1 0 0 2
EndChar

StartChar: F
Encoding: 70 70 43
Width: 1144
VWidth: 0
Flags: HW
PickledData: "(dp1
S'org.robofab.postScriptHintData'
p2
(dp3
sS'com.typemytype.robofont.layerData'
p4
(dp5
S'b'
(dp6
S'name'
p7
S'F'
sS'lib'
p8
(dp9
sS'unicodes'
p10
(tsS'width'
p11
I1177
sS'contours'
p12
((dp13
S'points'
p14
((dp15
S'segmentType'
p16
S'line'
p17
sS'x'
I990
sS'smooth'
p18
I0
sS'y'
I1086
s(dp19
g16
S'line'
p20
sS'x'
I990
sg18
I0
sS'y'
I802
s(dp21
g16
S'line'
p22
sS'x'
I1062
sg18
I0
sS'y'
I802
s(dp23
g16
S'line'
p24
sS'x'
I1062
sg18
I0
sS'y'
I1152
s(dp25
g16
S'line'
p26
sS'x'
I122
sg18
I0
sS'y'
I1152
s(dp27
g16
S'line'
p28
sS'x'
I122
sg18
I0
sS'y'
I1086
s(dp29
g16
S'line'
p30
sS'x'
I286
sg18
I0
sS'y'
I1086
s(dp31
g16
S'line'
p32
sS'x'
I286
sg18
I0
sS'y'
I1039
s(dp33
g16
S'line'
p34
sS'x'
I363
sg18
I0
sS'y'
I1039
s(dp35
g16
S'line'
p36
sS'x'
I363
sg18
I0
sS'y'
I1086
stp37
s(dp38
g14
((dp39
g16
S'line'
p40
sS'x'
I286
sg18
I0
sS'y'
I1039
s(dp41
g16
S'line'
p42
sS'x'
I286
sg18
I0
sS'y'
I677
s(dp43
g16
S'line'
p44
sS'x'
I363
sg18
I0
sS'y'
I677
s(dp45
g16
S'line'
p46
sS'x'
I363
sg18
I0
sS'y'
I1039
stp47
s(dp48
g14
((dp49
g16
S'line'
p50
sS'x'
I286
sg18
I0
sS'y'
I677
s(dp51
g16
S'line'
p52
sS'x'
I286
sg18
I0
sS'y'
I65
s(dp53
g16
S'line'
p54
sS'x'
I122
sg18
I0
sS'y'
I65
s(dp55
g16
S'line'
p56
sS'x'
I122
sg18
I0
sS'y'
I0
s(dp57
g16
S'line'
p58
sS'x'
I552
sg18
I0
sS'y'
I0
s(dp59
g16
S'line'
p60
sS'x'
I552
sg18
I0
sS'y'
I65
s(dp61
g16
S'line'
p62
sS'x'
I363
sg18
I0
sS'y'
I65
s(dp63
g16
S'line'
p64
sS'x'
I363
sg18
I0
sS'y'
I539
s(dp65
g16
S'line'
p66
sS'x'
I824
sg18
I0
sS'y'
I539
s(dp67
g16
S'line'
p68
sS'x'
I824
sg18
I0
sS'y'
I378
s(dp69
g16
S'line'
p70
sS'x'
I886
sg18
I0
sS'y'
I378
s(dp71
g16
S'line'
p72
sS'x'
I886
sg18
I0
sS'y'
I764
s(dp73
g16
S'line'
p74
sS'x'
I824
sg18
I0
sS'y'
I764
s(dp75
g16
S'line'
p76
sS'x'
I824
sg18
I0
sS'y'
I601
s(dp77
g16
S'line'
p78
sS'x'
I363
sg18
I0
sS'y'
I601
s(dp79
g16
S'line'
p80
sS'x'
I363
sg18
I0
sS'y'
I677
stp81
stp82
sS'components'
p83
(tsS'anchors'
p84
(tsss."
AnchorPoint: "top" 631 1152 basechar 0
LayerCount: 2
Fore
SplineSet
988 799 m 1
 1070 799 l 1
 1070 1152 l 1
 105 1152 l 1
 105 1081 l 1
 273 1081 l 1
 273 71 l 1
 105 71 l 1
 105 0 l 1
 547 0 l 1
 547 71 l 1
 378 71 l 1
 378 558 l 1
 803 558 l 1
 803 398 l 1
 864 398 l 1
 864 777 l 1
 803 777 l 1
 803 633 l 1
 378 633 l 1
 378 1081 l 1
 581.333333333 1081 784.666666667 1081 988 1081 c 1
 988 799 l 1
EndSplineSet
EndChar

StartChar: G
Encoding: 71 71 45
Width: 1398
VWidth: 0
Flags: HW
PickledData: "(dp1
S'org.robofab.postScriptHintData'
p2
(dp3
sS'com.typemytype.robofont.layerData'
p4
(dp5
S'b'
(dp6
S'name'
p7
S'G'
sS'lib'
p8
(dp9
sS'unicodes'
p10
(tsS'width'
p11
I1394
sS'contours'
p12
(tsS'components'
p13
(tsS'anchors'
p14
(tsss."
AnchorPoint: "bot" 711 0 basechar 0
AnchorPoint: "top" 713 1152 basechar 0
LayerCount: 2
Fore
SplineSet
719 -21 m 0
 972 -21 1275 96 1277 562 c 1
 925 562 l 1
 925 488 l 1
 1173 488 l 1
 1168 162 921 60 722 58 c 0
 413 58 219 262 219 586 c 0
 219 899 413 1095 720 1095 c 0
 914 1095 1076 998 1152 823 c 1
 1227 823 l 1
 1227 1153 l 1
 1138 1153 l 1
 1138 976 l 1
 1048 1102 894 1174 717 1174 c 0
 351 1174 109 947 109 586 c 0
 109 213 347 -21 719 -21 c 0
EndSplineSet
EndChar

StartChar: H
Encoding: 72 72 52
Width: 1467
VWidth: 0
Flags: HW
PickledData: "(dp1
S'org.robofab.postScriptHintData'
p2
(dp3
sS'com.typemytype.robofont.layerData'
p4
(dp5
S'b'
(dp6
S'name'
p7
S'H'
sS'lib'
p8
(dp9
sS'unicodes'
p10
(tsS'width'
p11
I1506
sS'contours'
p12
(tsS'components'
p13
(tsS'anchors'
p14
(tsss."
AnchorPoint: "bot" 731 0 basechar 0
AnchorPoint: "top" 735 1152 basechar 0
LayerCount: 2
Fore
SplineSet
105 0 m 1
 547 0 l 1
 547 71 l 1
 378 71 l 1
 378 549 l 1
 1088 549 l 1
 1088 71 l 1
 920 71 l 1
 920 0 l 1
 1362 0 l 1
 1362 71 l 1
 1193 71 l 1
 1193 1081 l 1
 1362 1081 l 1
 1362 1152 l 1
 920 1152 l 1
 920 1081 l 1
 1088 1081 l 1
 1088 625 l 1
 378 625 l 1
 378 1081 l 1
 547 1081 l 1
 547 1152 l 1
 105 1152 l 1
 105 1081 l 1
 273 1081 l 1
 273 71 l 1
 105 71 l 1
 105 0 l 1
EndSplineSet
EndChar

StartChar: Hbar
Encoding: 294 294 53
Width: 1444
VWidth: 0
Flags: HW
PickledData: "(dp1
S'org.robofab.postScriptHintData'
p2
(dp3
sS'com.typemytype.robofont.layerData'
p4
(dp5
S'b'
(dp6
S'name'
p7
S'Hbar'
p8
sS'lib'
p9
(dp10
sS'unicodes'
p11
(tsS'width'
p12
I1471
sS'contours'
p13
(tsS'components'
p14
(tsS'anchors'
p15
(tsss."
LayerCount: 2
Fore
SplineSet
137 822 m 257
 1318 822 l 257
 1318 883 l 257
 137 883 l 257
 137 822 l 257
EndSplineSet
Refer: 52 72 N 1 0 0 1 0 0 2
EndChar

StartChar: I
Encoding: 73 73 55
Width: 660
VWidth: 0
Flags: HW
PickledData: "(dp1
S'org.robofab.postScriptHintData'
p2
(dp3
sS'com.typemytype.robofont.layerData'
p4
(dp5
S'b'
(dp6
S'name'
p7
S'I'
sS'lib'
p8
(dp9
sS'unicodes'
p10
(tsS'width'
p11
I626
sS'contours'
p12
(tsS'components'
p13
(tsS'anchors'
p14
(tsss."
AnchorPoint: "top" 332 1152 basechar 0
LayerCount: 2
Fore
SplineSet
108 0 m 1
 550 0 l 1
 550 71 l 1
 381 71 l 1
 381 1081 l 1
 550 1081 l 1
 550 1152 l 1
 108 1152 l 1
 108 1081 l 1
 276 1081 l 1
 276 71 l 1
 108 71 l 1
 108 0 l 1
EndSplineSet
EndChar

StartChar: J
Encoding: 74 74 66
Width: 609
VWidth: 0
Flags: HW
PickledData: "(dp1
S'org.robofab.postScriptHintData'
p2
(dp3
sS'com.typemytype.robofont.layerData'
p4
(dp5
S'b'
(dp6
S'name'
p7
S'J'
sS'lib'
p8
(dp9
sS'unicodes'
p10
(tsS'width'
p11
I551
sS'contours'
p12
(tsS'components'
p13
(tsS'anchors'
p14
(tsss."
AnchorPoint: "top" 369 1152 basechar 0
LayerCount: 2
Fore
SplineSet
87 -129 m 1
 215 -129 l 1
 359 -128 418 -69 418 122 c 2
 418 1081 l 1
 553 1081 l 1
 553 1152 l 1
 169 1152 l 1
 169 1081 l 1
 312 1081 l 1
 312 127 l 2
 312 11 299 -46 210 -46 c 2
 87 -46 l 1
 87 -129 l 1
EndSplineSet
EndChar

StartChar: K
Encoding: 75 75 68
Width: 1301
VWidth: 0
Flags: HW
PickledData: "(dp1
S'org.robofab.postScriptHintData'
p2
(dp3
sS'com.typemytype.robofont.guides'
p4
((dp5
S'y'
I593
sS'x'
I467
sS'magnetic'
p6
I5
sS'angle'
p7
I0
sS'isGlobal'
p8
I0
stp9
sS'com.typemytype.robofont.layerData'
p10
(dp11
S'b'
(dp12
S'name'
p13
S'K'
sS'lib'
p14
(dp15
sS'unicodes'
p16
(tsS'width'
p17
I1304
sS'contours'
p18
(tsS'components'
p19
(tsS'anchors'
p20
(tsss."
AnchorPoint: "bot" 667 0 basechar 0
AnchorPoint: "top" 657 1152 basechar 0
LayerCount: 2
Fore
SplineSet
793 0 m 1
 1227 0 l 1
 1227 71 l 1
 1068 71 l 1
 492 585 l 1
 1041 1081 l 1
 1204 1081 l 1
 1204 1152 l 1
 772 1152 l 1
 772 1081 l 1
 918 1081 l 1
 378 596 l 1
 378 1081 l 1
 547 1081 l 1
 547 1152 l 1
 105 1152 l 1
 105 1081 l 1
 273 1081 l 1
 273 71 l 1
 105 71 l 1
 105 0 l 1
 547 0 l 1
 547 71 l 1
 378 71 l 1
 378 568 l 1
 939 71 l 1
 793 71 l 1
 793 0 l 1
EndSplineSet
EndChar

StartChar: L
Encoding: 76 76 70
Width: 1065
VWidth: 0
Flags: HW
PickledData: "(dp1
S'org.robofab.postScriptHintData'
p2
(dp3
sS'com.typemytype.robofont.layerData'
p4
(dp5
S'b'
(dp6
S'name'
p7
S'L'
sS'lib'
p8
(dp9
sS'unicodes'
p10
(tsS'width'
p11
I1055
sS'contours'
p12
(tsS'components'
p13
(tsS'anchors'
p14
(tsss."
AnchorPoint: "bot" 609 0 basechar 0
AnchorPoint: "caron.alt" 589 804 basechar 0
AnchorPoint: "top" 727 1152 basechar 0
LayerCount: 2
Fore
SplineSet
378 71 m 1
 378 1081 l 1
 547 1081 l 1
 547 1152 l 1
 105 1152 l 1
 105 1081 l 1
 273 1081 l 1
 273 71 l 1
 105 71 l 1
 105 0 l 1
 1012 0 l 1
 1012 410 l 1
 926 410 l 1
 926 71 l 1
 743.333333333 71 560.666666667 71 378 71 c 1
EndSplineSet
EndChar

StartChar: Lslash
Encoding: 321 321 76
Width: 1224
VWidth: 0
Flags: HW
PickledData: "(dp1
S'org.robofab.postScriptHintData'
p2
(dp3
sS'com.typemytype.robofont.layerData'
p4
(dp5
S'b'
(dp6
S'name'
p7
S'Lslash'
p8
sS'lib'
p9
(dp10
sS'unicodes'
p11
(tsS'width'
p12
I1243
sS'contours'
p13
(tsS'components'
p14
(tsS'anchors'
p15
(tsss."
LayerCount: 2
Fore
SplineSet
125 421 m 257
 580 691 l 257
 580 771 l 257
 125 497 l 257
 125 421 l 257
EndSplineSet
Refer: 70 76 N 1 0 0 1 0 0 2
EndChar

StartChar: M
Encoding: 77 77 77
Width: 1647
VWidth: 0
Flags: HW
PickledData: "(dp1
S'org.robofab.postScriptHintData'
p2
(dp3
sS'com.typemytype.robofont.layerData'
p4
(dp5
S'b'
(dp6
S'name'
p7
S'M'
sS'lib'
p8
(dp9
sS'unicodes'
p10
(tsS'width'
p11
I1606
sS'contours'
p12
(tsS'components'
p13
(tsS'anchors'
p14
(tsss."
AnchorPoint: "top" 817 1152 basechar 0
LayerCount: 2
Fore
SplineSet
115 0 m 1
 506 0 l 1
 506 71 l 1
 354 71 l 1
 354 1037 l 1
 811 82 l 1
 840 82 l 1
 1281 1037 l 1
 1281 71 l 1
 1127 71 l 1
 1127 0 l 1
 1537 0 l 1
 1537 71 l 1
 1383 71 l 1
 1383 1081 l 1
 1537 1081 l 1
 1537 1152 l 1
 1239 1152 l 1
 835 267 l 1
 409 1152 l 1
 115 1152 l 1
 115 1081 l 1
 270 1081 l 1
 270 71 l 1
 115 71 l 1
 115 0 l 1
EndSplineSet
EndChar

StartChar: N
Encoding: 78 78 79
Width: 1443
VWidth: 0
Flags: HW
PickledData: "(dp1
S'org.robofab.postScriptHintData'
p2
(dp3
sS'com.typemytype.robofont.layerData'
p4
(dp5
S'b'
(dp6
S'name'
p7
S'N'
sS'lib'
p8
(dp9
sS'unicodes'
p10
(tsS'width'
p11
I1444
sS'contours'
p12
(tsS'components'
p13
(tsS'anchors'
p14
(tsss."
AnchorPoint: "bot" 715 0 basechar 0
AnchorPoint: "top" 720 1152 basechar 0
LayerCount: 2
Fore
SplineSet
111 0 m 1
 507 0 l 1
 507 71 l 1
 351 71 l 1
 351 1028 l 1
 1129 0 l 1
 1233 0 l 1
 1233 1081 l 1
 1375 1081 l 1
 1375 1152 l 1
 989 1152 l 1
 989 1081 l 1
 1147 1081 l 1
 1147 142 l 1
 380 1152 l 1
 111 1152 l 1
 111 1081 l 1
 265 1081 l 1
 265 71 l 1
 111 71 l 1
 111 0 l 1
EndSplineSet
EndChar

StartChar: O
Encoding: 79 79 86
Width: 1454
VWidth: 0
Flags: HW
PickledData: "(dp1
S'org.robofab.postScriptHintData'
p2
(dp3
sS'com.typemytype.robofont.layerData'
p4
(dp5
S'b'
(dp6
S'name'
p7
S'O'
sS'lib'
p8
(dp9
sS'unicodes'
p10
(tsS'width'
p11
I1456
sS'contours'
p12
(tsS'components'
p13
(tsS'anchors'
p14
(tsss."
AnchorPoint: "top" 725 1152 basechar 0
LayerCount: 2
Fore
SplineSet
727 -22 m 0
 1126 -22 1339 269 1339 572 c 0
 1339 874 1124 1174 726 1174 c 0
 330 1174 115 875 115 573 c 0
 115 271.512287124 327.277982723 -22.002543772 724.971116737 -22.002543772 c 0
 725.646875858 -22.002543772 726.323170323 -22.001696315 727 -22 c 0
726 57 m 0
 393 57 225 308 225 572 c 0
 225 830 396 1095 727 1095 c 0
 1054 1095 1228 830 1228 572 c 0
 1228 315 1054 57 726 57 c 0
EndSplineSet
EndChar

StartChar: OE
Encoding: 338 338 87
Width: 1986
VWidth: 0
Flags: HW
PickledData: "(dp1
S'org.robofab.postScriptHintData'
p2
(dp3
sS'com.typemytype.robofont.layerData'
p4
(dp5
S'b'
(dp6
S'name'
p7
S'OE'
p8
sS'lib'
p9
(dp10
sS'unicodes'
p11
(tsS'width'
p12
I1953
sS'contours'
p13
(tsS'components'
p14
(tsS'anchors'
p15
(tsss."
LayerCount: 2
Fore
SplineSet
789 0 m 258
 1859 0 l 257
 1859 376 l 257
 1774 376 l 257
 1774 74 l 257
 1131 74 l 257
 1131 536 l 257
 1557 536 l 257
 1557 369 l 257
 1618 369 l 257
 1618 766 l 257
 1557 766 l 257
 1557 611 l 257
 1132 611 l 257
 1132 1078 l 257
 1754 1078 l 257
 1754 794 l 257
 1838 794 l 257
 1838 1152 l 257
 789 1152 l 258
 387 1152 141 934 141 575 c 256
 141 217 387 0 789 0 c 258
795 74 m 258
 459 74 251 264 251 574 c 256
 251 891 462 1078 795 1078 c 258
 1027 1078 l 257
 1027 74 l 257
 795 74 l 258
EndSplineSet
EndChar

StartChar: Omega
Encoding: 937 937 95
Width: 1426
VWidth: 0
Flags: HW
PickledData: "(dp1
S'org.robofab.postScriptHintData'
p2
(dp3
s."
LayerCount: 2
Fore
SplineSet
160 0 m 257
 579 0 l 257
 579 72 l 257
 358 194 253 422 253 628 c 256
 253 873 407 1094 713 1094 c 256
 1018 1094 1173 872 1173 627 c 256
 1173 422 1068 194 847 72 c 257
 847 0 l 257
 1266 0 l 257
 1266 71 l 257
 958 71 l 257
 1175 201 1279 421 1279 626 c 256
 1279 909 1079 1174 713 1174 c 256
 348 1174 148 909 148 625 c 256
 148 421 251 201 469 71 c 257
 160 71 l 257
 160 0 l 257
EndSplineSet
EndChar

StartChar: Oslash
Encoding: 216 216 96
Width: 1546
VWidth: 0
Flags: HW
PickledData: "(dp1
S'org.robofab.postScriptHintData'
p2
(dp3
sS'com.typemytype.robofont.layerData'
p4
(dp5
S'b'
(dp6
S'name'
p7
S'Oslash'
p8
sS'lib'
p9
(dp10
sS'unicodes'
p11
(tsS'width'
p12
I1598
sS'contours'
p13
(tsS'components'
p14
(tsS'anchors'
p15
(tsss."
LayerCount: 2
Fore
SplineSet
278 -73 m 257
 1251 1180 l 257
 1201 1216 l 257
 226 -36 l 257
 278 -73 l 257
EndSplineSet
Refer: 86 79 N 1 0 0 1 5 -7 2
EndChar

StartChar: P
Encoding: 80 80 99
Width: 1189
VWidth: 0
Flags: HW
PickledData: "(dp1
S'org.robofab.postScriptHintData'
p2
(dp3
sS'com.typemytype.robofont.layerData'
p4
(dp5
S'b'
(dp6
S'name'
p7
S'P'
sS'lib'
p8
(dp9
sS'unicodes'
p10
(tsS'width'
p11
I1226
sS'contours'
p12
((dp13
S'points'
p14
((dp15
S'segmentType'
p16
S'line'
p17
sS'x'
I353
sS'smooth'
p18
I0
sS'y'
I1095
s(dp19
g16
S'line'
p20
sS'x'
I759
sg18
I1
sS'y'
I1095
s(dp21
S'y'
I1095
sS'x'
I936
sg18
I0
s(dp22
S'y'
I960
sS'x'
I1024
sg18
I0
s(dp23
g16
S'curve'
p24
sS'x'
I1024
sg18
I1
sS'y'
I823
s(dp25
S'y'
I683
sS'x'
I1024
sg18
I0
s(dp26
S'y'
I544
sS'x'
I934
sg18
I0
s(dp27
g16
S'curve'
p28
sS'x'
I759
sg18
I1
sS'y'
I544
s(dp29
g16
S'line'
p30
sS'x'
I353
sg18
I0
sS'y'
I544
stp31
s(dp32
g14
((dp33
g16
S'line'
p34
sS'x'
I135
sg18
I0
sS'y'
I0
s(dp35
g16
S'line'
p36
sS'x'
I512
sg18
I0
sS'y'
I0
s(dp37
g16
S'line'
p38
sS'x'
I512
sg18
I0
sS'y'
I58
s(dp39
g16
S'line'
p40
sS'x'
I353
sg18
I0
sS'y'
I58
s(dp41
g16
S'line'
p42
sS'x'
I353
sg18
I0
sS'y'
I483
s(dp43
g16
S'line'
p44
sS'x'
I759
sg18
I1
sS'y'
I483
s(dp45
S'y'
I483
sS'x'
I984
sg18
I0
s(dp46
S'y'
I656
sS'x'
I1098
sg18
I0
s(dp47
g16
S'curve'
p48
sS'x'
I1098
sg18
I1
sS'y'
I826
s(dp49
S'y'
I989
sS'x'
I1098
sg18
I0
s(dp50
S'y'
I1154
sS'x'
I984
sg18
I0
s(dp51
g16
S'curve'
p52
sS'x'
I759
sg18
I1
sS'y'
I1154
s(dp53
g16
S'line'
p54
sS'x'
I122
sg18
I0
sS'y'
I1154
s(dp55
g16
S'line'
p56
sS'x'
I122
sg18
I0
sS'y'
I1095
s(dp57
g16
S'line'
p58
sS'x'
I278
sg18
I0
sS'y'
I1095
s(dp59
g16
S'line'
p60
sS'x'
I278
sg18
I0
sS'y'
I58
s(dp61
g16
S'line'
p62
sS'x'
I135
sg18
I0
sS'y'
I58
stp63
stp64
sS'components'
p65
(tsS'anchors'
p66
(tsss."
AnchorPoint: "top" 638 1152 basechar 0
LayerCount: 2
Fore
SplineSet
467 488 m 1
 702 488 l 2
 943 488 1078 615 1078 839 c 0
 1078 1039 943 1152 702 1152 c 2
 105 1152 l 1
 105 1081 l 1
 273 1081 l 1
 273 71 l 1
 105 71 l 1
 105 0 l 1
 547 0 l 1
 547 71 l 1
 378 71 l 1
 378 1081 l 1
 489 1081 600 1081 711 1081 c 0
 875 1081 969 993 970 838 c 0
 970 661 873 560 700 560 c 2
 467 560 l 1
 467 488 l 1
EndSplineSet
EndChar

StartChar: Q
Encoding: 81 81 101
Width: 1442
VWidth: 0
Flags: HW
PickledData: "(dp1
S'org.robofab.postScriptHintData'
p2
(dp3
sS'com.typemytype.robofont.layerData'
p4
(dp5
S'b'
(dp6
S'name'
p7
S'Q'
sS'lib'
p8
(dp9
sS'unicodes'
p10
(tsS'width'
p11
I1438
sS'contours'
p12
(tsS'components'
p13
(tsS'anchors'
p14
(tsss."
LayerCount: 2
Fore
SplineSet
1174 -216 m 257
 1167 -146 l 257
 1123.23080001 -158.810497559 1085.57009601 -164.64636909 1052.16862858 -164.64636909 c 0
 929.129018146 -164.64636909 863.884446834 -85.4574302483 764 16 c 257
 668 16 l 257
 798.358094501 -135.9511531 898.015930262 -235.45603085 1049.32606148 -235.45603085 c 0
 1087.21439533 -235.45603085 1128.34138372 -229.216967871 1174 -216 c 257
EndSplineSet
Refer: 86 79 N 1 0 0 1 0 0 2
EndChar

StartChar: R
Encoding: 82 82 102
Width: 1281
VWidth: 0
Flags: HW
PickledData: "(dp1
S'org.robofab.postScriptHintData'
p2
(dp3
sS'com.typemytype.robofont.layerData'
p4
(dp5
S'b'
(dp6
S'name'
p7
S'R'
sS'lib'
p8
(dp9
sS'unicodes'
p10
(tsS'width'
p11
I1296
sS'contours'
p12
((dp13
S'points'
p14
((dp15
S'segmentType'
p16
S'line'
p17
sS'x'
I135
sS'smooth'
p18
I0
sS'y'
I0
s(dp19
g16
S'line'
p20
sS'x'
I512
sg18
I0
sS'y'
I0
s(dp21
g16
S'line'
p22
sS'x'
I512
sg18
I0
sS'y'
I58
s(dp23
g16
S'line'
p24
sS'x'
I353
sg18
I0
sS'y'
I58
s(dp25
g16
S'line'
p26
sS'x'
I353
sg18
I0
sS'y'
I539
s(dp27
g16
S'line'
p28
sS'x'
I641
sg18
I0
sS'y'
I539
s(dp29
g16
S'line'
p30
sS'x'
I961
sg18
I0
sS'y'
I0
s(dp31
g16
S'line'
p32
sS'x'
I1178
sg18
I0
sS'y'
I0
s(dp33
g16
S'line'
p34
sS'x'
I1178
sg18
I0
sS'y'
I58
s(dp35
g16
S'line'
p36
sS'x'
I1015
sg18
I0
sS'y'
I58
s(dp37
g16
S'line'
p38
sS'x'
I721
sg18
I0
sS'y'
I539
s(dp39
S'y'
I539
sS'x'
I945
sg18
I0
s(dp40
S'y'
I696
sS'x'
I1059
sg18
I0
s(dp41
g16
S'curve'
p42
sS'x'
I1059
sg18
I1
sS'y'
I848
s(dp43
S'y'
I1000
sS'x'
I1059
sg18
I0
s(dp44
S'y'
I1154
sS'x'
I945
sg18
I0
s(dp45
g16
S'curve'
p46
sS'x'
I721
sg18
I1
sS'y'
I1154
s(dp47
g16
S'line'
p48
sS'x'
I122
sg18
I0
sS'y'
I1154
s(dp49
g16
S'line'
p50
sS'x'
I122
sg18
I0
sS'y'
I1095
s(dp51
g16
S'line'
p52
sS'x'
I278
sg18
I0
sS'y'
I1095
s(dp53
g16
S'line'
p54
sS'x'
I278
sg18
I0
sS'y'
I58
s(dp55
g16
S'line'
p56
sS'x'
I135
sg18
I0
sS'y'
I58
stp57
s(dp58
g14
((dp59
g16
S'line'
p60
sS'x'
I353
sg18
I0
sS'y'
I1095
s(dp61
g16
S'line'
p62
sS'x'
I721
sg18
I1
sS'y'
I1095
s(dp63
S'y'
I1095
sS'x'
I898
sg18
I0
s(dp64
S'y'
I971
sS'x'
I985
sg18
I0
s(dp65
g16
S'curve'
p66
sS'x'
I985
sg18
I1
sS'y'
I845
s(dp67
S'y'
I723
sS'x'
I985
sg18
I0
s(dp68
S'y'
I600
sS'x'
I896
sg18
I0
s(dp69
g16
S'curve'
p70
sS'x'
I721
sg18
I1
sS'y'
I600
s(dp71
g16
S'line'
p72
sS'x'
I353
sg18
I0
sS'y'
I600
stp73
stp74
sS'components'
p75
(tsS'anchors'
p76
(tsss."
AnchorPoint: "bot" 691 0 basechar 0
AnchorPoint: "top" 628 1152 basechar 0
LayerCount: 2
Fore
SplineSet
964 0 m 1
 1206 0 l 1
 1206 71 l 1
 1037 71 l 1
 745 542 l 1
 995 558 1078 696 1078 848 c 0
 1078 1020 961 1152 722 1152 c 2
 105 1152 l 1
 105 1081 l 1
 273 1081 l 1
 273 71 l 1
 105 71 l 1
 105 0 l 1
 547 0 l 1
 547 71 l 1
 378 71 l 1
 378 1081 l 1
 494 1081 610 1081 726 1081 c 0
 907 1081 974 965 974 847 c 0
 974 738 919 607 681 607 c 2
 444 607 l 1
 444 534 l 1
 641 534 l 1
 964 0 l 1
EndSplineSet
EndChar

StartChar: S
Encoding: 83 83 106
Width: 1106
VWidth: 0
Flags: HW
PickledData: "(dp1
S'org.robofab.postScriptHintData'
p2
(dp3
sS'com.typemytype.robofont.layerData'
p4
(dp5
S'b'
(dp6
S'name'
p7
S'S'
sS'lib'
p8
(dp9
sS'unicodes'
p10
(tsS'width'
p11
I1143
sS'contours'
p12
((dp13
S'points'
p14
((dp15
S'segmentType'
p16
S'curve'
p17
sS'x'
I636
sS'smooth'
p18
I1
sS'y'
S'-23'
p19
s(dp20
S'y'
S'-23'
p21
sS'x'
I930
sg18
I0
s(dp22
S'y'
I171
sS'x'
I1026
sg18
I0
s(dp23
g16
S'curve'
p24
sS'x'
I1026
sg18
I1
sS'y'
I295
s(dp25
S'y'
I543
sS'x'
I1026
sg18
I0
s(dp26
S'y'
I599
sS'x'
I829
sg18
I0
s(dp27
g16
S'curve'
p28
sS'x'
I606
sg18
I1
sS'y'
I622
s(dp29
S'y'
I643
sS'x'
I405
sg18
I0
s(dp30
S'y'
I667
sS'x'
I269
sg18
I0
s(dp31
g16
S'curve'
p32
sS'x'
I269
sg18
I1
sS'y'
I851
s(dp33
S'y'
I998
sS'x'
I269
sg18
I0
s(dp34
S'y'
I1104
sS'x'
I360
sg18
I0
s(dp35
g16
S'curve'
p36
sS'x'
I573
sg18
I1
sS'y'
I1104
s(dp37
S'y'
I1104
sS'x'
I719
sg18
I0
s(dp38
S'y'
I1024
sS'x'
I885
sg18
I0
s(dp39
g16
S'curve'
p40
sS'x'
I885
sg18
I1
sS'y'
I941
s(dp41
g16
S'line'
p42
sS'x'
I885
sg18
I0
sS'y'
I839
s(dp43
g16
S'line'
p44
sS'x'
I959
sg18
I0
sS'y'
I839
s(dp45
g16
S'line'
p46
sS'x'
I959
sg18
I0
sS'y'
I1152
s(dp47
g16
S'line'
p48
sS'x'
I885
sg18
I0
sS'y'
I1152
s(dp49
g16
S'line'
p50
sS'x'
I885
sg18
I0
sS'y'
I1049
s(dp51
S'y'
I1131
sS'x'
I828
sg18
I0
s(dp52
S'y'
I1172
sS'x'
I673
sg18
I0
s(dp53
g16
S'curve'
p54
sS'x'
I561
sg18
I1
sS'y'
I1172
s(dp55
S'y'
I1172
sS'x'
I360
sg18
I0
s(dp56
S'y'
I1066
sS'x'
I184
sg18
I0
s(dp57
g16
S'curve'
p58
sS'x'
I184
sg18
I1
sS'y'
I863
s(dp59
S'y'
I635
sS'x'
I184
sg18
I0
s(dp60
S'y'
I579
sS'x'
I332
sg18
I0
s(dp61
g16
S'curve'
p62
sS'x'
I584
sg18
I1
sS'y'
I553
s(dp63
S'y'
I531
sS'x'
I805
sg18
I0
s(dp64
S'y'
I488
sS'x'
I942
sg18
I0
s(dp65
g16
S'curve'
p66
sS'x'
I942
sg18
I1
sS'y'
I300
s(dp67
S'y'
I169
sS'x'
I942
sg18
I0
s(dp68
S'y'
I47
sS'x'
I831
sg18
I0
s(dp69
g16
S'curve'
p70
sS'x'
I644
sg18
I1
sS'y'
I47
s(dp71
S'y'
I47
sS'x'
I448
sg18
I0
s(dp72
S'y'
I118
sS'x'
I261
sg18
I0
s(dp73
g16
S'curve'
p74
sS'x'
I261
sg18
I1
sS'y'
I247
s(dp75
g16
S'line'
p76
sS'x'
I261
sg18
I0
sS'y'
I387
s(dp77
g16
S'line'
p78
sS'x'
I187
sg18
I0
sS'y'
I387
s(dp79
g16
S'line'
p80
sS'x'
I187
sg18
I0
sS'y'
S'-1'
p81
s(dp82
g16
S'line'
p83
sS'x'
I261
sg18
I0
sS'y'
S'-1'
p84
s(dp85
g16
S'line'
p86
sS'x'
I261
sg18
I0
sS'y'
I122
s(dp87
S'y'
I22
sS'x'
I335
sg18
I0
s(dp88
S'y'
S'-23'
p89
sS'x'
I496
sg18
I0
stp90
stp91
sS'components'
p92
(tsS'anchors'
p93
(tsss."
AnchorPoint: "bot" 625 0 basechar 0
AnchorPoint: "top" 571 1152 basechar 0
LayerCount: 2
Fore
SplineSet
622 -21 m 0
 919 -21 1012 166 1012 301 c 0
 1012 567 823 600 598 628 c 0
 405 652 255 681 255 860 c 0
 255 994 346 1097 557 1097 c 0
 721 1097 837 1027 857 945 c 1
 857 838 l 1
 945 838 l 1
 945 1154 l 1
 857 1154 l 1
 857 1053 l 1
 802 1133 656 1174 547 1174 c 0
 330 1174 160 1072 160 859 c 0
 160 605 366 566 582 542 c 0
 788 521 911 483 911 303 c 0
 911 176 833 56 618 56 c 0
 413 56 292 123 252 243 c 1
 252 388 l 1
 163 388 l 1
 163 -1 l 1
 252 -1 l 1
 252 132 l 1
 312 25 448 -21 622 -21 c 0
EndSplineSet
EndChar

StartChar: Sigma
Encoding: 931 931 114
Width: 885
VWidth: 0
Flags: HW
PickledData: "(dp1
S'org.robofab.postScriptHintData'
p2
(dp3
s."
LayerCount: 2
Fore
SplineSet
103 0 m 257
 847 0 l 257
 847 78 l 257
 238 78 l 257
 656 569 l 257
 253 1076 l 257
 813 1076 l 257
 813 1152 l 257
 120 1152 l 257
 120 1100 l 257
 530 569 l 257
 103 56 l 257
 103 0 l 257
EndSplineSet
EndChar

StartChar: T
Encoding: 84 84 115
Width: 1145
VWidth: 0
Flags: HW
PickledData: "(dp1
S'org.robofab.postScriptHintData'
p2
(dp3
sS'com.typemytype.robofont.layerData'
p4
(dp5
S'b'
(dp6
S'name'
p7
S'T'
sS'lib'
p8
(dp9
sS'unicodes'
p10
(tsS'width'
p11
I1147
sS'contours'
p12
(tsS'components'
p13
(tsS'anchors'
p14
(tsss."
AnchorPoint: "bot" 569 0 basechar 0
AnchorPoint: "top" 568 1152 basechar 0
LayerCount: 2
Fore
SplineSet
52 764 m 1
 134 764 l 1
 134 1081 l 1
 261.666666667 1081 389.333333333 1081 517 1081 c 1
 517 71 l 1
 349 71 l 1
 349 0 l 1
 791 0 l 1
 791 71 l 1
 622 71 l 1
 622 1081 l 1
 751.333333333 1081 880.666666667 1081 1010 1081 c 1
 1010 764 l 1
 1095 764 l 1
 1095 1152 l 1
 52 1152 l 1
 52 764 l 1
EndSplineSet
EndChar

StartChar: Thorn
Encoding: 222 222 121
Width: 1177
VWidth: 0
Flags: HW
PickledData: "(dp1
S'org.robofab.postScriptHintData'
p2
(dp3
sS'com.typemytype.robofont.layerData'
p4
(dp5
S'b'
(dp6
S'name'
p7
S'Thorn'
p8
sS'lib'
p9
(dp10
sS'unicodes'
p11
(tsS'width'
p12
I1226
sS'contours'
p13
(tsS'components'
p14
(tsS'anchors'
p15
(tsss."
LayerCount: 2
Fore
SplineSet
470 335 m 257
 712 335 l 258
 932 335 1058 445 1058 641 c 256
 1058 812 930 913 704 913 c 258
 327 913 l 257
 327 843 l 257
 704 843 l 258
 862 843 956 768 957 640 c 256
 957 487 867 401 713 401 c 258
 470 401 l 257
 470 335 l 257
EndSplineSet
Refer: 411 -1 N 1 0 0 1 -14 0 2
EndChar

StartChar: U
Encoding: 85 85 122
Width: 1443
VWidth: 0
Flags: HW
PickledData: "(dp1
S'org.robofab.postScriptHintData'
p2
(dp3
sS'com.typemytype.robofont.layerData'
p4
(dp5
S'b'
(dp6
S'name'
p7
S'U'
sS'lib'
p8
(dp9
sS'unicodes'
p10
(tsS'width'
p11
I1514
sS'contours'
p12
(tsS'components'
p13
(tsS'anchors'
p14
(tsss."
AnchorPoint: "top" 731 1152 basechar 0
LayerCount: 2
Fore
SplineSet
718 -21 m 0
 1018 -21 1229 127 1229 386 c 2
 1229 1081 l 1
 1386 1081 l 1
 1386 1152 l 1
 985 1152 l 1
 985 1081 l 1
 1136 1081 l 1
 1136 383 l 2
 1136 185 972 58 720 58 c 0
 483 58 331 187 331 384 c 2
 331 1081 l 1
 484 1081 l 1
 484 1152 l 1
 73 1152 l 1
 73 1081 l 1
 226 1081 l 1
 226 393 l 2
 226 151 399 -21 718 -21 c 0
EndSplineSet
EndChar

StartChar: V
Encoding: 86 86 133
Width: 1275
VWidth: 0
Flags: HW
PickledData: "(dp1
S'org.robofab.postScriptHintData'
p2
(dp3
sS'com.typemytype.robofont.layerData'
p4
(dp5
S'b'
(dp6
S'name'
p7
S'V'
sS'lib'
p8
(dp9
sS'unicodes'
p10
(tsS'width'
p11
I1228
sS'contours'
p12
(tsS'components'
p13
(tsS'anchors'
p14
(tsss."
LayerCount: 2
Fore
SplineSet
591 0 m 1
 690 0 l 1
 1105 1081 l 1
 1236 1081 l 1
 1236 1152 l 1
 848 1152 l 1
 848 1081 l 1
 1001 1081 l 1
 645 120 l 1
 288 1081 l 1
 443 1081 l 1
 443 1152 l 1
 36 1152 l 1
 36 1081 l 1
 177 1081 l 1
 591 0 l 1
EndSplineSet
EndChar

StartChar: W
Encoding: 87 87 134
Width: 1926
VWidth: 0
Flags: HW
PickledData: "(dp1
S'org.robofab.postScriptHintData'
p2
(dp3
sS'com.typemytype.robofont.layerData'
p4
(dp5
S'b'
(dp6
S'name'
p7
S'W'
sS'lib'
p8
(dp9
sS'unicodes'
p10
(tsS'width'
p11
I1962
sS'contours'
p12
(tsS'components'
p13
(tsS'anchors'
p14
(tsss."
AnchorPoint: "top" 967 1152 basechar 0
LayerCount: 2
Fore
SplineSet
560 0 m 1
 658 0 l 1
 963 925 l 1
 1277 0 l 1
 1375 0 l 1
 1724 1081 l 1
 1863 1081 l 1
 1863 1152 l 1
 1473 1152 l 1
 1473 1081 l 1
 1626 1081 l 1
 1330 130 l 1
 1004 1110 l 1
 926 1110 l 1
 614 130 l 1
 307 1081 l 1
 463 1081 l 1
 463 1152 l 1
 62 1152 l 1
 62 1081 l 1
 202 1081 l 1
 560 0 l 1
EndSplineSet
EndChar

StartChar: X
Encoding: 88 88 139
Width: 1299
VWidth: 0
Flags: HW
PickledData: "(dp1
S'org.robofab.postScriptHintData'
p2
(dp3
sS'com.typemytype.robofont.layerData'
p4
(dp5
S'b'
(dp6
S'name'
p7
S'X'
sS'lib'
p8
(dp9
sS'unicodes'
p10
(tsS'width'
p11
I1293
sS'contours'
p12
(tsS'components'
p13
(tsS'anchors'
p14
(tsss."
LayerCount: 2
Fore
SplineSet
90 0 m 1
 488 0 l 1
 488 69 l 1
 341 69 l 1
 643 526 l 1
 951 69 l 1
 801 69 l 1
 801 0 l 1
 1212 0 l 1
 1212 69 l 1
 1058 69 l 1
 702 589 l 1
 1037 1084 l 1
 1188 1084 l 1
 1188 1152 l 1
 791 1152 l 1
 791 1084 l 1
 937 1084 l 1
 651 657 l 1
 362 1084 l 1
 509 1084 l 1
 509 1152 l 1
 102 1152 l 1
 102 1084 l 1
 255 1084 l 1
 592 594 l 1
 238 69 l 1
 90 69 l 1
 90 0 l 1
EndSplineSet
EndChar

StartChar: Y
Encoding: 89 89 140
Width: 1275
VWidth: 0
Flags: HW
PickledData: "(dp1
S'org.robofab.postScriptHintData'
p2
(dp3
sS'com.typemytype.robofont.layerData'
p4
(dp5
S'b'
(dp6
S'name'
p7
S'Y'
sS'lib'
p8
(dp9
sS'unicodes'
p10
(tsS'width'
p11
I1254
sS'contours'
p12
(tsS'components'
p13
(tsS'anchors'
p14
(tsss."
AnchorPoint: "top" 646 1152 basechar 0
LayerCount: 2
Fore
SplineSet
418 0 m 1
 860 0 l 1
 860 71 l 1
 691 71 l 1
 691 477 l 1
 1097 1081 l 1
 1251 1081 l 1
 1251 1152 l 1
 842 1152 l 1
 842 1081 l 1
 997 1081 l 1
 646 552 l 1
 289 1081 l 1
 438 1081 l 1
 438 1152 l 1
 20 1152 l 1
 20 1081 l 1
 176 1081 l 1
 586 477 l 1
 586 71 l 1
 418 71 l 1
 418 0 l 1
EndSplineSet
EndChar

StartChar: Z
Encoding: 90 90 145
Width: 1210
VWidth: 0
Flags: HW
PickledData: "(dp1
S'org.robofab.postScriptHintData'
p2
(dp3
sS'com.typemytype.robofont.layerData'
p4
(dp5
S'b'
(dp6
S'name'
p7
S'Z'
sS'lib'
p8
(dp9
sS'unicodes'
p10
(tsS'width'
p11
I1241
sS'contours'
p12
(tsS'components'
p13
(tsS'anchors'
p14
(tsss."
AnchorPoint: "top" 636 1152 basechar 0
LayerCount: 2
Fore
SplineSet
135 0 m 1
 1081 0 l 1
 1081 379 l 1
 1000 379 l 1
 1000 71 l 1
 257 71 l 1
 1059 1082 l 1
 1059 1152 l 1
 164 1152 l 1
 164 791 l 1
 246 791 l 1
 246 1081 l 1
 934 1081 l 1
 135 76 l 1
 135 0 l 1
EndSplineSet
EndChar

StartChar: a
Encoding: 97 97 149
Width: 943
VWidth: 0
Flags: HW
PickledData: "(dp1
S'org.robofab.postScriptHintData'
p2
(dp3
sS'com.typemytype.robofont.layerData'
p4
(dp5
S'b'
(dp6
S'name'
p7
S'a'
sS'lib'
p8
(dp9
sS'unicodes'
p10
(tsS'width'
p11
I951
sS'contours'
p12
((dp13
S'points'
p14
((dp15
S'segmentType'
p16
S'curve'
p17
sS'x'
I391
sS'smooth'
p18
I1
sS'y'
S'-14'
p19
s(dp20
S'y'
S'-14'
p21
sS'x'
I507
sg18
I0
s(dp22
S'y'
I21
sS'x'
I593
sg18
I0
s(dp23
g16
S'curve'
p24
sS'x'
I687
sg18
I0
sS'y'
I91
s(dp25
g16
S'line'
p26
sS'x'
I703
sg18
I0
sS'y'
S'-1'
p27
s(dp28
g16
S'line'
p29
sS'x'
I890
sg18
I0
sS'y'
S'-1'
p30
s(dp31
g16
S'line'
p32
sS'x'
I890
sg18
I0
sS'y'
I57
s(dp33
g16
S'line'
p34
sS'x'
I764
sg18
I0
sS'y'
I57
s(dp35
g16
S'line'
p36
sS'x'
I764
sg18
I1
sS'y'
I569
s(dp37
S'y'
I672
sS'x'
I764
sg18
I0
s(dp38
S'y'
I819
sS'x'
I710
sg18
I0
s(dp39
g16
S'curve'
p40
sS'x'
I461
sg18
I1
sS'y'
I819
s(dp41
S'y'
I819
sS'x'
I332
sg18
I0
s(dp42
S'y'
I792
sS'x'
I226
sg18
I0
s(dp43
g16
S'curve'
p44
sS'x'
I155
sg18
I0
sS'y'
I724
s(dp45
g16
S'line'
p46
sS'x'
I190
sg18
I0
sS'y'
I668
s(dp47
S'y'
I726
sS'x'
I247
sg18
I0
s(dp48
S'y'
I755
sS'x'
I339
sg18
I0
s(dp49
g16
S'curve'
p50
sS'x'
I459
sg18
I1
sS'y'
I755
s(dp51
S'y'
I755
sS'x'
I600
sg18
I0
s(dp52
S'y'
I706
sS'x'
I687
sg18
I0
s(dp53
g16
S'curve'
p54
sS'x'
I687
sg18
I1
sS'y'
I551
s(dp55
g16
S'line'
p56
sS'x'
I687
sg18
I0
sS'y'
I428
s(dp57
S'y'
I443
sS'x'
I609
sg18
I0
s(dp58
S'y'
I455
sS'x'
I539
sg18
I0
s(dp59
g16
S'curve'
p60
sS'x'
I465
sg18
I1
sS'y'
I455
s(dp61
S'y'
I455
sS'x'
I295
sg18
I0
s(dp62
S'y'
I433
sS'x'
I117
sg18
I0
s(dp63
g16
S'curve'
p64
sS'x'
I117
sg18
I1
sS'y'
I222
s(dp65
S'y'
I96
sS'x'
I117
sg18
I0
s(dp66
S'y'
S'-14'
p67
sS'x'
I206
sg18
I0
stp68
s(dp69
g14
((dp70
g16
S'curve'
p71
sS'x'
I401
sg18
I1
sS'y'
I50
s(dp72
S'y'
I50
sS'x'
I246
sg18
I0
s(dp73
S'y'
I142
sS'x'
I195
sg18
I0
s(dp74
g16
S'curve'
p75
sS'x'
I195
sg18
I1
sS'y'
I220
s(dp76
S'y'
I390
sS'x'
I195
sg18
I0
s(dp77
S'y'
I393
sS'x'
I346
sg18
I0
s(dp78
g16
S'curve'
p79
sS'x'
I462
sg18
I1
sS'y'
I393
s(dp80
S'y'
I393
sS'x'
I559
sg18
I0
s(dp81
S'y'
I368
sS'x'
I687
sg18
I0
s(dp82
g16
S'curve'
p83
sS'x'
I687
sg18
I0
sS'y'
I368
s(dp84
g16
S'line'
p85
sS'x'
I687
sg18
I0
sS'y'
I151
s(dp86
S'y'
I76
sS'x'
I606
sg18
I0
s(dp87
S'y'
I50
sS'x'
I511
sg18
I0
stp88
stp89
sS'components'
p90
(tsS'anchors'
p91
(tsss."
AnchorPoint: "top" 460 805 basechar 0
LayerCount: 2
Fore
SplineSet
389 46 m 0
 268 46 200 126 200 220 c 0
 200 354 300 397 410 397 c 0
 501 397 588 379 673 365 c 1
 673 144 l 1
 560 76 479 46 389 46 c 0
380 -22 m 0
 480 -22 572 10 677 78 c 1
 690 0 l 1
 894 0 l 1
 894 71 l 1
 770 71 l 1
 770 550 l 2
 770 691 683 826 454 826 c 0
 370 826 251 801 148 750 c 1
 178 682 l 1
 263 723 369 752 456 752 c 0
 585 752 673 684 673 534 c 2
 673 429 l 1
 583 445 491 459 404 459 c 0
 244 459 106 398 106 217 c 0
 106 78 214 -22 380 -22 c 0
EndSplineSet
EndChar

StartChar: acute
Encoding: 180 180 153
Width: 287
VWidth: 0
Flags: HW
PickledData: "(dp1
S'org.robofab.postScriptHintData'
p2
(dp3
sS'com.typemytype.robofont.layerData'
p4
(dp5
S'b'
(dp6
S'name'
p7
S'acute'
p8
sS'lib'
p9
(dp10
sS'unicodes'
p11
(tsS'width'
p12
I45
sS'contours'
p13
(tsS'components'
p14
(tsS'anchors'
p15
(tsss."
AnchorPoint: "top" 90 804 mark 0
LayerCount: 2
Fore
SplineSet
121 1143 m 257
 110 983 l 257
 199 1096 l 257
 190 1255 l 257
 121 1143 l 257
EndSplineSet
EndChar

StartChar: ae
Encoding: 230 230 155
Width: 1588
VWidth: 0
Flags: HW
PickledData: "(dp1
S'org.robofab.postScriptHintData'
p2
(dp3
sS'com.typemytype.robofont.layerData'
p4
(dp5
S'b'
(dp6
S'name'
p7
S'ae'
p8
sS'lib'
p9
(dp10
sS'unicodes'
p11
(tsS'width'
p12
I1657
sS'contours'
p13
(tsS'components'
p14
(tsS'anchors'
p15
(tsss."
AnchorPoint: "top" 834 804 basechar 0
LayerCount: 2
Fore
SplineSet
411 -22 m 256
 521 -22 658 -7 794 105 c 257
 870 16 978 -21 1107 -21 c 256
 1279 -21 1373 34 1476 137 c 257
 1440 198 l 257
 1343 101 1227 54 1110 54 c 256
 902 54 802 171 800 383 c 257
 1474 383 l 257
 1474 667 1329 826 1106 826 c 256
 947 826 812 748 768 604 c 257
 748 752 656 826 474 826 c 256
 349 826 228 785 150 716 c 257
 186 654 l 257
 256 712 363 752 471 752 c 256
 622 752 703 693 703 530 c 258
 703 437 l 257
 680 441 525 444 503 444 c 256
 285 444 118 396 118 216 c 256
 118 48 249 -22 411 -22 c 256
421 44 m 256
 289 44 210 98 210 218 c 256
 210 354 330 381 506 381 c 256
 525 381 685 378 703 376 c 257
 705 313 722 223 753 161 c 257
 672 82 566 44 421 44 c 256
1381 446 m 257
 801 447 l 257
 812 608 912 753 1106 753 c 256
 1276 753 1377 635 1381 446 c 257
EndSplineSet
EndChar

StartChar: ampersand
Encoding: 38 38 160
Width: 1184
VWidth: 0
Flags: HW
PickledData: "(dp1
S'org.robofab.postScriptHintData'
p2
(dp3
sS'com.typemytype.robofont.layerData'
p4
(dp5
S'b'
(dp6
S'name'
p7
S'ampersand'
p8
sS'lib'
p9
(dp10
sS'unicodes'
p11
(tsS'width'
p12
I1088
sS'contours'
p13
(tsS'components'
p14
(tsS'anchors'
p15
(tsss."
LayerCount: 2
Fore
SplineSet
492 -21 m 256
 632 -21 751 27 832 113 c 257
 919 0 l 257
 1130 0 l 257
 1130 74 l 257
 971 74 l 257
 890 176 l 257
 937 243 983 369 995 440 c 257
 1130 440 l 257
 1130 513 l 257
 931 513 l 257
 923 437 885 307 841 240 c 257
 514 640 l 257
 695 714 797 831 797 970 c 256
 797 1106 692 1193 524 1193 c 256
 350 1193 241 1106 241 966 c 256
 241 872 299 777 389 665 c 257
 205 602 111 486 111 320 c 256
 111 109 257 -21 492 -21 c 256
504 60 m 256
 320 60 209 161 209 324 c 256
 209 460 283 557 436 605 c 257
 783 174 l 257
 716 98 616 60 504 60 c 256
472 699 m 257
 391 802 328 886 328 968 c 256
 328 1064 405 1121 523 1121 c 256
 641 1121 711 1065 711 966 c 256
 711 852 621 758 472 699 c 257
EndSplineSet
EndChar

StartChar: apostrophemod
Encoding: 700 700 162
Width: 600
VWidth: 0
Flags: HW
PickledData: "(dp1
S'org.robofab.postScriptHintData'
p2
(dp3
s."
AnchorPoint: "top" 89 804 mark 0
LayerCount: 2
Fore
SplineSet
59 915 m 257
 168 915 205 988 204 1088 c 257
 205 1231 l 257
 66 1231 l 257
 66 1092 l 257
 146 1092 l 257
 146 992 122 967 59 957 c 257
 59 915 l 257
EndSplineSet
EndChar

StartChar: approxequal
Encoding: 8776 8776 163
Width: 826
VWidth: 0
Flags: HW
PickledData: "(dp1
S'org.robofab.postScriptHintData'
p2
(dp3
s."
LayerCount: 2
Fore
SplineSet
738 813 m 257
 680 772 627 743 574 743 c 256
 533 743 495 754 427 783 c 256
 345 816 296 831 238 831 c 256
 178 831 125 811 75 767 c 257
 75 676 l 257
 123 718 177 743 226 743 c 256
 274 743 317 729 388 701 c 256
 467 668 511 656 564 656 c 256
 627 656 682 678 738 724 c 257
 738 813 l 257
738 563 m 257
 680 522 627 494 574 494 c 256
 533 494 495 505 427 533 c 256
 345 566 296 581 238 581 c 256
 178 581 125 561 75 517 c 257
 75 427 l 257
 123 468 177 494 226 494 c 256
 274 494 317 479 388 451 c 256
 467 418 511 407 564 407 c 256
 627 407 682 428 738 474 c 257
 738 563 l 257
EndSplineSet
EndChar

StartChar: asciicircum
Encoding: 94 94 165
Width: 919
VWidth: 0
Flags: HW
PickledData: "(dp1
S'org.robofab.postScriptHintData'
p2
(dp3
sS'com.typemytype.robofont.layerData'
p4
(dp5
S'b'
(dp6
S'name'
p7
S'asciicircum'
p8
sS'lib'
p9
(dp10
sS'unicodes'
p11
(tsS'width'
p12
I911
sS'contours'
p13
(tsS'components'
p14
(tsS'anchors'
p15
(tsss."
LayerCount: 2
Fore
SplineSet
72 741 m 257
 164 741 l 257
 464 1185 l 257
 753 741 l 257
 843 741 l 257
 514 1269 l 257
 415 1269 l 257
 72 741 l 257
EndSplineSet
EndChar

StartChar: asciitilde
Encoding: 126 126 166
Width: 887
VWidth: 0
Flags: HW
PickledData: "(dp1
S'org.robofab.postScriptHintData'
p2
(dp3
sS'com.typemytype.robofont.layerData'
p4
(dp5
S'b'
(dp6
S'name'
p7
S'asciitilde'
p8
sS'lib'
p9
(dp10
sS'unicodes'
p11
(tsS'width'
p12
I708
sS'contours'
p13
(tsS'components'
p14
(tsS'anchors'
p15
(tsss."
LayerCount: 2
Fore
SplineSet
708 624 m 257
 692.204819277 619.65060241 675.571200465 617.97372623 658.219100819 617.97372623 c 0
 599.769923066 617.97372623 533.168674699 637 463 637 c 256
 387.52 637 320.8016 657.2612 256.361216 657.2612 c 0
 233.72 657.2612 211.36 654.76 189 648 c 256
 188.12513177 648.082018897 187.260727917 648.122180286 186.405971034 648.122180286 c 0
 155.996339398 648.122180286 137.797056184 597.289169563 95 572 c 257
 105.964912281 582.964912281 116.352723915 586.042782395 126.922777859 586.042782395 c 0
 140.452446907 586.042782395 154.280701754 581 170 581 c 257
 190.167475569 586.099821408 210.173743422 588.082960282 230.168281841 588.082960282 c 0
 296.427713907 588.082960282 362.558335954 566.304569808 434 564 c 256
 498.930488446 560.392750642 557.615097886 541.691293683 623.947601526 541.691293683 c 0
 649.558427906 541.691293683 676.309336778 544.479146534 705 552 c 256
 705.327265636 551.991608573 705.652489207 551.987442109 705.975698485 551.987442109 c 0
 744.16909602 551.987442109 754.234959944 610.167828531 782 630 c 257
 772.62962963 621.037037037 763.093278464 618.381344307 753.255702891 618.381344307 c 0
 738.946502058 618.381344307 724 624 708 624 c 257
EndSplineSet
EndChar

StartChar: asterisk
Encoding: 42 42 167
Width: 938
VWidth: 0
Flags: HW
PickledData: "(dp1
S'org.robofab.postScriptHintData'
p2
(dp3
sS'com.typemytype.robofont.layerData'
p4
(dp5
S'b'
(dp6
S'name'
p7
S'asterisk'
p8
sS'lib'
p9
(dp10
sS'unicodes'
p11
(tsS'width'
p12
I941
sS'contours'
p13
(tsS'components'
p14
(tsS'anchors'
p15
(tsss."
LayerCount: 2
Fore
SplineSet
259 414 m 257
 469 756 l 257
 678 414 l 257
 767 479 l 257
 501 782 l 257
 889 890 l 257
 855 992 l 257
 489 819 l 257
 526 1221 l 257
 412 1221 l 257
 449 819 l 257
 83 992 l 257
 48 890 l 257
 436 782 l 257
 170 479 l 257
 259 414 l 257
EndSplineSet
EndChar

StartChar: at
Encoding: 64 64 168
Width: 1415
VWidth: 0
Flags: HW
PickledData: "(dp1
S'org.robofab.postScriptHintData'
p2
(dp3
sS'com.typemytype.robofont.layerData'
p4
(dp5
S'b'
(dp6
S'name'
p7
S'at'
p8
sS'lib'
p9
(dp10
sS'unicodes'
p11
(tsS'width'
p12
I1379
sS'contours'
p13
(tsS'components'
p14
(tsS'anchors'
p15
(tsss."
LayerCount: 2
Fore
SplineSet
866.05587395 343.146886862 m 0
 866.05587395 260.111339623 910.915173665 236.770331836 960.2414639 236.770331836 c 0
 1134.68841249 236.770331836 1304 435.892228025 1304 686 c 256
 1304 933 1145 1183 757 1183 c 256
 342 1183 113 861 113 550 c 256
 113 248 319 -39 767 -39 c 256
 939 -39 1062 1 1165 77 c 257
 1131 119 l 257
 1036 52 916 20 767 20 c 256
 400 20 191 231 191 548 c 256
 191 878 427 1123 753 1123 c 256
 1081 1123 1235 910 1235 686 c 256
 1235 437.654373646 1063.68174676 298.952429368 976.757947648 298.952429368 c 0
 944.401102025 298.952429368 928.775158339 316.368824549 928.775158339 361.890484931 c 0
 928.775158339 388.542244538 934.166059118 425.060473947 945 474 c 258
 1038 900 l 257
 960 900 l 257
 929 738 l 257
 914 853 831 918 722 918 c 256
 497 918 388 712 388 524 c 256
 388 336 504 237 635 237 c 256
 747 237 830 313 878 426 c 257
 869.672408842 393.36484546 866.05587395 365.997968896 866.05587395 343.146886862 c 0
649 296 m 256
 525 296 464 396 464 522 c 256
 464 696 560 856 715 856 c 256
 827 856 899 789 899 656 c 256
 899 492 797 296 649 296 c 256
EndSplineSet
EndChar

StartChar: b
Encoding: 98 98 170
Width: 1053
VWidth: 0
Flags: HW
PickledData: "(dp1
S'org.robofab.postScriptHintData'
p2
(dp3
sS'com.typemytype.robofont.layerData'
p4
(dp5
S'b'
(dp6
S'name'
p7
S'b'
sS'lib'
p8
(dp9
sS'unicodes'
p10
(tsS'width'
p11
I1037
sS'contours'
p12
(tsS'components'
p13
(tsS'anchors'
p14
(tsss."
AnchorPoint: "top" 621 804 basechar 0
LayerCount: 2
Fore
SplineSet
573 -22 m 0
 815.940504926 -22 996.039774154 140.377195986 996.039774154 412.007198621 c 0
 996.039774154 672.747842483 711.896686626 704.598132058 594 826 c 1
 496 826 389 789 300 722 c 1
 300 1174 l 1
 65 1174 l 1
 65 1103 l 1
 203 1103 l 1
 203 71 l 1
 59 71 l 1
 59 0 l 1
 300 0 l 1
 300 84 l 1
 377 16 477 -22 573 -22 c 0
300 644 m 1
 386 712 486 751 573 751 c 0
 766 751 896 619 896 401 c 0
 896 181 760 52 560 52 c 0
 471 52 376 90 300 157 c 1
 300 644 l 1
EndSplineSet
EndChar

StartChar: backslash
Encoding: 92 92 171
Width: 463
VWidth: 0
Flags: HW
PickledData: "(dp1
S'org.robofab.postScriptHintData'
p2
(dp3
sS'com.typemytype.robofont.layerData'
p4
(dp5
S'b'
(dp6
S'name'
p7
S'backslash'
p8
sS'lib'
p9
(dp10
sS'unicodes'
p11
(tsS'width'
p12
I296
sS'contours'
p13
(tsS'components'
p14
(tsS'anchors'
p15
(tsss."
LayerCount: 2
Fore
SplineSet
381 -23 m 257
 472 -23 l 257
 71 1190 l 257
 -16 1190 l 257
 381 -23 l 257
EndSplineSet
EndChar

StartChar: bar
Encoding: 124 124 172
Width: 403
VWidth: 0
Flags: HW
PickledData: "(dp1
S'org.robofab.postScriptHintData'
p2
(dp3
sS'com.typemytype.robofont.layerData'
p4
(dp5
S'b'
(dp6
S'name'
p7
S'bar'
p8
sS'lib'
p9
(dp10
sS'unicodes'
p11
(tsS'width'
p12
I348
sS'contours'
p13
(tsS'components'
p14
(tsS'anchors'
p15
(tsss."
LayerCount: 2
Fore
SplineSet
165 -84 m 257
 247 -84 l 257
 247 1196 l 257
 165 1196 l 257
 165 -84 l 257
EndSplineSet
EndChar

StartChar: braceleft
Encoding: 123 123 174
Width: 492
VWidth: 0
Flags: HW
PickledData: "(dp1
S'org.robofab.postScriptHintData'
p2
(dp3
sS'com.typemytype.robofont.layerData'
p4
(dp5
S'b'
(dp6
S'name'
p7
S'braceleft'
p8
sS'lib'
p9
(dp10
sS'unicodes'
p11
(tsS'width'
p12
I404
sS'contours'
p13
(tsS'components'
p14
(tsS'anchors'
p15
(tsss."
LayerCount: 2
Fore
SplineSet
379 -61 m 258
 444 -61 l 257
 444 7 l 257
 301 7 277 33 277 205 c 256
 277 437 261 553 146 573 c 257
 265 593 278 710 278 956 c 256
 278 1114 309 1137 444 1137 c 257
 444 1206 l 257
 379 1206 l 258
 183 1206 180 1074 180 861 c 256
 180 686 174 619 36 619 c 257
 36 526 l 257
 169 526 180 464 180 298 c 256
 180 70 183 -61 379 -61 c 258
EndSplineSet
EndChar

StartChar: braceright
Encoding: 125 125 175
Width: 494
VWidth: 0
Flags: HW
PickledData: "(dp1
S'org.robofab.postScriptHintData'
p2
(dp3
sS'com.typemytype.robofont.layerData'
p4
(dp5
S'b'
(dp6
S'name'
p7
S'braceright'
p8
sS'lib'
p9
(dp10
sS'unicodes'
p11
(tsS'width'
p12
I406
sS'contours'
p13
(tsS'components'
p14
(tsS'anchors'
p15
(tsss."
LayerCount: 2
Fore
SplineSet
59 -61 m 257
 124 -61 l 258
 321 -61 325 70 325 258 c 256
 325 460 329 526 468 526 c 257
 468 619 l 257
 336 619 325 682 325 886 c 256
 325 1074 321 1206 125 1206 c 258
 59 1206 l 257
 59 1137 l 257
 196 1137 226 1114 226 956 c 256
 226 710 239 593 358 573 c 257
 243 553 226 437 226 204 c 256
 226 33 203 7 59 7 c 257
 59 -61 l 257
EndSplineSet
EndChar

StartChar: bracketleft
Encoding: 91 91 176
Width: 448
VWidth: 0
Flags: HW
PickledData: "(dp1
S'org.robofab.postScriptHintData'
p2
(dp3
sS'com.typemytype.robofont.layerData'
p4
(dp5
S'b'
(dp6
S'name'
p7
S'bracketleft'
p8
sS'lib'
p9
(dp10
sS'unicodes'
p11
(tsS'width'
p12
I318
sS'contours'
p13
(tsS'components'
p14
(tsS'anchors'
p15
(tsss."
LayerCount: 2
Fore
SplineSet
163 -151 m 257
 410 -151 l 257
 410 -73 l 257
 270 -73 l 257
 270 1140 l 257
 410 1140 l 257
 410 1217 l 257
 163 1217 l 257
 163 -151 l 257
EndSplineSet
EndChar

StartChar: bracketright
Encoding: 93 93 177
Width: 446
VWidth: 0
Flags: HW
PickledData: "(dp1
S'org.robofab.postScriptHintData'
p2
(dp3
sS'com.typemytype.robofont.layerData'
p4
(dp5
S'b'
(dp6
S'name'
p7
S'bracketright'
p8
sS'lib'
p9
(dp10
sS'unicodes'
p11
(tsS'width'
p12
I316
sS'contours'
p13
(tsS'components'
p14
(tsS'anchors'
p15
(tsss."
LayerCount: 2
Fore
SplineSet
30 -151 m 257
 277 -151 l 257
 277 1217 l 257
 30 1217 l 257
 30 1140 l 257
 170 1140 l 257
 170 -73 l 257
 30 -73 l 257
 30 -151 l 257
EndSplineSet
EndChar

StartChar: breve
Encoding: 728 728 178
Width: 353
VWidth: 0
Flags: HW
PickledData: "(dp1
S'org.robofab.postScriptHintData'
p2
(dp3
sS'com.typemytype.robofont.layerData'
p4
(dp5
S'b'
(dp6
S'name'
p7
S'breve'
p8
sS'lib'
p9
(dp10
sS'unicodes'
p11
(tsS'width'
p12
I233
sS'contours'
p13
(tsS'components'
p14
(tsS'anchors'
p15
(tsss."
AnchorPoint: "top" 180 804 mark 0
LayerCount: 2
Fore
SplineSet
178 927 m 256
 278 927 342 987 357 1092 c 257
 292 1092 l 257
 277 1025 237 990 178 990 c 256
 117 990 80 1025 63 1092 c 257
 -1 1092 l 257
 15 987 81 927 178 927 c 256
EndSplineSet
EndChar

StartChar: breveinvertedcomb
Encoding: 785 785 179
Width: 830
VWidth: 0
Flags: W
PickledData: "(dp1
S'org.robofab.postScriptHintData'
p2
(dp3
sS'com.typemytype.robofont.layerData'
p4
(dp5
S'b'
(dp6
S'name'
p7
S'uni0311'
p8
sS'lib'
p9
(dp10
sS'unicodes'
p11
(tsS'width'
p12
I962
sS'contours'
p13
(tsS'components'
p14
(tsS'anchors'
p15
(tsss."
AnchorPoint: "top" 418 820 mark 0
LayerCount: 2
Fore
SplineSet
229 943 m 257
 304 943 l 257
 320 1008 357 1041 416 1041 c 256
 473 1041 511 1008 526 943 c 257
 602 943 l 257
 587 1052 520 1116 416 1115 c 256
 315 1116 246 1053 229 943 c 257
EndSplineSet
EndChar

StartChar: brokenbar
Encoding: 166 166 180
Width: 435
VWidth: 0
Flags: HW
PickledData: "(dp1
S'org.robofab.postScriptHintData'
p2
(dp3
sS'com.typemytype.robofont.layerData'
p4
(dp5
S'b'
(dp6
S'name'
p7
S'brokenbar'
p8
sS'lib'
p9
(dp10
sS'unicodes'
p11
(tsS'width'
p12
I418
sS'contours'
p13
(tsS'components'
p14
(tsS'anchors'
p15
(tsss."
LayerCount: 2
Fore
SplineSet
181 -94 m 257
 254 -94 l 257
 254 467 l 257
 181 467 l 257
 181 -94 l 257
181 706 m 257
 254 706 l 257
 254 1268 l 257
 181 1268 l 257
 181 706 l 257
EndSplineSet
EndChar

StartChar: bullet
Encoding: 8226 8226 181
Width: 695
VWidth: 0
Flags: HW
PickledData: "(dp1
S'org.robofab.postScriptHintData'
p2
(dp3
sS'com.typemytype.robofont.layerData'
p4
(dp5
S'b'
(dp6
S'name'
p7
S'bullet'
p8
sS'lib'
p9
(dp10
sS'unicodes'
p11
(tsS'width'
p12
I768
sS'contours'
p13
(tsS'components'
p14
(tsS'anchors'
p15
(tsss."
LayerCount: 2
Fore
SplineSet
348 436 m 256
 479 436 585 538 585 664 c 256
 585 792 479 891 348 891 c 256
 215 891 111 792 111 664 c 256
 111 539 215 436 348 436 c 256
EndSplineSet
EndChar

StartChar: c
Encoding: 99 99 182
Width: 958
VWidth: 0
Flags: HW
PickledData: "(dp1
S'org.robofab.postScriptHintData'
p2
(dp3
sS'com.typemytype.robofont.layerData'
p4
(dp5
S'b'
(dp6
S'name'
p7
S'c'
sS'lib'
p8
(dp9
sS'unicodes'
p10
(tsS'width'
p11
I956
sS'contours'
p12
((dp13
S'points'
p14
((dp15
S'y'
S'-14'
p16
sS'x'
I633
sS'smooth'
p17
I0
s(dp18
S'y'
I33
sS'x'
I758
sg17
I0
s(dp19
S'segmentType'
p20
S'curve'
p21
sS'x'
I868
sg17
I0
sS'y'
I142
s(dp22
g20
S'line'
p23
sS'x'
I845
sg17
I0
sS'y'
I213
s(dp24
S'y'
I105
sS'x'
I763
sg17
I0
s(dp25
S'y'
I51
sS'x'
I637
sg17
I0
s(dp26
g20
S'curve'
p27
sS'x'
I515
sg17
I1
sS'y'
I51
s(dp28
S'y'
I51
sS'x'
I316
sg17
I0
s(dp29
S'y'
I193
sS'x'
I169
sg17
I0
s(dp30
g20
S'curve'
p31
sS'x'
I169
sg17
I1
sS'y'
I406
s(dp32
S'y'
I630
sS'x'
I169
sg17
I0
s(dp33
S'y'
I755
sS'x'
I336
sg17
I0
s(dp34
g20
S'curve'
p35
sS'x'
I515
sg17
I1
sS'y'
I755
s(dp36
S'y'
I755
sS'x'
I705
sg17
I0
s(dp37
S'y'
I657
sS'x'
I768
sg17
I0
s(dp38
g20
S'curve'
p39
sS'x'
I776
sg17
I0
sS'y'
I570
s(dp40
g20
S'line'
p41
sS'x'
I840
sg17
I0
sS'y'
I570
s(dp42
g20
S'line'
p43
sS'x'
I840
sg17
I0
sS'y'
I825
s(dp44
g20
S'line'
p45
sS'x'
I767
sg17
I0
sS'y'
I825
s(dp46
g20
S'line'
p47
sS'x'
I767
sg17
I0
sS'y'
I714
s(dp48
S'y'
I764
sS'x'
I736
sg17
I0
s(dp49
S'y'
I819
sS'x'
I645
sg17
I0
s(dp50
g20
S'curve'
p51
sS'x'
I522
sg17
I1
sS'y'
I819
s(dp52
S'y'
I819
sS'x'
F268.96812951340218
sg17
I0
s(dp53
S'y'
I650
sS'x'
I90
sg17
I0
s(dp54
g20
S'curve'
p55
sS'x'
I90
sg17
I1
sS'y'
I406
s(dp56
S'y'
I145
sS'x'
I90
sg17
I0
s(dp57
S'y'
S'-14'
p58
sS'x'
I286
sg17
I0
s(dp59
g20
S'curve'
p60
sS'x'
I515
sg17
I1
sS'y'
S'-14'
p61
stp62
stp63
sS'components'
p64
(tsS'anchors'
p65
(tsss."
AnchorPoint: "bot" 464 0 basechar 0
AnchorPoint: "top" 491 805 basechar 0
LayerCount: 2
Fore
SplineSet
158 407 m 0
 158 607.555699167 298.569954843 750.036656409 498.049495308 750.036656409 c 0
 633.604504033 750.036656409 738.256844598 670.495624495 759 549 c 1
 836 549 l 1
 836 806 l 1
 750 806 l 1
 749 703 l 1
 713 773 602 826 489 826 c 0
 237 826 58 652 58 406 c 0
 58 156 235 -21 483 -21 c 0
 638 -21 751 34 837 134 c 1
 806 200 l 1
 719.632996647 107.744337328 634.229224089 55.9443680004 494.958015073 55.9443680004 c 0
 296.292304961 55.9443680004 158 198.822626905 158 407 c 0
EndSplineSet
EndChar

StartChar: caron
Encoding: 711 711 184
Width: 433
VWidth: 0
Flags: HW
PickledData: "(dp1
S'org.robofab.postScriptHintData'
p2
(dp3
sS'com.typemytype.robofont.layerData'
p4
(dp5
S'b'
(dp6
S'name'
p7
S'caron'
p8
sS'lib'
p9
(dp10
sS'unicodes'
p11
(tsS'width'
p12
I351
sS'contours'
p13
(tsS'components'
p14
(tsS'anchors'
p15
(tsss."
AnchorPoint: "top" 216 804 mark 0
LayerCount: 2
Fore
SplineSet
172 924 m 257
 256 924 l 257
 424 1231 l 257
 352 1231 l 257
 214 986 l 257
 74 1231 l 257
 1 1231 l 257
 172 924 l 257
EndSplineSet
EndChar

StartChar: caron.alt
Encoding: 65539 -1 185
Width: 600
VWidth: 0
Flags: HW
PickledData: "(dp1
S'org.robofab.postScriptHintData'
p2
(dp3
s."
AnchorPoint: "caron.alt" 180 804 mark 0
LayerCount: 2
Fore
SplineSet
243 853 m 257
 358 853 392 932 391 1034 c 257
 391 1174 l 257
 253 1174 l 257
 253 1043 l 257
 332 1043 l 257
 332 961 316 905 243 896 c 257
 243 853 l 257
EndSplineSet
EndChar

StartChar: cedilla
Encoding: 184 184 190
Width: 550
VWidth: 0
Flags: HW
PickledData: "(dp1
S'org.robofab.postScriptHintData'
p2
(dp3
s."
AnchorPoint: "bot" 285 0 mark 0
LayerCount: 2
Fore
SplineSet
278 -317 m 256
 347 -317 404 -289 404 -217 c 256
 404 -165 367 -116 268 -112 c 257
 303 6 l 257
 255 6 l 257
 195 -152 l 257
 282 -154 314 -177 314 -207 c 256
 314 -243 285 -260 238 -260 c 256
 210 -260 177 -254 141 -243 c 257
 141 -285 l 257
 184 -305 233 -317 278 -317 c 256
EndSplineSet
EndChar

StartChar: cent
Encoding: 162 162 191
Width: 927
VWidth: 0
Flags: HW
PickledData: "(dp1
S'org.robofab.postScriptHintData'
p2
(dp3
sS'com.typemytype.robofont.layerData'
p4
(dp5
S'b'
(dp6
S'name'
p7
S'cent'
p8
sS'lib'
p9
(dp10
sS'unicodes'
p11
(tsS'width'
p12
I909
sS'contours'
p13
(tsS'components'
p14
(tsS'anchors'
p15
(tsss."
LayerCount: 2
Fore
SplineSet
346 -271 m 257
 660 1066 l 257
 614 1073 l 257
 300 -263 l 257
 346 -271 l 257
EndSplineSet
Refer: 182 99 N 1 0 0 1 0 0 2
EndChar

StartChar: circumflex
Encoding: 710 710 192
Width: 442
VWidth: 0
Flags: HW
PickledData: "(dp1
S'org.robofab.postScriptHintData'
p2
(dp3
sS'com.typemytype.robofont.layerData'
p4
(dp5
S'b'
(dp6
S'name'
p7
S'circumflex'
p8
sS'lib'
p9
(dp10
sS'unicodes'
p11
(tsS'width'
p12
I347
sS'contours'
p13
(tsS'components'
p14
(tsS'anchors'
p15
(tsss."
AnchorPoint: "top" 224 804 mark 0
LayerCount: 2
Fore
SplineSet
75 924 m 257
 219 1186 l 257
 361 924 l 257
 437 924 l 257
 265 1238 l 257
 172 1238 l 257
 0 924 l 257
 75 924 l 257
EndSplineSet
EndChar

StartChar: colon
Encoding: 58 58 193
Width: 490
VWidth: 0
Flags: HW
PickledData: "(dp1
S'org.robofab.postScriptHintData'
p2
(dp3
sS'com.typemytype.robofont.layerData'
p4
(dp5
S'b'
(dp6
S'name'
p7
S'colon'
p8
sS'lib'
p9
(dp10
sS'unicodes'
p11
(tsS'width'
p12
I453
sS'contours'
p13
(tsS'components'
p14
(tsS'anchors'
p15
(tsss."
LayerCount: 2
Fore
SplineSet
180 205 m 257
 316 205 l 257
 316 344 l 257
 180 344 l 257
 180 205 l 257
180 691 m 257
 316 691 l 257
 316 832 l 257
 180 832 l 257
 180 691 l 257
EndSplineSet
EndChar

StartChar: comma
Encoding: 44 44 194
Width: 426
VWidth: 0
Flags: HW
PickledData: "(dp1
S'org.robofab.postScriptHintData'
p2
(dp3
sS'com.typemytype.robofont.layerData'
p4
(dp5
S'b'
(dp6
S'name'
p7
S'comma'
p8
sS'lib'
p9
(dp10
sS'unicodes'
p11
(tsS'width'
p12
I374
sS'contours'
p13
(tsS'components'
p14
(tsS'anchors'
p15
(tsss."
LayerCount: 2
Fore
SplineSet
164 -197 m 257
 286 -197 314 -115 314 3 c 256
 314 19 314 135 312 147 c 257
 292 147 189 147 172 146 c 257
 172 0 l 257
 249 0 l 257
 249 -111 230 -139 164 -150 c 257
 164 -197 l 257
EndSplineSet
EndChar

StartChar: commaaccent
Encoding: 806 806 195
Width: 395
VWidth: 0
Flags: HW
PickledData: "(dp1
S'org.robofab.postScriptHintData'
p2
(dp3
sS'com.typemytype.robofont.layerData'
p4
(dp5
S'b'
(dp6
S'name'
p7
S'uni0326'
p8
sS'lib'
p9
(dp10
sS'unicodes'
p11
(tsS'width'
p12
I418
sS'contours'
p13
(tsS'components'
p14
(tsS'anchors'
p15
(tsss."
AnchorPoint: "bot" 231 0 mark 0
LayerCount: 2
Fore
SplineSet
152 -440 m 257
 267 -440 301 -361 300 -259 c 257
 300 -119 l 257
 162 -119 l 257
 162 -250 l 257
 241 -250 l 257
 241 -332 225 -389 152 -397 c 257
 152 -440 l 257
EndSplineSet
EndChar

StartChar: commaturnedabovecomb
Encoding: 786 786 196
Width: 600
VWidth: 0
Flags: HW
PickledData: "(dp1
S'org.robofab.postScriptHintData'
p2
(dp3
s."
AnchorPoint: "top" 243 804 mark 0
LayerCount: 2
Fore
SplineSet
330 921 m 257
 330 1061 l 257
 250 1061 l 257
 250 1161 273 1185 336 1196 c 257
 336 1238 l 257
 227 1238 191 1165 191 1065 c 258
 190 922 l 257
 330 921 l 257
EndSplineSet
EndChar

StartChar: copyright
Encoding: 169 169 197
Width: 1521
VWidth: 0
Flags: HW
PickledData: "(dp1
S'org.robofab.postScriptHintData'
p2
(dp3
sS'com.typemytype.robofont.layerData'
p4
(dp5
S'b'
(dp6
S'name'
p7
S'copyright'
p8
sS'lib'
p9
(dp10
sS'unicodes'
p11
(tsS'width'
p12
I1512
sS'contours'
p13
(tsS'components'
p14
(tsS'anchors'
p15
(tsss."
LayerCount: 2
Fore
SplineSet
1050 389 m 257
 974.891036226 305.879413424 880.245147891 258.994399343 767.129907374 258.994399343 c 0
 600.956156665 258.994399343 462 391.735792434 462 588 c 257
 462 812 628 913 775 913 c 256
 910 913 998 843 1011 729 c 257
 1076 729 l 257
 1076 957 l 257
 1012 957 l 257
 1011 865 l 257
 965 942 871 975 769 975 c 256
 584 975 382 851 382 588 c 256
 382 353 554 197 766 197 c 256
 889 197 1009 249 1084 338 c 257
 1050 389 l 257
760 -39 m 256
 1125 -39 1403 229 1403 586 c 256
 1403 943 1125 1211 760 1211 c 256
 396 1211 118 943 118 586 c 256
 118 229 396 -39 760 -39 c 256
760 27 m 256
 444 27 202 266 202 585 c 256
 202 905 444 1146 760 1146 c 256
 1076 1146 1319 905 1319 585 c 256
 1319 268 1076 27 760 27 c 256
EndSplineSet
EndChar

StartChar: currency
Encoding: 164 164 198
Width: 1084
VWidth: 0
Flags: HW
PickledData: "(dp1
S'org.robofab.postScriptHintData'
p2
(dp3
sS'com.typemytype.robofont.layerData'
p4
(dp5
S'b'
(dp6
S'name'
p7
S'currency'
p8
sS'lib'
p9
(dp10
sS'unicodes'
p11
(tsS'width'
p12
I1124
sS'contours'
p13
(tsS'components'
p14
(tsS'anchors'
p15
(tsss."
LayerCount: 2
Fore
SplineSet
876 551 m 257
 930 603 l 257
 827 704 l 257
 887 786 918 876 918 968 c 256
 918 1059 888 1149 827 1228 c 257
 930 1329 l 257
 876 1381 l 257
 780 1276 l 257
 698 1322 618 1346 537 1346 c 256
 460 1346 384 1323 309 1278 c 257
 213 1380 l 257
 155 1329 l 257
 255 1230 l 257
 191 1154 158 1058 158 962 c 256
 158 866 192 773 255 702 c 257
 155 603 l 257
 213 552 l 257
 309 654 l 257
 386 608 463 586 540 586 c 256
 622 586 700 609 780 655 c 257
 876 551 l 257
538 657 m 256
 385 657 236 766 236 967 c 256
 236 1166 386 1275 539 1275 c 256
 692 1275 846 1170 846 967 c 256
 846 763 694 657 538 657 c 256
EndSplineSet
EndChar

StartChar: d
Encoding: 100 100 199
Width: 1030
VWidth: 0
Flags: HW
PickledData: "(dp1
S'org.robofab.postScriptHintData'
p2
(dp3
sS'com.typemytype.robofont.layerData'
p4
(dp5
S'b'
(dp6
S'name'
p7
S'd'
sS'lib'
p8
(dp9
sS'unicodes'
p10
(tsS'width'
p11
I1011
sS'contours'
p12
(tsS'components'
p13
(tsS'anchors'
p14
(tsss."
AnchorPoint: "caron.alt" 900 804 basechar 0
AnchorPoint: "top" 423 804 basechar 0
LayerCount: 2
Fore
SplineSet
759 0 m 1
 991 0 l 1
 991 71 l 1
 857 71 l 1
 857 1174 l 1
 621 1174 l 1
 621 1103 l 1
 759 1103 l 1
 759 726 l 1
 673 788 561 826 459 826 c 0
 233.299715551 826 60.9828344984 662.884045177 60.9828344984 403.490784132 c 0
 60.9828344984 145.471944014 244.785672385 -22 480 -22 c 0
 575 -22 678 14 759 75 c 1
 759 0 l 1
759 146 m 1
 680 88 582 53 496 53 c 0
 303 53 160 186 160 394 c 0
 160 613 292 751 474 751 c 0
 567 751 673 715 759 656 c 1
 759 146 l 1
EndSplineSet
EndChar

StartChar: dagger
Encoding: 8224 8224 200
Width: 528
VWidth: 0
Flags: HW
PickledData: "(dp1
S'org.robofab.postScriptHintData'
p2
(dp3
sS'com.typemytype.robofont.layerData'
p4
(dp5
S'b'
(dp6
S'name'
p7
S'dagger'
p8
sS'lib'
p9
(dp10
sS'unicodes'
p11
(tsS'width'
p12
I364
sS'contours'
p13
(tsS'components'
p14
(tsS'anchors'
p15
(tsss."
LayerCount: 2
Fore
SplineSet
241 -18 m 257
 286 -18 l 257
 286 229 318 389 318 540 c 256
 318 625 305 718 286 814 c 257
 508 790 l 257
 508 884 l 257
 286 866 l 257
 324 1129 l 257
 205 1129 l 257
 241 866 l 257
 17 884 l 257
 17 790 l 257
 241 814 l 257
 223 716 210 623 210 538 c 256
 210 388 241 230 241 -18 c 257
EndSplineSet
EndChar

StartChar: daggerdbl
Encoding: 8225 8225 201
Width: 590
VWidth: 0
Flags: HW
PickledData: "(dp1
S'org.robofab.postScriptHintData'
p2
(dp3
sS'com.typemytype.robofont.layerData'
p4
(dp5
S'b'
(dp6
S'name'
p7
S'daggerdbl'
p8
sS'lib'
p9
(dp10
sS'unicodes'
p11
(tsS'width'
p12
I486
sS'contours'
p13
(tsS'components'
p14
(tsS'anchors'
p15
(tsss."
LayerCount: 2
Fore
SplineSet
232 -68 m 257
 361 -68 l 257
 322 213 l 257
 564 190 l 257
 564 294 l 257
 326 265 l 257
 333 304 334 475 334 569 c 256
 334 665 333 841 326 882 c 257
 564 852 l 257
 564 957 l 257
 322 933 l 257
 361 1215 l 257
 232 1215 l 257
 271 933 l 257
 26 957 l 257
 26 852 l 257
 266 882 l 257
 258 842 258 669 258 574 c 256
 258 480 258 304 266 265 c 257
 26 294 l 257
 26 190 l 257
 271 213 l 257
 232 -68 l 257
EndSplineSet
EndChar

StartChar: dblgravecmb
Encoding: 783 783 202
Width: 655
VWidth: 0
Flags: HW
PickledData: "(dp1
S'org.robofab.postScriptHintData'
p2
(dp3
sS'com.typemytype.robofont.layerData'
p4
(dp5
S'b'
(dp6
S'name'
p7
S'uni030F'
p8
sS'lib'
p9
(dp10
sS'unicodes'
p11
(tsS'width'
p12
I643
sS'contours'
p13
(tsS'components'
p14
(tsS'anchors'
p15
(tsss."
AnchorPoint: "top" 366 804 mark 0
LayerCount: 2
Fore
SplineSet
201 983 m 257
 260 983 l 257
 148 1287 l 257
 42 1287 l 257
 201 983 l 257
430 983 m 257
 489 983 l 257
 377 1287 l 257
 271 1287 l 257
 430 983 l 257
EndSplineSet
EndChar

StartChar: degree
Encoding: 176 176 206
Width: 828
VWidth: 0
Flags: HW
PickledData: "(dp1
S'org.robofab.postScriptHintData'
p2
(dp3
sS'com.typemytype.robofont.layerData'
p4
(dp5
S'b'
(dp6
S'name'
p7
S'degree'
p8
sS'lib'
p9
(dp10
sS'unicodes'
p11
(tsS'width'
p12
I922
sS'contours'
p13
(tsS'components'
p14
(tsS'anchors'
p15
(tsss."
LayerCount: 2
Fore
SplineSet
415 781 m 256
 304 781 229 859 229 958 c 256
 229 1056 304 1135 414 1135 c 256
 525 1135 600 1055 600 959 c 256
 600 859 524 781 415 781 c 256
414 721 m 256
 566 721 669 827 669 958 c 256
 669 1088 565 1194 414 1194 c 256
 264 1194 160 1088 160 958 c 256
 160 827 263 721 414 721 c 256
EndSplineSet
EndChar

StartChar: dieresis
Encoding: 168 168 207
Width: 423
VWidth: 0
Flags: HW
PickledData: "(dp1
S'org.robofab.postScriptHintData'
p2
(dp3
sS'com.typemytype.robofont.layerData'
p4
(dp5
S'b'
(dp6
S'name'
p7
S'dieresis'
p8
sS'lib'
p9
(dp10
sS'unicodes'
p11
(tsS'width'
p12
I295
sS'contours'
p13
(tsS'components'
p14
(tsS'anchors'
p15
(tsss."
AnchorPoint: "top" 217 804 mark 0
LayerCount: 2
Fore
SplineSet
33 941 m 256
 73 941 98 965 98 1004 c 256
 98 1042 73 1066 33 1066 c 256
 -6 1066 -31 1042 -31 1004 c 256
 -31 965 -6 941 33 941 c 256
385 941 m 256
 425 941 450 965 451 1003 c 256
 451 1041 426 1066 385 1066 c 256
 346 1066 321 1041 321 1003 c 256
 321 965 346 941 385 941 c 256
EndSplineSet
EndChar

StartChar: divide
Encoding: 247 247 208
Width: 776
VWidth: 0
Flags: HW
PickledData: "(dp1
S'org.robofab.postScriptHintData'
p2
(dp3
sS'com.typemytype.robofont.layerData'
p4
(dp5
S'b'
(dp6
S'name'
p7
S'divide'
p8
sS'lib'
p9
(dp10
sS'unicodes'
p11
(tsS'width'
p12
I339
sS'contours'
p13
(tsS'components'
p14
(tsS'anchors'
p15
(tsss."
LayerCount: 2
Fore
SplineSet
340 230 m 257
 438 230 l 257
 438 358 l 257
 340 358 l 257
 340 230 l 257
92 493 m 257
 684 493 l 257
 684 558 l 257
 92 558 l 257
 92 493 l 257
340 683 m 257
 438 683 l 257
 438 811 l 257
 340 811 l 257
 340 683 l 257
EndSplineSet
EndChar

StartChar: dollar
Encoding: 36 36 209
Width: 1105
VWidth: 0
Flags: HW
PickledData: "(dp1
S'org.robofab.postScriptHintData'
p2
(dp3
s."
LayerCount: 2
Fore
SplineSet
537 -182 m 257
 592 -182 l 257
 592 1340 l 257
 537 1340 l 257
 537 -182 l 257
EndSplineSet
Refer: 106 83 N 1 0 0 1 -21 0 2
EndChar

StartChar: dotaccent
Encoding: 729 729 211
Width: 435
VWidth: 0
Flags: HW
PickledData: "(dp1
S'org.robofab.postScriptHintData'
p2
(dp3
s."
AnchorPoint: "top" 221 804 mark 0
LayerCount: 2
Fore
SplineSet
221 1000 m 256
 267 1000 300 1031 300 1074 c 256
 300 1114 267 1146 221 1146 c 256
 178 1146 145 1114 145 1074 c 256
 145 1031 178 1000 221 1000 c 256
EndSplineSet
EndChar

StartChar: dotlessj
Encoding: 567 567 214
Width: 454
VWidth: 0
Flags: W
PickledData: "(dp1
S'org.robofab.postScriptHintData'
p2
(dp3
sS'com.typemytype.robofont.layerData'
p4
(dp5
S'b'
(dp6
S'name'
p7
S'uni0237'
p8
sS'lib'
p9
(dp10
sS'unicodes'
p11
(tsS'width'
p12
I398
sS'contours'
p13
(tsS'components'
p14
(tsS'anchors'
p15
(tsss."
AnchorPoint: "top" 251 805 basechar 0
LayerCount: 2
Fore
SplineSet
16 -276 m 257
 97 -276 l 258
 332 -276 325 -130 325 -6 c 258
 325 805 l 257
 65 805 l 257
 65 736 l 257
 225 736 l 257
 225 -30 l 258
 225 -146 220 -200 90 -200 c 258
 16 -200 l 257
 16 -276 l 257
EndSplineSet
EndChar

StartChar: e
Encoding: 101 101 217
Width: 959
VWidth: 0
Flags: HW
PickledData: "(dp1
S'org.robofab.postScriptHintData'
p2
(dp3
sS'com.typemytype.robofont.layerData'
p4
(dp5
S'b'
(dp6
S'name'
p7
S'e'
sS'lib'
p8
(dp9
sS'unicodes'
p10
(tsS'width'
p11
I975
sS'contours'
p12
((dp13
S'points'
p14
((dp15
S'segmentType'
p16
S'line'
p17
sS'x'
I171
sS'smooth'
p18
I0
sS'y'
I442
s(dp19
S'y'
I592
sS'x'
I182
sg18
I0
s(dp20
S'y'
I755
sS'x'
I296
sg18
I0
s(dp21
g16
S'curve'
p22
sS'x'
I507
sg18
I1
sS'y'
I755
s(dp23
S'y'
I755
sS'x'
I699
sg18
I0
s(dp24
S'y'
I616
sS'x'
I803
sg18
I0
s(dp25
g16
S'curve'
p26
sS'x'
I820
sg18
I0
sS'y'
I442
stp27
s(dp28
g14
((dp29
g16
S'line'
p30
sS'x'
I890
sg18
I0
sS'y'
I383
s(dp31
S'y'
I601
sS'x'
I889
sg18
I0
s(dp32
S'y'
I819
sS'x'
F778.76831688899995
sg18
I0
s(dp33
g16
S'curve'
p34
sS'x'
I502
sg18
I1
sS'y'
I819
s(dp35
S'y'
I819
sS'x'
I232
sg18
I0
s(dp36
S'y'
I618
sS'x'
I90
sg18
I0
s(dp37
g16
S'curve'
p38
sS'x'
I90
sg18
I1
sS'y'
I403
s(dp39
S'y'
I150
sS'x'
I90
sg18
I0
s(dp40
S'y'
S'-14'
p41
sS'x'
I284
sg18
I0
s(dp42
g16
S'curve'
p43
sS'x'
I511
sg18
I1
sS'y'
S'-14'
p44
s(dp45
S'y'
S'-14'
p46
sS'x'
I657
sg18
I0
s(dp47
S'y'
I34
sS'x'
I761
sg18
I0
s(dp48
g16
S'curve'
p49
sS'x'
I868
sg18
I0
sS'y'
I139
s(dp50
g16
S'line'
p51
sS'x'
I836
sg18
I0
sS'y'
I197
s(dp52
S'y'
I103
sS'x'
I747
sg18
I0
s(dp53
S'y'
I50
sS'x'
I652
sg18
I0
s(dp54
g16
S'curve'
p55
sS'x'
I515
sg18
I1
sS'y'
I50
s(dp56
S'y'
I50
sS'x'
I347
sg18
I0
s(dp57
S'y'
I162
sS'x'
I182
sg18
I0
s(dp58
g16
S'curve'
p59
sS'x'
I169
sg18
I0
sS'y'
I383
stp60
stp61
sS'components'
p62
(tsS'anchors'
p63
(tsss."
AnchorPoint: "bot" 494 0 basechar 0
LayerCount: 2
Fore
SplineSet
159 444 m 1
 169 631 306 753 471 753 c 0
 620 753 752 650 771 444 c 1
 159 444 l 1
489 -21 m 0
 623 -21 758 34 849 129 c 1
 815 194 l 1
 743 115 618 54 492 54 c 0
 326 54 168 171 158 381 c 1
 866 381 l 1
 861 689 667 826 472 826 c 0
 254 826 57 674 57 402 c 0
 57 141 256 -21 489 -21 c 0
EndSplineSet
EndChar

StartChar: eight
Encoding: 56 56 225
Width: 1015
VWidth: 0
Flags: HW
PickledData: "(dp1
S'org.robofab.postScriptHintData'
p2
(dp3
sS'com.typemytype.robofont.layerData'
p4
(dp5
S'b'
(dp6
S'name'
p7
S'eight'
p8
sS'lib'
p9
(dp10
sS'unicodes'
p11
(tsS'width'
p12
I964
sS'contours'
p13
(tsS'components'
p14
(tsS'anchors'
p15
(tsss."
LayerCount: 2
Fore
SplineSet
508 -22 m 256
 753 -22 900 109 900 301 c 256
 900 454 816 565 656 602 c 257
 801 639 862 747 862 880 c 256
 862 1058.23428685 726.169590272 1174.00641448 510.780404138 1174.00641448 c 0
 509.855069649 1174.00641448 508.928266782 1174.00427773 508 1174 c 256
 507.0795821 1174.00424156 506.160585475 1174.0063602 505.243014625 1174.0063602 c 0
 289.831812961 1174.0063602 153 1057.24076127 153 879 c 256
 153 750 210 662 354 609 c 257
 190 576 115 453 115 301 c 256
 115 111 259 -22 508 -22 c 256
508 54 m 256
 330 54 218 152 218 305 c 256
 218 461 304 556 423 577 c 257
 690 553 797 470 797 304 c 256
 797 151 685 54 508 54 c 256
597 630 m 257
 360 646 252 723 252 873 c 256
 252 1012 349 1098 508 1098 c 256
 669 1098 764 1010 764 873 c 256
 764 725 685 658 597 630 c 257
EndSplineSet
EndChar

StartChar: emdash
Encoding: 8212 8212 228
Width: 1145
VWidth: 0
Flags: HW
PickledData: "(dp1
S'org.robofab.postScriptHintData'
p2
(dp3
sS'com.typemytype.robofont.layerData'
p4
(dp5
S'b'
(dp6
S'name'
p7
S'emdash'
p8
sS'lib'
p9
(dp10
sS'unicodes'
p11
(tsS'width'
p12
I1309
sS'contours'
p13
(tsS'components'
p14
(tsS'anchors'
p15
(tsss."
LayerCount: 2
Fore
SplineSet
0 453 m 257
 1145 453 l 257
 1145 521 l 257
 0 521 l 257
 0 453 l 257
EndSplineSet
EndChar

StartChar: emptyset
Encoding: 8709 8709 229
Width: 1348
VWidth: 0
Flags: HW
PickledData: "(dp1
S'org.robofab.postScriptHintData'
p2
(dp3
s."
LayerCount: 2
Fore
SplineSet
234 -50 m 257
 346 83 l 257
 438 17 551 -22 673 -22 c 256
 976 -22 1223 223 1223 525 c 256
 1223 680 1158 819 1055 919 c 257
 1175 1059 l 257
 1134 1096 l 257
 1014 954 l 257
 920 1028 802 1073 673 1073 c 256
 371 1073 125 836 125 525 c 256
 125 359 194 215 305 117 c 257
 195 -14 l 257
 234 -50 l 257
346 165 m 257
 250 253 190 380 190 525 c 256
 190 797 404 1012 673 1012 c 256
 787 1012 892 972 974 907 c 257
 346 165 l 257
673 39 m 256
 566 39 467 73 387 131 c 257
 1014 870 l 257
 1103 781 1158 659 1158 525 c 256
 1158 260 943 39 673 39 c 256
EndSplineSet
EndChar

StartChar: endash
Encoding: 8211 8211 230
Width: 730
VWidth: 0
Flags: HW
PickledData: "(dp1
S'org.robofab.postScriptHintData'
p2
(dp3
sS'com.typemytype.robofont.layerData'
p4
(dp5
S'b'
(dp6
S'name'
p7
S'endash'
p8
sS'lib'
p9
(dp10
sS'unicodes'
p11
(tsS'width'
p12
I1113
sS'contours'
p13
(tsS'components'
p14
(tsS'anchors'
p15
(tsss."
LayerCount: 2
Fore
SplineSet
0 446 m 257
 730 446 l 257
 730 514 l 257
 0 514 l 257
 0 446 l 257
EndSplineSet
EndChar

StartChar: eng
Encoding: 331 331 231
Width: 1033
VWidth: 0
Flags: HW
PickledData: "(dp1
S'org.robofab.postScriptHintData'
p2
(dp3
s."
LayerCount: 2
Fore
SplineSet
480 -350 m 257
 716 -350 878 -247 878 6 c 258
 878 569 l 258
 878 731 772 826 625 826 c 256
 512 826 375 763 250 678 c 257
 250 607 l 257
 373 688 510 748 602 748 c 256
 712 748 781 681 781 567 c 258
 781 -6 l 258
 781 -182 688 -278 482 -278 c 257
 480 -350 l 257
EndSplineSet
Refer: 299 -1 N 1 0 0 1 -68 0 2
EndChar

StartChar: equal
Encoding: 61 61 233
Width: 888
VWidth: 0
Flags: HW
PickledData: "(dp1
S'org.robofab.postScriptHintData'
p2
(dp3
sS'com.typemytype.robofont.layerData'
p4
(dp5
S'b'
(dp6
S'name'
p7
S'equal'
p8
sS'lib'
p9
(dp10
sS'unicodes'
p11
(tsS'width'
p12
I715
sS'contours'
p13
(tsS'components'
p14
(tsS'anchors'
p15
(tsss."
LayerCount: 2
Fore
SplineSet
170 289 m 257
 720 289 l 257
 720 367 l 257
 170 367 l 257
 170 289 l 257
170 577 m 257
 720 577 l 257
 720 654 l 257
 170 654 l 257
 170 577 l 257
EndSplineSet
EndChar

StartChar: estimated
Encoding: 8494 8494 234
Width: 782
VWidth: 0
Flags: HW
PickledData: "(dp1
S'org.robofab.postScriptHintData'
p2
(dp3
s."
LayerCount: 2
Fore
SplineSet
547 -16 m 256
 690 -16 813 43 906 131 c 257
 879 163 l 257
 795.610684048 84.5159379277 688.159852474 33.9432339776 569.866623677 33.9432339776 c 0
 381.516620948 33.9432339776 251.132957676 179.154705725 241 396 c 257
 903 396 l 257
 903 653 759 821 526 821 c 256
 281 821 116 655 116 409 c 256
 116 150 306 -16 547 -16 c 256
242 441 m 257
 248.974977959 650.249338759 374.100727046 789.00536029 537.242768296 789.00536029 c 0
 537.828024182 789.00536029 538.413769317 789.003574577 539 789 c 256
 693 789 825 652 833 441 c 257
 242 441 l 257
EndSplineSet
EndChar

StartChar: eth
Encoding: 240 240 235
Width: 934
VWidth: 0
Flags: HW
PickledData: "(dp1
S'org.robofab.postScriptHintData'
p2
(dp3
sS'com.typemytype.robofont.layerData'
p4
(dp5
S'b'
(dp6
S'name'
p7
S'eth'
p8
sS'lib'
p9
(dp10
sS'unicodes'
p11
(tsS'width'
p12
I886
sS'contours'
p13
(tsS'components'
p14
(tsS'anchors'
p15
(tsss."
LayerCount: 2
Fore
SplineSet
464 -22 m 256
 683 -22 861 136 861 397 c 256
 861 829 445 1147 188 1362 c 257
 136 1302 l 257
 337 1141 581 944 694 706 c 257
 642 753 547 798 447 798 c 256
 239 798 63 630 63 428 c 256
 63 194 194 -22 464 -22 c 256
465 59 m 256
 256 59 158 235 158 409 c 256
 158 619 304 724 457 724 c 256
 611 724 769 624 769 403 c 256
 769 235 682 59 465 59 c 256
197 901 m 257
 772 1153 l 257
 738 1216 l 257
 163 966 l 257
 197 901 l 257
EndSplineSet
EndChar

StartChar: exclam
Encoding: 33 33 236
Width: 273
VWidth: 0
Flags: HW
PickledData: "(dp1
S'org.robofab.postScriptHintData'
p2
(dp3
sS'com.typemytype.robofont.layerData'
p4
(dp5
S'b'
(dp6
S'name'
p7
S'exclam'
p8
sS'lib'
p9
(dp10
sS'unicodes'
p11
(tsS'width'
p12
I150
sS'contours'
p13
(tsS'components'
p14
(tsS'anchors'
p15
(tsss."
LayerCount: 2
Fore
SplineSet
116 352 m 257
 163 352 l 257
 189 792 l 257
 189 1179 l 257
 88 1179 l 257
 88 792 l 257
 116 352 l 257
138 -14 m 256
 184 -14 218 17 218 59 c 256
 218 100 184 131 138 131 c 256
 95 131 62 100 62 59 c 256
 62 17 95 -14 138 -14 c 256
EndSplineSet
EndChar

StartChar: f
Encoding: 102 102 238
Width: 686
VWidth: 0
Flags: HW
PickledData: "(dp1
S'org.robofab.postScriptHintData'
p2
(dp3
sS'com.typemytype.robofont.layerData'
p4
(dp5
S'b'
(dp6
S'name'
p7
S'f'
sS'lib'
p8
(dp9
sS'unicodes'
p10
(tsS'width'
p11
I671
sS'contours'
p12
(tsS'components'
p13
(tsS'anchors'
p14
(tsss."
AnchorPoint: "top" 384 1101 basechar 0
LayerCount: 2
Fore
SplineSet
99 0 m 1
 553 0 l 1
 553 71 l 1
 354 71 l 1
 354 733 l 1
 578 733 l 1
 578 804 l 1
 354 804 l 1
 354 1005 l 2
 354 1092 395 1134 458 1134 c 0
 523 1134 555 1094 565 1023 c 1
 640 1047 l 1
 631 1158 553 1206 454 1206 c 0
 323 1206 254 1129 254 1006 c 2
 254 804 l 1
 98 804 l 1
 98 733 l 1
 254 733 l 1
 254 71 l 1
 99 71 l 1
 99 0 l 1
EndSplineSet
EndChar

StartChar: ff
Encoding: 65541 -1 240
Width: 1270
VWidth: 0
Flags: HW
PickledData: "(dp1
S'org.robofab.postScriptHintData'
p2
(dp3
sS'com.typemytype.robofont.layerData'
p4
(dp5
S'b'
(dp6
S'name'
p7
S'ff'
p8
sS'lib'
p9
(dp10
sS'unicodes'
p11
(tsS'width'
p12
I1226
sS'contours'
p13
(tsS'components'
p14
(tsS'anchors'
p15
(tsss."
LayerCount: 2
Fore
SplineSet
680 0 m 257
 1107 0 l 257
 1107 71 l 257
 922 71 l 257
 922 734 l 257
 1135 734 l 257
 1135 805 l 257
 922 805 l 257
 922 1007 l 258
 922 1092 969 1133 1019 1133 c 256
 1073 1133 1118 1109 1129 1023 c 257
 1202 1047 l 257
 1191 1173 1101 1206 1017 1206 c 256
 907 1206 824 1132 824 1004 c 258
 824 805 l 257
 508 805 l 257
 508 734 l 257
 824 734 l 257
 824 71 l 257
 680 71 l 257
 680 0 l 257
EndSplineSet
Refer: 238 102 N 1 0 0 1 0 0 2
EndChar

StartChar: ffi
Encoding: 65542 -1 241
Width: 1717
VWidth: 0
Flags: HW
PickledData: "(dp1
S'org.robofab.postScriptHintData'
p2
(dp3
sS'com.typemytype.robofont.layerData'
p4
(dp5
S'b'
(dp6
S'name'
p7
S'ffi'
p8
sS'lib'
p9
(dp10
sS'unicodes'
p11
(tsS'width'
p12
I1699
sS'contours'
p13
(tsS'components'
p14
(tsS'anchors'
p15
(tsss."
LayerCount: 2
Fore
SplineSet
157 0 m 257
 569 0 l 257
 569 71 l 257
 399 71 l 257
 399 733 l 257
 802 733 l 257
 802 804 l 257
 399 804 l 257
 399 985 l 258
 399 1091 498 1149 641 1149 c 256
 739 1149 860 1109 948 1047 c 257
 983 1101 l 257
 884 1175 747 1219 630 1219 c 256
 442 1219 301 1136 301 986 c 258
 301 804 l 257
 152 804 l 257
 152 733 l 257
 301 733 l 257
 301 71 l 257
 157 71 l 257
 157 0 l 257
EndSplineSet
Refer: 243 64257 N 1 0 0 1 621 0 2
EndChar

StartChar: ffl
Encoding: 65543 -1 242
Width: 1791
VWidth: 0
Flags: HW
PickledData: "(dp1
S'org.robofab.postScriptHintData'
p2
(dp3
sS'com.typemytype.robofont.layerData'
p4
(dp5
S'b'
(dp6
S'name'
p7
S'ffl'
p8
sS'lib'
p9
(dp10
sS'unicodes'
p11
(tsS'width'
p12
I1801
sS'contours'
p13
(tsS'components'
p14
(tsS'anchors'
p15
(tsss."
LayerCount: 2
Fore
SplineSet
100 0 m 257
 512 0 l 257
 512 71 l 257
 342 71 l 257
 342 733 l 257
 745 733 l 257
 745 804 l 257
 342 804 l 257
 342 985 l 258
 342 1091 441 1149 584 1149 c 256
 682 1149 803 1109 891 1047 c 257
 926 1101 l 257
 827 1175 690 1219 573 1219 c 256
 385 1219 244 1136 244 986 c 258
 244 804 l 257
 95 804 l 257
 95 733 l 257
 244 733 l 257
 244 71 l 257
 100 71 l 257
 100 0 l 257
EndSplineSet
Refer: 246 64258 N 1 0 0 1 550 0 2
EndChar

StartChar: fi
Encoding: 64257 64257 243
Width: 1106
VWidth: 0
Flags: HW
PickledData: "(dp1
S'org.robofab.postScriptHintData'
p2
(dp3
sS'com.typemytype.robofont.layerData'
p4
(dp5
S'b'
(dp6
S'name'
p7
S'fi'
p8
sS'lib'
p9
(dp10
sS'unicodes'
p11
(tsS'width'
p12
I1044
sS'contours'
p13
(tsS'components'
p14
(tsS'anchors'
p15
(tsss."
LayerCount: 2
Fore
SplineSet
109 0 m 257
 550 0 l 257
 550 71 l 257
 360 71 l 257
 360 733 l 257
 840 733 l 257
 840 71 l 257
 690 71 l 257
 690 0 l 257
 1085 0 l 257
 1085 71 l 257
 937 71 l 257
 937 804 l 257
 360 804 l 257
 360 933 l 258
 360 1093 473 1171 647 1171 c 256
 716 1171 809 1154 838 1109 c 257
 816 1100 807 1079 807 1058 c 256
 807 1020 840 992 884 992 c 256
 928 992 957 1023 957 1066 c 256
 957 1168 823 1234 649 1234 c 256
 422 1234 262 1133 262 933 c 258
 262 804 l 257
 104 804 l 257
 104 733 l 257
 262 733 l 257
 262 71 l 257
 109 71 l 257
 109 0 l 257
EndSplineSet
EndChar

StartChar: five
Encoding: 53 53 244
Width: 996
VWidth: 0
Flags: HW
PickledData: "(dp1
S'org.robofab.postScriptHintData'
p2
(dp3
sS'com.typemytype.robofont.layerData'
p4
(dp5
S'b'
(dp6
S'name'
p7
S'five'
p8
sS'lib'
p9
(dp10
sS'unicodes'
p11
(tsS'width'
p12
I964
sS'contours'
p13
(tsS'components'
p14
(tsS'anchors'
p15
(tsss."
LayerCount: 2
Fore
SplineSet
494 -22 m 256
 766 -22 921 115 921 356 c 256
 921 595 775 731 517 731 c 256
 409 731 313 691 251 620 c 257
 257 1075 l 257
 760 1075 l 257
 760 889 l 257
 852 889 l 257
 852 1152 l 257
 167 1152 l 257
 160 564 l 257
 243 530 l 257
 315 609 425 647 512 647 c 256
 710 647 820 541 820 353 c 256
 820 165 703 59 495 59 c 256
 358 59 244 123 165 234 c 257
 105 169 l 257
 197 49 329 -22 494 -22 c 256
EndSplineSet
EndChar

StartChar: fj
Encoding: 65544 -1 245
Width: 1100
VWidth: 0
Flags: HW
PickledData: "(dp1
S'org.robofab.postScriptHintData'
p2
(dp3
s."
LayerCount: 2
Fore
SplineSet
640 -276 m 257
 720 -276 l 258
 943.582995951 -276 949.014161845 -143.841629923 949.014161845 -24.2093900926 c 0
 949.014161845 -18.1005097609 949 -12.024291498 949 -6 c 258
 949 804 l 257
 360 804 l 257
 360 933 l 258
 360 1093 473 1171 647 1171 c 256
 716 1171 809 1154 838 1109 c 257
 816 1100 807 1079 807 1058 c 256
 807 1020 840 992 884 992 c 256
 928 992 957 1023 957 1066 c 256
 957 1168 823 1234 649 1234 c 256
 422 1234 262 1133 262 933 c 258
 262 804 l 257
 104 804 l 257
 104 733 l 257
 262 733 l 257
 262 71 l 257
 109 71 l 257
 109 0 l 257
 550 0 l 257
 550 71 l 257
 360 71 l 257
 360 733 l 257
 849 733 l 257
 849 -30 l 258
 849 -146 843 -200 714 -200 c 258
 640 -200 l 257
 640 -276 l 257
EndSplineSet
EndChar

StartChar: fl
Encoding: 64258 64258 246
Width: 1231
VWidth: 0
Flags: HW
PickledData: "(dp1
S'org.robofab.postScriptHintData'
p2
(dp3
sS'com.typemytype.robofont.layerData'
p4
(dp5
S'b'
(dp6
S'name'
p7
S'fl'
p8
sS'lib'
p9
(dp10
sS'unicodes'
p11
(tsS'width'
p12
I1223
sS'contours'
p13
(tsS'components'
p14
(tsS'anchors'
p15
(tsss."
LayerCount: 2
Fore
SplineSet
109 0 m 257
 550 0 l 257
 550 71 l 257
 360 71 l 257
 360 733 l 257
 560 733 l 257
 560 804 l 257
 360 804 l 257
 360 960 l 258
 360 1093 494 1169 666 1169 c 256
 787 1169 869 1141 869 1098 c 258
 869 71 l 258
 869 48 888 0 916 0 c 258
 1153 0 l 257
 1153 71 l 257
 967 71 l 257
 967 1114 l 258
 967 1198 842 1248 670 1248 c 256
 444 1248 262 1145 262 953 c 258
 262 804 l 257
 104 804 l 257
 104 733 l 257
 262 733 l 257
 262 71 l 257
 109 71 l 257
 109 0 l 257
EndSplineSet
EndChar

StartChar: florin
Encoding: 402 402 247
Width: 859
VWidth: 0
Flags: HW
PickledData: "(dp1
S'org.robofab.postScriptHintData'
p2
(dp3
s."
LayerCount: 2
Fore
SplineSet
823.104405915 1115.94552783 m 0
 823.104405915 1171.41641536 759.414220979 1208.03267967 677.285122152 1208.03267967 c 0
 535.609021394 1208.03267967 472.749182415 1118.61505073 450 993 c 258
 414 797 l 257
 244 797 l 257
 236 737 l 257
 406 737 l 257
 294 52 l 257
 273.09475596 -90.3164690383 221.804343678 -118.850180399 155.723100892 -118.850180399 c 0
 139.618634237 -118.850180399 122.635693709 -117.155473676 105 -115 c 257
 100 -170 l 257
 123.53991309 -173.766386094 147.07982618 -176.220598249 170.011987939 -176.220598249 c 0
 268.852587572 -176.220598249 356.40285636 -130.628156438 384 52 c 257
 499 737 l 257
 715 737 l 257
 722 797 l 257
 508 797 l 257
 542 993 l 257
 562.231818826 1120.17143262 602.883553402 1159.16595632 657.695627428 1159.16595632 c 0
 712.294177524 1159.16595632 735.042877819 1117.95856952 734 1046 c 257
 800.950812312 1046 823.104405915 1080.5928616 823.104405915 1115.94552783 c 0
EndSplineSet
EndChar

StartChar: foundryicon
Encoding: 65545 -1 248
Width: 1347
VWidth: 0
Flags: HW
PickledData: "(dp1
S'org.robofab.postScriptHintData'
p2
(dp3
sS'com.typemytype.robofont.layerData'
p4
(dp5
S'b'
(dp6
S'name'
p7
S'foundryicon'
p8
sS'lib'
p9
(dp10
sS'unicodes'
p11
(tsS'width'
p12
I313
sS'contours'
p13
(tsS'components'
p14
(tsS'anchors'
p15
(tsss."
LayerCount: 2
Fore
SplineSet
485 405 m 257
 485 672 l 257
 591 672 l 257
 761 523 l 257
 761 672 l 257
 867 672 l 257
 867 405 l 257
 761 405 l 257
 591 552 l 257
 591 405 l 257
 485 405 l 257
280 2 m 257
 669 278 l 257
 1066 2 l 257
 922 461 l 257
 1313 755 l 257
 828 755 l 257
 669 1215 l 257
 519 755 l 257
 34 755 l 257
 423 461 l 257
 280 2 l 257
EndSplineSet
EndChar

StartChar: four
Encoding: 52 52 249
Width: 967
VWidth: 0
Flags: HW
PickledData: "(dp1
S'org.robofab.postScriptHintData'
p2
(dp3
sS'com.typemytype.robofont.layerData'
p4
(dp5
S'b'
(dp6
S'name'
p7
S'four'
p8
sS'lib'
p9
(dp10
sS'unicodes'
p11
(tsS'width'
p12
I964
sS'contours'
p13
(tsS'components'
p14
(tsS'anchors'
p15
(tsss."
LayerCount: 2
Fore
SplineSet
422 0 m 257
 803 0 l 257
 803 71 l 257
 662 71 l 257
 662 357 l 257
 866 357 l 257
 866 428 l 257
 662 428 l 257
 662 1152 l 257
 563 1152 l 257
 86 440 l 257
 99 357 l 257
 570 357 l 257
 570 71 l 257
 422 71 l 257
 422 0 l 257
178 428 m 257
 570 1036 l 257
 570 428 l 257
 178 428 l 257
EndSplineSet
EndChar

StartChar: foursuperior
Encoding: 8308 8308 250
Width: 807
VWidth: 0
Flags: HW
PickledData: "(dp1
S'org.robofab.postScriptHintData'
p2
(dp3
sS'com.typemytype.robofont.layerData'
p4
(dp5
S'b'
(dp6
S'name'
p7
S'uni2074'
p8
sS'lib'
p9
(dp10
sS'unicodes'
p11
(tsS'width'
p12
I718
sS'contours'
p13
(tsS'components'
p14
(tsS'anchors'
p15
(tsss."
LayerCount: 2
Fore
SplineSet
338 543 m 257
 641 543 l 257
 641 600 l 257
 526 600 l 257
 526 776 l 257
 698 776 l 257
 698 833 l 257
 526 833 l 257
 526 1330 l 257
 450 1330 l 257
 85 837 l 257
 97 776 l 257
 456 776 l 257
 456 600 l 257
 338 600 l 257
 338 543 l 257
162 833 m 257
 456 1241 l 257
 456 833 l 257
 162 833 l 257
EndSplineSet
EndChar

StartChar: fraction
Encoding: 8260 8260 251
Width: 467
VWidth: 0
Flags: HW
PickledData: "(dp1
S'org.robofab.postScriptHintData'
p2
(dp3
sS'com.typemytype.robofont.layerData'
p4
(dp5
S'b'
(dp6
S'name'
p7
S'fraction'
p8
sS'lib'
p9
(dp10
sS'unicodes'
p11
(tsS'width'
p12
I337
sS'contours'
p13
(tsS'components'
p14
(tsS'anchors'
p15
(tsss."
LayerCount: 2
Fore
SplineSet
-68 -34 m 257
 13 -34 l 257
 523 1276 l 257
 447 1276 l 257
 -68 -34 l 257
EndSplineSet
EndChar

StartChar: g
Encoding: 103 103 252
Width: 1032
VWidth: 0
Flags: HW
PickledData: "(dp1
S'org.robofab.postScriptHintData'
p2
(dp3
sS'com.typemytype.robofont.layerData'
p4
(dp5
S'b'
(dp6
S'name'
p7
S'g'
sS'lib'
p8
(dp9
sS'unicodes'
p10
(tsS'width'
p11
I1013
sS'contours'
p12
((dp13
S'points'
p14
((dp15
S'segmentType'
p16
S'curve'
p17
sS'x'
I510
sS'smooth'
p18
I1
sS'y'
S'-333'
p19
s(dp20
S'y'
S'-333'
p21
sS'x'
I722
sg18
I0
s(dp22
S'y'
S'-225'
p23
sS'x'
I880
sg18
I0
s(dp24
g16
S'curve'
p25
sS'x'
I880
sg18
I0
sS'y'
I15
s(dp26
g16
S'line'
p27
sS'x'
I880
sg18
I0
sS'y'
I735
s(dp28
g16
S'line'
p29
sS'x'
I1005
sg18
I0
sS'y'
I735
s(dp30
g16
S'line'
p31
sS'x'
I1005
sg18
I0
sS'y'
I789
s(dp32
g16
S'line'
p33
sS'x'
I804
sg18
I0
sS'y'
I789
s(dp34
g16
S'line'
p35
sS'x'
I804
sg18
I0
sS'y'
I673
s(dp36
S'y'
I673
sS'x'
I804
sg18
I0
s(dp37
S'y'
S'-2'
p38
sS'x'
I804
sg18
I0
s(dp39
g16
S'curve'
p40
sS'x'
I804
sg18
I1
sS'y'
S'-2'
p41
s(dp42
S'y'
S'-173'
p43
sS'x'
I804
sg18
I0
s(dp44
S'y'
S'-271'
p45
sS'x'
I695
sg18
I0
s(dp46
g16
S'curve'
p47
sS'x'
I515
sg18
I1
sS'y'
S'-271'
p48
s(dp49
S'y'
S'-271'
p50
sS'x'
I444
sg18
I0
s(dp51
S'y'
S'-255'
p52
sS'x'
I362
sg18
I0
s(dp53
g16
S'curve'
p54
sS'x'
I272
sg18
I0
sS'y'
S'-224'
p55
s(dp56
g16
S'line'
p57
sS'x'
I257
sg18
I0
sS'y'
S'-289'
p58
s(dp59
S'y'
S'-318'
p60
sS'x'
I345
sg18
I0
s(dp61
S'y'
S'-333'
p62
sS'x'
I431
sg18
I0
stp63
stp64
sS'components'
p65
(tsS'anchors'
p66
(tsss."
AnchorPoint: "top" 495 804 basechar 0
LayerCount: 2
Fore
SplineSet
479 -380 m 0
 714 -380 871 -271 871 -17 c 2
 871 733 l 1
 1007 733 l 1
 1007 804 l 1
 773 804 l 1
 773 718 l 1
 686 784 568 824 461 824 c 0
 235.299715551 824 62.9828344984 664.838371355 62.9828344984 410.404998755 c 0
 62.9828344984 157.394764292 246.811985463 -7 482 -7 c 0
 582 -7 691 32 774 98 c 1
 774 -30 l 2
 774 -205 672 -302 479 -302 c 0
 401 -302 309 -286 204 -256 c 1
 186 -332 l 1
 289 -361 389 -380 479 -380 c 0
773 650 m 1
 774 168 l 1
 693 105 589 67 498 67 c 0
 305 67 162 197 162 401 c 0
 162 616 294 751 476 751 c 0
 574 751 685 713 773 650 c 1
EndSplineSet
EndChar

StartChar: germandbls
Encoding: 223 223 259
Width: 1179
VWidth: 0
Flags: HW
PickledData: "(dp1
S'org.robofab.postScriptHintData'
p2
(dp3
sS'com.typemytype.robofont.layerData'
p4
(dp5
S'b'
(dp6
S'name'
p7
S'germandbls'
p8
sS'lib'
p9
(dp10
sS'unicodes'
p11
(tsS'width'
p12
I1198
sS'contours'
p13
(tsS'components'
p14
(tsS'anchors'
p15
(tsss."
LayerCount: 2
Fore
SplineSet
87 0 m 257
 464 0 l 257
 464 75 l 257
 344 75 l 257
 344 863 l 258
 344 1056 431 1177 606 1177 c 256
 775 1177 858 1095 858 964 c 256
 858 810 765 712 594 705 c 257
 594 641 l 257
 844 640 994 533 994 358 c 256
 994 177 830 75 589 75 c 257
 589 0 l 257
 905 0 1097 141 1097 358 c 256
 1097 526 987 656 747 684 c 257
 875 718 956 825 956 967 c 256
 956 1152 827 1253 606 1253 c 256
 371 1253 240 1111 240 858 c 258
 240 75 l 257
 87 75 l 257
 87 0 l 257
EndSplineSet
EndChar

StartChar: grave
Encoding: 96 96 260
Width: 232
VWidth: 0
Flags: HW
PickledData: "(dp1
S'org.robofab.postScriptHintData'
p2
(dp3
sS'com.typemytype.robofont.layerData'
p4
(dp5
S'b'
(dp6
S'name'
p7
S'grave'
p8
sS'lib'
p9
(dp10
sS'unicodes'
p11
(tsS'width'
p12
I50
sS'contours'
p13
(tsS'components'
p14
(tsS'anchors'
p15
(tsss."
AnchorPoint: "top" 175 804 mark 0
LayerCount: 2
Fore
SplineSet
142 983 m 257
 201 983 l 257
 103 1255 l 257
 -4 1255 l 257
 142 983 l 257
EndSplineSet
EndChar

StartChar: greater
Encoding: 62 62 261
Width: 960
VWidth: 0
Flags: HW
PickledData: "(dp1
S'org.robofab.postScriptHintData'
p2
(dp3
sS'com.typemytype.robofont.layerData'
p4
(dp5
S'b'
(dp6
S'name'
p7
S'greater'
p8
sS'lib'
p9
(dp10
sS'unicodes'
p11
(tsS'width'
p12
I896
sS'contours'
p13
(tsS'components'
p14
(tsS'anchors'
p15
(tsss."
LayerCount: 2
Fore
SplineSet
146 -43 m 257
 989 547 l 257
 989 607 l 257
 146 1202 l 257
 146 1095 l 257
 887 578 l 257
 146 62 l 257
 146 -43 l 257
EndSplineSet
EndChar

StartChar: greaterequal
Encoding: 8805 8805 262
Width: 749
VWidth: 0
Flags: HW
PickledData: "(dp1
S'org.robofab.postScriptHintData'
p2
(dp3
sS'com.typemytype.robofont.layerData'
p4
(dp5
S'b'
(dp6
S'name'
p7
S'greaterequal'
p8
sS'lib'
p9
(dp10
sS'unicodes'
p11
(tsS'width'
p12
I595
sS'contours'
p13
(tsS'components'
p14
(tsS'anchors'
p15
(tsss."
LayerCount: 2
Fore
SplineSet
44 193 m 257
 749 564 l 257
 749 608 l 257
 44 982 l 257
 44 898 l 257
 626 585 l 257
 44 276 l 257
 44 193 l 257
44 0 m 257
 749 0 l 257
 749 72 l 257
 44 72 l 257
 44 0 l 257
EndSplineSet
EndChar

StartChar: guillemotleft
Encoding: 171 171 263
Width: 818
VWidth: 0
Flags: HW
PickledData: "(dp1
S'org.robofab.postScriptHintData'
p2
(dp3
sS'com.typemytype.robofont.layerData'
p4
(dp5
S'b'
(dp6
S'name'
p7
S'guillemotleft'
p8
sS'lib'
p9
(dp10
sS'unicodes'
p11
(tsS'width'
p12
I744
sS'contours'
p13
(tsS'components'
p14
(tsS'anchors'
p15
(tsss."
LayerCount: 2
Fore
SplineSet
332 251 m 257
 401 251 l 257
 190 639 l 257
 401 1025 l 257
 332 1025 l 257
 50 639 l 257
 332 251 l 257
638 251 m 257
 707 251 l 257
 495 639 l 257
 707 1025 l 257
 638 1025 l 257
 356 639 l 257
 638 251 l 257
EndSplineSet
EndChar

StartChar: guillemotright
Encoding: 187 187 264
Width: 818
VWidth: 0
Flags: HW
PickledData: "(dp1
S'org.robofab.postScriptHintData'
p2
(dp3
sS'com.typemytype.robofont.layerData'
p4
(dp5
S'b'
(dp6
S'name'
p7
S'guillemotright'
p8
sS'lib'
p9
(dp10
sS'unicodes'
p11
(tsS'width'
p12
I744
sS'contours'
p13
(tsS'components'
p14
(tsS'anchors'
p15
(tsss."
LayerCount: 2
Fore
SplineSet
110 251 m 257
 179 251 l 257
 461 639 l 257
 179 1025 l 257
 110 1025 l 257
 321 639 l 257
 110 251 l 257
416 251 m 257
 485 251 l 257
 767 639 l 257
 485 1025 l 257
 416 1025 l 257
 628 639 l 257
 416 251 l 257
EndSplineSet
EndChar

StartChar: guilsinglleft
Encoding: 8249 8249 265
Width: 480
VWidth: 0
Flags: HW
PickledData: "(dp1
S'org.robofab.postScriptHintData'
p2
(dp3
sS'com.typemytype.robofont.layerData'
p4
(dp5
S'b'
(dp6
S'name'
p7
S'guilsinglleft'
p8
sS'lib'
p9
(dp10
sS'unicodes'
p11
(tsS'width'
p12
I405
sS'contours'
p13
(tsS'components'
p14
(tsS'anchors'
p15
(tsss."
LayerCount: 2
Fore
SplineSet
295 251 m 257
 364 251 l 257
 153 639 l 257
 364 1025 l 257
 295 1025 l 257
 14 639 l 257
 295 251 l 257
EndSplineSet
EndChar

StartChar: guilsinglright
Encoding: 8250 8250 266
Width: 480
VWidth: 0
Flags: HW
PickledData: "(dp1
S'org.robofab.postScriptHintData'
p2
(dp3
sS'com.typemytype.robofont.layerData'
p4
(dp5
S'b'
(dp6
S'name'
p7
S'guilsinglright'
p8
sS'lib'
p9
(dp10
sS'unicodes'
p11
(tsS'width'
p12
I405
sS'contours'
p13
(tsS'components'
p14
(tsS'anchors'
p15
(tsss."
LayerCount: 2
Fore
SplineSet
116 251 m 257
 185 251 l 257
 467 640 l 257
 185 1025 l 257
 116 1025 l 257
 327 639 l 257
 116 251 l 257
EndSplineSet
EndChar

StartChar: h
Encoding: 104 104 267
Width: 1015
VWidth: 0
Flags: HW
PickledData: "(dp1
S'org.robofab.postScriptHintData'
p2
(dp3
sS'com.typemytype.robofont.layerData'
p4
(dp5
S'b'
(dp6
S'name'
p7
S'h'
sS'lib'
p8
(dp9
sS'unicodes'
p10
(tsS'width'
p11
I965
sS'contours'
p12
(tsS'components'
p13
(tsS'anchors'
p14
(tsss."
AnchorPoint: "top" 558 1033 basechar 0
LayerCount: 2
Fore
SplineSet
34 0 m 1
 422 0 l 1
 422 71 l 1
 281 71 l 1
 281 638 l 1
 390 703 503 748 583 748 c 0
 693 748 762 681 762 567 c 2
 762 71 l 1
 605 71 l 1
 605 0 l 1
 1010 0 l 1
 1010 71 l 1
 859 71 l 1
 859 569 l 2
 859 731 753 826 605 826 c 0
 508 826 392 778 281 710 c 1
 281 1174 l 1
 39 1174 l 1
 39 1103 l 1
 183 1103 l 1
 183 71 l 1
 34 71 l 1
 34 0 l 1
EndSplineSet
EndChar

StartChar: hungarumlaut
Encoding: 733 733 270
Width: 496
VWidth: 0
Flags: HW
PickledData: "(dp1
S'org.robofab.postScriptHintData'
p2
(dp3
sS'com.typemytype.robofont.layerData'
p4
(dp5
S'b'
(dp6
S'name'
p7
S'hungarumlaut'
p8
sS'lib'
p9
(dp10
sS'unicodes'
p11
(tsS'width'
p12
I356
sS'contours'
p13
(tsS'components'
p14
(tsS'anchors'
p15
(tsss."
AnchorPoint: "top" 188 804 mark 0
LayerCount: 2
Fore
SplineSet
406 1287 m 257
 294 983 l 257
 353 983 l 257
 512 1287 l 257
 406 1287 l 257
177 1287 m 257
 65 983 l 257
 124 983 l 257
 283 1287 l 257
 177 1287 l 257
EndSplineSet
EndChar

StartChar: hyphen
Encoding: 45 45 271
Width: 813
VWidth: 0
Flags: HW
PickledData: "(dp1
S'org.robofab.postScriptHintData'
p2
(dp3
sS'com.typemytype.robofont.layerData'
p4
(dp5
S'b'
(dp6
S'name'
p7
S'hyphen'
p8
sS'lib'
p9
(dp10
sS'unicodes'
p11
(tsS'width'
p12
I915
sS'contours'
p13
(tsS'components'
p14
(tsS'anchors'
p15
(tsss."
LayerCount: 2
Fore
SplineSet
153 409 m 257
 659 409 l 257
 659 483 l 257
 153 483 l 257
 153 409 l 257
EndSplineSet
EndChar

StartChar: i
Encoding: 105 105 272
Width: 581
VWidth: 0
Flags: HW
PickledData: "(dp1
S'org.robofab.postScriptHintData'
p2
(dp3
sS'com.typemytype.robofont.layerData'
p4
(dp5
S'b'
(dp6
S'name'
p7
S'i'
sS'lib'
p8
(dp9
sS'unicodes'
p10
(tsS'width'
p11
I531
sS'contours'
p12
(tsS'components'
p13
(tsS'anchors'
p14
(tsss."
LayerCount: 2
Fore
SplineSet
308 1000 m 0
 354 1000 387 1031 387 1074 c 0
 387 1114 354 1146 308 1146 c 0
 265 1146 232 1114 232 1074 c 0
 232 1031 265 1000 308 1000 c 0
109 0 m 1
 535 0 l 1
 535 71 l 1
 375 71 l 1
 375 315.333333333 375 559.666666667 375 804 c 1
 111 804 l 1
 111 733 l 1
 278 733 l 1
 278 71 l 1
 109 71 l 1
 109 0 l 1
EndSplineSet
EndChar

StartChar: infinity
Encoding: 8734 8734 281
Width: 1368
VWidth: 0
Flags: HW
PickledData: "(dp1
S'org.robofab.postScriptHintData'
p2
(dp3
sS'com.typemytype.robofont.layerData'
p4
(dp5
S'b'
(dp6
S'name'
p7
S'infinity'
p8
sS'lib'
p9
(dp10
sS'unicodes'
p11
(tsS'width'
p12
I1244
sS'contours'
p13
(tsS'components'
p14
(tsS'anchors'
p15
(tsss."
LayerCount: 2
Fore
SplineSet
964 251 m 256
 1100 251 1227 368 1227 558 c 256
 1227 758 1103 865 965 865 c 256
 846 865 755 794 687 666 c 257
 612 812 498 869 408 869 c 256
 243 869 141 728 141 563 c 256
 141 389 234 256 408 256 c 256
 508 256 607 317 683 459 c 257
 762 305 861 251 964 251 c 256
404 325 m 256
 283 325 223 430 223 562 c 256
 223 678 283 800 402 800 c 256
 502 800 580 716 646 563 c 257
 571 398 494 325 404 325 c 256
965 321 m 256
 862 321 794 391 721 558 c 257
 795 716 867 795 964 795 c 256
 1073 795 1145 691 1145 560 c 256
 1145 419 1072 321 965 321 c 256
EndSplineSet
EndChar

StartChar: integral
Encoding: 8747 8747 282
Width: 724
VWidth: 0
Flags: HW
PickledData: "(dp1
S'org.robofab.postScriptHintData'
p2
(dp3
s."
LayerCount: 2
Fore
SplineSet
752.104405915 1115.94552783 m 0
 752.104405915 1171.39420212 688.442258823 1208.03233054 606.333644995 1208.03233054 c 0
 464.538401662 1208.03233054 397.795009273 1117.64058781 379 993 c 258
 228 39 l 257
 211 -80 182 -127 125 -127 c 256
 77 -127 52 -88 53 -11 c 257
 -13.3239505108 -11 -36.1093573026 -45.5784530791 -36.1093573026 -80.1395769088 c 0
 -36.1093573026 -135.069125118 22.1189899918 -176 107 -176 c 257
 260 -176 303 -66 321 56 c 257
 471 993 l 257
 489.32029766 1119.31363123 530.883899083 1159.16217247 586.726083354 1159.16217247 c 0
 640.367084066 1159.16217247 663 1117.96797988 663 1046 c 257
 729.188600461 1046 752.104405915 1080.5928616 752.104405915 1115.94552783 c 0
EndSplineSet
EndChar

StartChar: j
Encoding: 106 106 285
Width: 454
VWidth: 0
Flags: HW
PickledData: "(dp1
S'org.robofab.postScriptHintData'
p2
(dp3
sS'com.typemytype.robofont.layerData'
p4
(dp5
S'b'
(dp6
S'name'
p7
S'j'
sS'lib'
p8
(dp9
sS'unicodes'
p10
(tsS'width'
p11
I398
sS'contours'
p12
(tsS'components'
p13
(tsS'anchors'
p14
(tsss."
LayerCount: 2
Fore
SplineSet
251 1001 m 0
 297 1001 330 1032 330 1075 c 0
 330 1115 297 1147 251 1147 c 0
 208 1147 175 1115 175 1075 c 0
 175 1032 208 1001 251 1001 c 0
16 -276 m 1
 97 -276 l 2
 318.787148594 -276 325.022128675 -145.95612974 325.022128675 -27.0944440655 c 0
 325.022128675 -20.0133223658 325 -12.9718875502 325 -6 c 2
 325 805 l 1
 65 805 l 1
 65 736 l 1
 225 736 l 1
 225 -30 l 2
 225 -146 220 -200 90 -200 c 2
 16 -200 l 1
 16 -276 l 1
EndSplineSet
EndChar

StartChar: k
Encoding: 107 107 287
Width: 996
VWidth: 0
Flags: HW
PickledData: "(dp1
S'org.robofab.postScriptHintData'
p2
(dp3
sS'com.typemytype.robofont.guides'
p4
((dp5
S'y'
I421
sS'x'
I474
sS'magnetic'
p6
I5
sS'angle'
p7
I0
sS'isGlobal'
p8
I0
stp9
sS'com.typemytype.robofont.layerData'
p10
(dp11
S'b'
(dp12
S'name'
p13
S'k'
sS'lib'
p14
(dp15
sS'unicodes'
p16
(tsS'width'
p17
I927
sS'contours'
p18
(tsS'components'
p19
(tsS'anchors'
p20
(tsss."
AnchorPoint: "bot" 539 0 basechar 0
AnchorPoint: "top" 625 983 basechar 0
LayerCount: 2
Fore
SplineSet
737 0 m 1
 957 0 l 1
 957 71 l 1
 785 71 l 1
 412 419 l 1
 814 733 l 1
 952 733 l 1
 952 804 l 1
 550 804 l 1
 550 733 l 1
 708 733 l 1
 306 428 l 1
 306 1174 l 1
 64 1174 l 1
 64 1103 l 1
 208 1103 l 1
 208 71 l 1
 59 71 l 1
 59 0 l 1
 447 0 l 1
 447 71 l 1
 306 71 l 1
 306 410 l 1
 737 0 l 1
EndSplineSet
EndChar

StartChar: kgreenlandic
Encoding: 312 312 289
Width: 998
VWidth: 0
Flags: HW
PickledData: "(dp1
S'org.robofab.postScriptHintData'
p2
(dp3
sS'com.typemytype.robofont.layerData'
p4
(dp5
S'b'
(dp6
S'name'
p7
S'kgreenlandic'
p8
sS'lib'
p9
(dp10
sS'unicodes'
p11
(tsS'width'
p12
I927
sS'contours'
p13
(tsS'components'
p14
(tsS'anchors'
p15
(tsss."
LayerCount: 2
Fore
SplineSet
750 0 m 257
 956 0 l 257
 956 71 l 257
 796 71 l 257
 441 408 l 257
 808 733 l 257
 949 733 l 257
 949 804 l 257
 550 804 l 257
 550 733 l 257
 695 733 l 257
 324 404 l 257
 750 0 l 257
75 0 m 257
 445 0 l 257
 445 71 l 257
 316 71 l 257
 316 804 l 257
 80 804 l 257
 80 733 l 257
 219 733 l 257
 219 71 l 257
 75 71 l 257
 75 0 l 257
EndSplineSet
EndChar

StartChar: l
Encoding: 108 108 290
Width: 489
VWidth: 0
Flags: HW
PickledData: "(dp1
S'org.robofab.postScriptHintData'
p2
(dp3
sS'com.typemytype.robofont.layerData'
p4
(dp5
S'b'
(dp6
S'name'
p7
S'l'
sS'lib'
p8
(dp9
sS'unicodes'
p10
(tsS'width'
p11
I563
sS'contours'
p12
(tsS'components'
p13
(tsS'anchors'
p14
(tsss."
AnchorPoint: "bot" 254 0 basechar 0
AnchorPoint: "top" 253 1152 basechar 0
LayerCount: 2
Fore
SplineSet
56 0 m 1
 444 0 l 1
 444 71 l 1
 303 71 l 1
 303 1174 l 1
 61 1174 l 1
 61 1103 l 1
 205 1103 l 1
 205 71 l 1
 56 71 l 1
 56 0 l 1
EndSplineSet
EndChar

StartChar: lc_ascender_stem
Encoding: 65547 -1 292
Width: 1188
VWidth: 0
Flags: HW
PickledData: "(dp1
S'org.robofab.postScriptHintData'
p2
(dp3
sS'com.schriftgestaltung.Glyphs.Export'
p4
I00
sS'com.typemytype.robofont.layerData'
p5
(dp6
S'b'
(dp7
S'name'
p8
S'lc_descender_stem'
p9
sS'lib'
p10
(dp11
sS'unicodes'
p12
(tsS'width'
p13
I1170
sS'contours'
p14
(tsS'components'
p15
(tsS'anchors'
p16
(tsss."
LayerCount: 2
Fore
SplineSet
95 0 m 257
 483 0 l 257
 483 71 l 257
 342 71 l 257
 342 1174 l 257
 100 1174 l 257
 100 1103 l 257
 244 1103 l 257
 244 71 l 257
 95 71 l 257
 95 0 l 257
EndSplineSet
EndChar

StartChar: lc_ascender_stem_1
Encoding: 65548 -1 293
Width: 1106
VWidth: 0
Flags: HW
PickledData: "(dp1
S'org.robofab.postScriptHintData'
p2
(dp3
sS'com.schriftgestaltung.Glyphs.Export'
p4
I00
sS'com.typemytype.robofont.layerData'
p5
(dp6
S'b'
(dp7
S'name'
p8
S'lc_ascender_stem_1'
p9
sS'lib'
p10
(dp11
sS'unicodes'
p12
(tsS'width'
p13
I1378
sS'contours'
p14
(tsS'components'
p15
(tsS'anchors'
p16
(tsss."
LayerCount: 2
Fore
SplineSet
102 0 m 257
 343 0 l 257
 343 1174 l 257
 108 1174 l 257
 108 1103 l 257
 246 1103 l 257
 246 71 l 257
 102 71 l 257
 102 0 l 257
EndSplineSet
EndChar

StartChar: lc_ascender_stem_2
Encoding: 65549 -1 294
Width: 1106
VWidth: 0
Flags: HW
PickledData: "(dp1
S'org.robofab.postScriptHintData'
p2
(dp3
sS'com.schriftgestaltung.Glyphs.Export'
p4
I00
sS'com.typemytype.robofont.layerData'
p5
(dp6
S'b'
(dp7
S'name'
p8
S'lc_descender_stem'
p9
sS'lib'
p10
(dp11
sS'unicodes'
p12
(tsS'width'
p13
I1378
sS'contours'
p14
(tsS'components'
p15
(tsS'anchors'
p16
(tsss."
LayerCount: 2
Fore
SplineSet
244 0 m 257
 476 0 l 257
 476 71 l 257
 342 71 l 257
 342 1174 l 257
 106 1174 l 257
 106 1103 l 257
 244 1103 l 257
 244 0 l 257
EndSplineSet
EndChar

StartChar: lc_bowl_left
Encoding: 65550 -1 295
Width: 1207
VWidth: 0
Flags: HW
PickledData: "(dp1
S'org.robofab.postScriptHintData'
p2
(dp3
sS'com.schriftgestaltung.Glyphs.Export'
p4
I00
sS'com.typemytype.robofont.layerData'
p5
(dp6
S'b'
(dp7
S'name'
p8
S'lc_bowl_left'
p9
sS'lib'
p10
(dp11
sS'unicodes'
p12
(tsS'width'
p13
I1179
sS'contours'
p14
((dp15
S'points'
p16
((dp17
S'segmentType'
p18
S'line'
p19
sS'x'
I134
sS'smooth'
p20
I0
sS'y'
I121
s(dp21
S'y'
I36
sS'x'
I206
sg20
I0
s(dp22
S'y'
S'-16'
p23
sS'x'
I320
sg20
I0
s(dp24
g18
S'curve'
p25
sS'x'
I464
sg20
I1
sS'y'
S'-16'
p26
s(dp27
S'y'
S'-16'
p28
sS'x'
I739
sg20
I0
s(dp29
S'y'
I185
sS'x'
I886
sg20
I0
s(dp30
g18
S'curve'
p31
sS'x'
I886
sg20
I1
sS'y'
I387
s(dp32
S'y'
I573
sS'x'
I886
sg20
I0
s(dp33
S'y'
I817
sS'x'
I774
sg20
I0
s(dp34
g18
S'curve'
p35
sS'x'
I467
sg20
I1
sS'y'
I817
s(dp36
S'y'
I817
sS'x'
I309
sg20
I0
s(dp37
S'y'
I733
sS'x'
I179
sg20
I0
s(dp38
g18
S'curve'
p39
sS'x'
I134
sg20
I0
sS'y'
I684
s(dp40
g18
S'line'
p41
sS'x'
I134
sg20
I0
sS'y'
I618
s(dp42
S'y'
I725
sS'x'
I273
sg20
I0
s(dp43
S'y'
I753
sS'x'
I353
sg20
I0
s(dp44
g18
S'curve'
p45
sS'x'
I470
sg20
I1
sS'y'
I753
s(dp46
S'y'
I753
sS'x'
I701
sg20
I0
s(dp47
S'y'
I568
sS'x'
I810
sg20
I0
s(dp48
g18
S'curve'
p49
sS'x'
I810
sg20
I1
sS'y'
I395
s(dp50
S'y'
I204
sS'x'
I810
sg20
I0
s(dp51
S'y'
I48
sS'x'
I680
sg20
I0
s(dp52
g18
S'curve'
p53
sS'x'
I468
sg20
I1
sS'y'
I48
s(dp54
S'y'
I48
sS'x'
I346
sg20
I0
s(dp55
S'y'
I62
sS'x'
I263
sg20
I0
s(dp56
g18
S'curve'
p57
sS'x'
I134
sg20
I0
sS'y'
I194
stp58
stp59
sS'components'
p60
(tsS'anchors'
p61
(tsss."
LayerCount: 2
Fore
SplineSet
563 -22 m 256
 680 -22 810 33 895 122 c 257
 895 192 l 257
 811 107 686 53 579 53 c 256
 386 53 243 186 243 394 c 256
 243 613 375 751 557 751 c 256
 670 751 801 699 893 616 c 257
 893 683 l 257
 805 771 666 826 542 826 c 256
 316.299715551 826 143.982834498 662.884045177 143.982834498 403.490784132 c 0
 143.982834498 145.471944014 327.785672385 -22 563 -22 c 256
EndSplineSet
EndChar

StartChar: lc_bowl_right
Encoding: 65551 -1 296
Width: 1207
VWidth: 0
Flags: HW
PickledData: "(dp1
S'org.robofab.postScriptHintData'
p2
(dp3
sS'com.schriftgestaltung.Glyphs.Export'
p4
I00
sS'com.typemytype.robofont.layerData'
p5
(dp6
S'b'
(dp7
S'name'
p8
S'lc_bowl_right'
p9
sS'lib'
p10
(dp11
sS'unicodes'
p12
(tsS'width'
p13
I1179
sS'contours'
p14
((dp15
S'points'
p16
((dp17
S'segmentType'
p18
S'line'
p19
sS'x'
I268
sS'smooth'
p20
I0
sS'y'
I121
s(dp21
S'y'
I36
sS'x'
I340
sg20
I0
s(dp22
S'y'
S'-16'
p23
sS'x'
I454
sg20
I0
s(dp24
g18
S'curve'
p25
sS'x'
I598
sg20
I1
sS'y'
S'-16'
p26
s(dp27
S'y'
S'-16'
p28
sS'x'
I873
sg20
I0
s(dp29
S'y'
I185
sS'x'
I1020
sg20
I0
s(dp30
g18
S'curve'
p31
sS'x'
I1020
sg20
I1
sS'y'
I387
s(dp32
S'y'
I573
sS'x'
I1020
sg20
I0
s(dp33
S'y'
I817
sS'x'
I908
sg20
I0
s(dp34
g18
S'curve'
p35
sS'x'
I601
sg20
I1
sS'y'
I817
s(dp36
S'y'
I817
sS'x'
I443
sg20
I0
s(dp37
S'y'
I733
sS'x'
I313
sg20
I0
s(dp38
g18
S'curve'
p39
sS'x'
I268
sg20
I0
sS'y'
I684
s(dp40
g18
S'line'
p41
sS'x'
I268
sg20
I0
sS'y'
I618
s(dp42
S'y'
I725
sS'x'
I407
sg20
I0
s(dp43
S'y'
I753
sS'x'
I487
sg20
I0
s(dp44
g18
S'curve'
p45
sS'x'
I604
sg20
I1
sS'y'
I753
s(dp46
S'y'
I753
sS'x'
I835
sg20
I0
s(dp47
S'y'
I568
sS'x'
I944
sg20
I0
s(dp48
g18
S'curve'
p49
sS'x'
I944
sg20
I1
sS'y'
I395
s(dp50
S'y'
I204
sS'x'
I944
sg20
I0
s(dp51
S'y'
I48
sS'x'
I814
sg20
I0
s(dp52
g18
S'curve'
p53
sS'x'
I602
sg20
I1
sS'y'
I48
s(dp54
S'y'
I48
sS'x'
I480
sg20
I0
s(dp55
S'y'
I62
sS'x'
I397
sg20
I0
s(dp56
g18
S'curve'
p57
sS'x'
I268
sg20
I0
sS'y'
I194
stp58
stp59
sS'components'
p60
(tsS'anchors'
p61
(tsss."
LayerCount: 2
Fore
SplineSet
609 -22 m 256
 851.940504926 -22 1032.03977415 140.377195986 1032.03977415 412.007198621 c 0
 1032.03977415 672.747842483 747.896686626 704.598132058 630 826 c 257
 514 826 384 773 288 681 c 257
 295 608 l 257
 388 699 508 751 609 751 c 256
 802 751 932 619 932 401 c 256
 932 181 796 52 596 52 c 256
 490 52 374 106 294 200 c 257
 290 132 l 257
 369 34 492 -22 609 -22 c 256
EndSplineSet
EndChar

StartChar: lc_descender_stem
Encoding: 65552 -1 297
Width: 1197
VWidth: 0
Flags: HW
PickledData: "(dp1
S'org.robofab.postScriptHintData'
p2
(dp3
sS'com.schriftgestaltung.Glyphs.Export'
p4
I00
sS'com.typemytype.robofont.layerData'
p5
(dp6
S'b'
(dp7
S'name'
p8
S'lc_descender_stem'
p9
sS'lib'
p10
(dp11
sS'unicodes'
p12
(tsS'width'
p13
I1192
sS'contours'
p14
(tsS'components'
p15
(tsS'anchors'
p16
(tsss."
LayerCount: 2
Fore
SplineSet
90 -317 m 257
 476 -317 l 257
 476 -246 l 257
 330 -246 l 257
 331 650 l 257
 326 804 l 257
 101 804 l 257
 101 733 l 257
 233 733 l 257
 233 -246 l 257
 90 -246 l 257
 90 -317 l 257
EndSplineSet
EndChar

StartChar: lc_xheight_curved_stem
Encoding: 65553 -1 298
Width: 1175
VWidth: 0
Flags: HW
PickledData: "(dp1
S'org.robofab.postScriptHintData'
p2
(dp3
sS'com.schriftgestaltung.Glyphs.Export'
p4
I00
sS'com.typemytype.robofont.layerData'
p5
(dp6
S'b'
(dp7
S'name'
p8
S'lc_xheight_curved_stem'
p9
sS'lib'
p10
(dp11
sS'unicodes'
p12
(tsS'width'
p13
I1142
sS'contours'
p14
((dp15
S'points'
p16
((dp17
S'segmentType'
p18
S'line'
p19
sS'x'
I351
sS'smooth'
p20
I0
sS'y'
I643
s(dp21
S'y'
I715
sS'x'
I455
sg20
I0
s(dp22
S'y'
I756
sS'x'
I545
sg20
I0
s(dp23
g18
S'curve'
p24
sS'x'
I675
sg20
I1
sS'y'
I756
s(dp25
S'y'
I756
sS'x'
I821
sg20
I0
s(dp26
S'y'
I676
sS'x'
I849
sg20
I0
s(dp27
g18
S'curve'
p28
sS'x'
I849
sg20
I1
sS'y'
I577
s(dp29
g18
S'line'
p30
sS'x'
I849
sg20
I0
sS'y'
I58
s(dp31
g18
S'line'
p32
sS'x'
I688
sg20
I0
sS'y'
I58
s(dp33
g18
S'line'
p34
sS'x'
I688
sg20
I0
sS'y'
I0
s(dp35
g18
S'line'
p36
sS'x'
I1073
sg20
I0
sS'y'
I0
s(dp37
g18
S'line'
p38
sS'x'
I1073
sg20
I0
sS'y'
I58
s(dp39
g18
S'line'
p40
sS'x'
I924
sg20
I0
sS'y'
I58
s(dp41
g18
S'line'
p42
sS'x'
I924
sg20
I1
sS'y'
I592
s(dp43
S'y'
I697
sS'x'
I924
sg20
I0
s(dp44
S'y'
I820
sS'x'
I866
sg20
I0
s(dp45
g18
S'curve'
p46
sS'x'
I682
sg20
I1
sS'y'
I820
s(dp47
S'y'
I820
sS'x'
I557
sg20
I0
s(dp48
S'y'
I789
sS'x'
I468
sg20
I0
s(dp49
g18
S'curve'
p50
sS'x'
I348
sg20
I0
sS'y'
I709
stp51
stp52
sS'components'
p53
(tsS'anchors'
p54
(tsss."
LayerCount: 2
Fore
SplineSet
711 0 m 257
 1116 0 l 257
 1116 71 l 257
 965 71 l 257
 965 569 l 258
 965 731 859 826 711 826 c 256
 599 826 462 763 337 678 c 257
 337 607 l 257
 460 688 597 748 689 748 c 256
 799 748 868 681 868 567 c 258
 868 71 l 257
 711 71 l 257
 711 0 l 257
EndSplineSet
EndChar

StartChar: lc_xheight_stem
Encoding: 65554 -1 299
Width: 1101
VWidth: 0
Flags: HW
PickledData: "(dp1
S'org.robofab.postScriptHintData'
p2
(dp3
sS'com.schriftgestaltung.Glyphs.Export'
p4
I00
sS'com.typemytype.robofont.layerData'
p5
(dp6
S'b'
(dp7
S'name'
p8
S'lc_xheight_stem'
p9
sS'lib'
p10
(dp11
sS'unicodes'
p12
(tsS'width'
p13
I1324
sS'contours'
p14
(tsS'components'
p15
(tsS'anchors'
p16
(tsss."
LayerCount: 2
Fore
SplineSet
107 0 m 257
 533 0 l 257
 533 71 l 257
 373 71 l 257
 373 315.333333333 373 559.666666667 373 804 c 257
 109 804 l 257
 109 733 l 257
 276 733 l 257
 276 71 l 257
 107 71 l 257
 107 0 l 257
EndSplineSet
EndChar

StartChar: less
Encoding: 60 60 303
Width: 959
VWidth: 0
Flags: HW
PickledData: "(dp1
S'org.robofab.postScriptHintData'
p2
(dp3
sS'com.typemytype.robofont.layerData'
p4
(dp5
S'b'
(dp6
S'name'
p7
S'less'
p8
sS'lib'
p9
(dp10
sS'unicodes'
p11
(tsS'width'
p12
I896
sS'contours'
p13
(tsS'components'
p14
(tsS'anchors'
p15
(tsss."
LayerCount: 2
Fore
SplineSet
816 -43 m 257
 816 62 l 257
 74 578 l 257
 816 1095 l 257
 816 1202 l 257
 -29 605 l 257
 -29 549 l 257
 816 -43 l 257
EndSplineSet
EndChar

StartChar: lessequal
Encoding: 8804 8804 304
Width: 747
VWidth: 0
Flags: HW
PickledData: "(dp1
S'org.robofab.postScriptHintData'
p2
(dp3
sS'com.typemytype.robofont.layerData'
p4
(dp5
S'b'
(dp6
S'name'
p7
S'lessequal'
p8
sS'lib'
p9
(dp10
sS'unicodes'
p11
(tsS'width'
p12
I593
sS'contours'
p13
(tsS'components'
p14
(tsS'anchors'
p15
(tsss."
LayerCount: 2
Fore
SplineSet
712 193 m 257
 712 276 l 257
 131 585 l 257
 712 898 l 257
 712 982 l 257
 7 608 l 257
 7 564 l 257
 712 193 l 257
7 0 m 257
 712 0 l 257
 712 72 l 257
 7 72 l 257
 7 0 l 257
EndSplineSet
EndChar

StartChar: logicalnot
Encoding: 172 172 306
Width: 930
VWidth: 0
Flags: HW
PickledData: "(dp1
S'org.robofab.postScriptHintData'
p2
(dp3
sS'com.typemytype.robofont.layerData'
p4
(dp5
S'b'
(dp6
S'name'
p7
S'logicalnot'
p8
sS'lib'
p9
(dp10
sS'unicodes'
p11
(tsS'width'
p12
I827
sS'contours'
p13
(tsS'components'
p14
(tsS'anchors'
p15
(tsss."
LayerCount: 2
Fore
SplineSet
745 313 m 257
 810 313 l 257
 810 717 l 257
 70 717 l 257
 70 645 l 257
 745 645 l 257
 745 313 l 257
EndSplineSet
EndChar

StartChar: lozenge
Encoding: 9674 9674 307
Width: 1014
VWidth: 0
Flags: HW
PickledData: "(dp1
S'org.robofab.postScriptHintData'
p2
(dp3
sS'com.typemytype.robofont.layerData'
p4
(dp5
S'b'
(dp6
S'name'
p7
S'lozenge'
p8
sS'lib'
p9
(dp10
sS'unicodes'
p11
(tsS'width'
p12
I948
sS'contours'
p13
(tsS'components'
p14
(tsS'anchors'
p15
(tsss."
LayerCount: 2
Fore
SplineSet
478 -21 m 257
 536 -21 l 257
 974 615 l 257
 536 1248 l 257
 478 1248 l 257
 39 614 l 257
 478 -21 l 257
510 61 m 257
 150 615 l 257
 510 1164 l 257
 868 615 l 257
 510 61 l 257
EndSplineSet
EndChar

StartChar: lslash
Encoding: 322 322 308
Width: 483
VWidth: 0
Flags: HW
PickledData: "(dp1
S'org.robofab.postScriptHintData'
p2
(dp3
sS'com.typemytype.robofont.layerData'
p4
(dp5
S'b'
(dp6
S'name'
p7
S'lslash'
p8
sS'lib'
p9
(dp10
sS'unicodes'
p11
(tsS'width'
p12
I506
sS'contours'
p13
(tsS'components'
p14
(tsS'anchors'
p15
(tsss."
LayerCount: 2
Fore
SplineSet
51 426 m 257
 449 654 l 257
 449 743 l 257
 50 512 l 257
 51 426 l 257
EndSplineSet
Refer: 290 108 N 1 0 0 1 0 0 2
EndChar

StartChar: m
Encoding: 109 109 309
Width: 1592
VWidth: 0
Flags: HW
PickledData: "(dp1
S'org.robofab.postScriptHintData'
p2
(dp3
sS'com.typemytype.robofont.layerData'
p4
(dp5
S'b'
(dp6
S'name'
p7
S'm'
sS'lib'
p8
(dp9
sS'unicodes'
p10
(tsS'width'
p11
I1571
sS'contours'
p12
(tsS'components'
p13
(tsS'anchors'
p14
(tsss."
AnchorPoint: "top" 828 804 basechar 0
LayerCount: 2
Fore
SplineSet
39 0 m 1
 465 0 l 1
 465 71 l 1
 305 71 l 1
 305 263.333333333 305 455.666666667 305 648 c 1
 409 708 515 748 591 748 c 0
 701 748 770 681 770 567 c 2
 770 71 l 1
 613 71 l 1
 613 0 l 1
 1018 0 l 1
 1018 71 l 1
 867 71 l 1
 867 569 l 2
 867 594 865 617 860 639 c 1
 968 703 1081 748 1160 748 c 0
 1270 748 1339 681 1339 567 c 2
 1339 71 l 1
 1182 71 l 1
 1182 0 l 1
 1587 0 l 1
 1587 71 l 1
 1436 71 l 1
 1436 569 l 2
 1436 731 1330 826 1182 826 c 0
 1079 826 955 772 839 698 c 1
 798 780 716 826 613 826 c 0
 520 826 411 783 305 720 c 1
 305 804 l 1
 41 804 l 1
 41 733 l 1
 208 733 l 1
 208 71 l 1
 39 71 l 1
 39 0 l 1
EndSplineSet
EndChar

StartChar: macron
Encoding: 175 175 310
Width: 342
VWidth: 0
Flags: HW
PickledData: "(dp1
S'org.robofab.postScriptHintData'
p2
(dp3
sS'com.typemytype.robofont.layerData'
p4
(dp5
S'b'
(dp6
S'name'
p7
S'macron'
p8
sS'lib'
p9
(dp10
sS'unicodes'
p11
(tsS'width'
p12
I316
sS'contours'
p13
(tsS'components'
p14
(tsS'anchors'
p15
(tsss."
AnchorPoint: "top" 179 804 mark 0
LayerCount: 2
Fore
SplineSet
-26 930 m 257
 373 930 l 257
 373 993 l 257
 -26 993 l 257
 -26 930 l 257
EndSplineSet
EndChar

StartChar: minus
Encoding: 8722 8722 313
Width: 918
VWidth: 0
Flags: HW
PickledData: "(dp1
S'org.robofab.postScriptHintData'
p2
(dp3
sS'com.typemytype.robofont.layerData'
p4
(dp5
S'b'
(dp6
S'name'
p7
S'minus'
p8
sS'lib'
p9
(dp10
sS'unicodes'
p11
(tsS'width'
p12
I912
sS'contours'
p13
(tsS'components'
p14
(tsS'anchors'
p15
(tsss."
LayerCount: 2
Fore
SplineSet
98 521 m 257
 820 521 l 257
 820 601 l 257
 98 601 l 257
 98 521 l 257
EndSplineSet
EndChar

StartChar: mu
Encoding: 956 956 314
Width: 1035
VWidth: 0
Flags: HW
PickledData: "(dp1
S'org.robofab.postScriptHintData'
p2
(dp3
s."
LayerCount: 2
Fore
SplineSet
179 -295 m 257
 276 -295 l 257
 276 391 l 257
 179 391 l 257
 179 -295 l 257
EndSplineSet
Refer: 408 117 N 1 0 0 1 0 0 2
EndChar

StartChar: multiply
Encoding: 215 215 315
Width: 687
VWidth: 0
Flags: HW
PickledData: "(dp1
S'org.robofab.postScriptHintData'
p2
(dp3
sS'com.typemytype.robofont.layerData'
p4
(dp5
S'b'
(dp6
S'name'
p7
S'multiply'
p8
sS'lib'
p9
(dp10
sS'unicodes'
p11
(tsS'width'
p12
I520
sS'contours'
p13
(tsS'components'
p14
(tsS'anchors'
p15
(tsss."
LayerCount: 2
Fore
SplineSet
574 300 m 257
 625 351 l 257
 400 577 l 257
 627 805 l 257
 577 857 l 257
 348 629 l 257
 121 853 l 257
 69 802 l 257
 296 576 l 257
 67 350 l 257
 118 299 l 257
 347 526 l 257
 574 300 l 257
EndSplineSet
EndChar

StartChar: n
Encoding: 110 110 316
Width: 1034
VWidth: 0
Flags: HW
PickledData: "(dp1
S'org.robofab.postScriptHintData'
p2
(dp3
sS'com.typemytype.robofont.layerData'
p4
(dp5
S'b'
(dp6
S'name'
p7
S'n'
sS'lib'
p8
(dp9
sS'unicodes'
p10
(tsS'width'
p11
I1010
sS'contours'
p12
(tsS'components'
p13
(tsS'anchors'
p14
(tsss."
AnchorPoint: "bot" 557 0 basechar 0
AnchorPoint: "top" 593 804 basechar 0
LayerCount: 2
Fore
SplineSet
39 0 m 1
 465 0 l 1
 465 71 l 1
 305 71 l 1
 305 261 305 451 305 641 c 1
 412 704 524 748 602 748 c 0
 712 748 781 681 781 567 c 2
 781 71 l 1
 624 71 l 1
 624 0 l 1
 1029 0 l 1
 1029 71 l 1
 878 71 l 1
 878 569 l 2
 878 731 772 826 624 826 c 0
 528 826 414 779 305 713 c 1
 305 804 l 1
 41 804 l 1
 41 733 l 1
 208 733 l 1
 208 71 l 1
 39 71 l 1
 39 0 l 1
EndSplineSet
EndChar

StartChar: nine
Encoding: 57 57 321
Width: 885
VWidth: 0
Flags: HW
PickledData: "(dp1
S'org.robofab.postScriptHintData'
p2
(dp3
sS'com.typemytype.robofont.layerData'
p4
(dp5
S'b'
(dp6
S'name'
p7
S'nine'
p8
sS'lib'
p9
(dp10
sS'unicodes'
p11
(tsS'width'
p12
I830
sS'contours'
p13
(tsS'components'
p14
(tsS'anchors'
p15
(tsss."
LayerCount: 2
Fore
SplineSet
372 -87 m 257
 732 502 l 257
 789 588 828 694 828 824 c 256
 828 1031 669 1174 449 1174 c 256
 213 1174 69 1029 69 806 c 256
 69 593 221 457 427 457 c 256
 519 457 615 502 655 544 c 257
 289 -35 l 257
 372 -87 l 257
439 529 m 256
 267 529 162 640 162 812 c 256
 162 985 271 1100 447 1100 c 256
 621 1100 727 981 727 822 c 256
 727 634 586 529 439 529 c 256
EndSplineSet
EndChar

StartChar: notequal
Encoding: 8800 8800 323
Width: 916
VWidth: 0
Flags: HW
PickledData: "(dp1
S'org.robofab.postScriptHintData'
p2
(dp3
sS'com.typemytype.robofont.layerData'
p4
(dp5
S'b'
(dp6
S'name'
p7
S'notequal'
p8
sS'lib'
p9
(dp10
sS'unicodes'
p11
(tsS'width'
p12
I570
sS'contours'
p13
(tsS'components'
p14
(tsS'anchors'
p15
(tsss."
LayerCount: 2
Fore
SplineSet
325 57 m 257
 397 57 l 257
 446 249 l 257
 826 249 l 257
 826 316 l 257
 464 316 l 257
 524 539 l 257
 816 539 l 257
 816 610 l 257
 542 610 l 257
 594 800 l 257
 525 800 l 257
 473 610 l 257
 94 610 l 257
 94 539 l 257
 453 539 l 257
 394 316 l 257
 104 316 l 257
 104 249 l 257
 375 249 l 257
 325 57 l 257
EndSplineSet
EndChar

StartChar: numbersign
Encoding: 35 35 325
Width: 1025
VWidth: 0
Flags: HW
PickledData: "(dp1
S'org.robofab.postScriptHintData'
p2
(dp3
sS'com.typemytype.robofont.layerData'
p4
(dp5
S'b'
(dp6
S'name'
p7
S'numbersign'
p8
sS'lib'
p9
(dp10
sS'unicodes'
p11
(tsS'width'
p12
I917
sS'contours'
p13
(tsS'components'
p14
(tsS'anchors'
p15
(tsss."
LayerCount: 2
Fore
SplineSet
188 -4 m 257
 276 -4 l 257
 315 370 l 257
 654 370 l 257
 614 -4 l 257
 702 -4 l 257
 741 370 l 257
 935 370 l 257
 936 438 l 257
 751 438 l 257
 785 774 l 257
 964 774 l 257
 965 842 l 257
 794 842 l 257
 830 1179 l 257
 743 1179 l 257
 706 842 l 257
 367 842 l 257
 404 1179 l 257
 316 1179 l 257
 280 842 l 257
 96 842 l 257
 94 774 l 257
 271 774 l 257
 238 438 l 257
 66 438 l 257
 64 370 l 257
 227 370 l 257
 188 -4 l 257
324 438 m 257
 359 774 l 257
 698 774 l 257
 663 438 l 257
 324 438 l 257
EndSplineSet
EndChar

StartChar: o
Encoding: 111 111 326
Width: 981
VWidth: 0
Flags: HW
PickledData: "(dp1
S'org.robofab.postScriptHintData'
p2
(dp3
sS'com.typemytype.robofont.layerData'
p4
(dp5
S'b'
(dp6
S'name'
p7
S'o'
sS'lib'
p8
(dp9
sS'unicodes'
p10
(tsS'width'
p11
I986
sS'contours'
p12
(tsS'components'
p13
(tsS'anchors'
p14
(tsss."
AnchorPoint: "top" 487 805 basechar 0
LayerCount: 2
Fore
SplineSet
489 -22 m 0
 744 -22 924 155 924 407 c 0
 924 652 744 826 489 826 c 0
 236 826 57 652 57 406 c 0
 57 155 235 -22 489 -22 c 0
489 55 m 0
 294 55 156 200 156 406 c 0
 156 607 294 749 489 749 c 0
 685 749 824 607 824 407 c 0
 824 201 685 55 489 55 c 0
EndSplineSet
EndChar

StartChar: oe
Encoding: 339 339 331
Width: 1759
VWidth: 0
Flags: HW
PickledData: "(dp1
S'org.robofab.postScriptHintData'
p2
(dp3
sS'com.typemytype.robofont.layerData'
p4
(dp5
S'b'
(dp6
S'name'
p7
S'oe'
p8
sS'lib'
p9
(dp10
sS'unicodes'
p11
(tsS'width'
p12
I1961
sS'contours'
p13
(tsS'components'
p14
(tsS'anchors'
p15
(tsss."
LayerCount: 2
Fore
SplineSet
501 -22 m 256
 682 -22 823 73 885 220 c 257
 950 66 1101 -22 1269 -22 c 256
 1404 -22 1534 28 1627 128 c 257
 1582 187 l 257
 1514 108 1387 51 1272 51 c 256
 1096 51 944 169 934 380 c 257
 1645 380 l 257
 1640 683 1462 826 1254 826 c 256
 1100 826 950 745 886 587 c 257
 824 733 682 826 502 826 c 256
 251 826 73 650 73 404 c 256
 73 156 248 -22 501 -22 c 256
502 52 m 256
 304 52 169 198 169 404 c 256
 169 607 303 750 501 750 c 256
 700 750 837 607 837 405 c 256
 837 198 700 52 502 52 c 256
935 441 m 257
 946 632 1078 754 1253 754 c 256
 1411 754 1534 649 1555 441 c 257
 935 441 l 257
EndSplineSet
EndChar

StartChar: ogonek
Encoding: 731 731 332
Width: 424
VWidth: 0
Flags: HW
PickledData: "(dp1
S'org.robofab.postScriptHintData'
p2
(dp3
sS'com.typemytype.robofont.layerData'
p4
(dp5
S'b'
(dp6
S'name'
p7
S'ogonek'
p8
sS'lib'
p9
(dp10
sS'unicodes'
p11
(tsS'width'
p12
I390
sS'contours'
p13
(tsS'components'
p14
(tsS'anchors'
p15
(tsss."
LayerCount: 2
Fore
SplineSet
259 -324 m 256
 299 -324 337 -312 378 -286 c 257
 378 -227 l 257
 347 -248 316 -258 284 -258 c 256
 228 -258 189 -225 189 -159 c 256
 189 -112 218 -53 275 3 c 257
 215 3 l 257
 146 -64 113 -131 113 -187 c 256
 113 -273 179 -324 259 -324 c 256
EndSplineSet
EndChar

StartChar: one
Encoding: 49 49 336
Width: 616
VWidth: 0
Flags: HW
PickledData: "(dp1
S'org.robofab.postScriptHintData'
p2
(dp3
sS'com.typemytype.robofont.layerData'
p4
(dp5
S'b'
(dp6
S'name'
p7
S'one'
p8
sS'lib'
p9
(dp10
sS'unicodes'
p11
(tsS'width'
p12
I559
sS'contours'
p13
(tsS'components'
p14
(tsS'anchors'
p15
(tsss."
LayerCount: 2
Fore
SplineSet
125 0 m 257
 550 0 l 257
 550 71 l 257
 389 71 l 257
 389 1153 l 257
 125 1095 l 257
 134 1024 l 257
 292 1061 l 257
 292 71 l 257
 125 71 l 257
 125 0 l 257
EndSplineSet
EndChar

StartChar: onehalf
Encoding: 189 189 337
Width: 1817
VWidth: 0
Flags: HW
PickledData: "(dp1
S'org.robofab.postScriptHintData'
p2
(dp3
s."
LayerCount: 2
Fore
SplineSet
1163 0 m 257
 1701 0 l 257
 1701 207 l 257
 1639 207 l 257
 1640 57 l 257
 1254 57 l 257
 1504 295 l 258
 1604 390 1679 473 1679 586 c 256
 1679 730 1573 809 1422 809 c 256
 1244 809 1152 697 1152 560 c 256
 1152 533 1156 505 1164 477 c 257
 1232 477 l 257
 1225 503 1222 529 1222 552 c 256
 1222 664 1288 749 1422 749 c 256
 1539.83219397 749 1607.01364765 685.361426916 1607.01364765 584.468638194 c 0
 1607.01364765 492.905166824 1553.14439256 433.171699177 1460 343 c 258
 1163 59 l 257
 1163 0 l 257
155 355 m 257
 470 355 l 257
 470 412 l 257
 350 412 l 257
 350 1152 l 257
 152 1139 l 257
 152 1083 l 257
 276 1088 l 257
 276 412 l 257
 155 412 l 257
 155 355 l 257
429 -18 m 257
 502 -18 l 257
 1293 1187 l 257
 1223 1187 l 257
 429 -18 l 257
EndSplineSet
EndChar

StartChar: onequarter
Encoding: 188 188 338
Width: 1639
VWidth: 0
Flags: HW
PickledData: "(dp1
S'org.robofab.postScriptHintData'
p2
(dp3
sS'com.typemytype.robofont.layerData'
p4
(dp5
S'b'
(dp6
S'name'
p7
S'onequarter'
p8
sS'lib'
p9
(dp10
sS'unicodes'
p11
(tsS'width'
p12
I1395
sS'contours'
p13
(tsS'components'
p14
(tsS'anchors'
p15
(tsss."
LayerCount: 2
Fore
SplineSet
1233 0 m 257
 1524 0 l 257
 1524 57 l 257
 1419 57 l 257
 1419 253 l 257
 1533 253 l 257
 1533 309 l 257
 1419 309 l 257
 1419 809 l 257
 1343 809 l 257
 988 310 l 257
 1001 253 l 257
 1349 253 l 257
 1349 57 l 257
 1233 57 l 257
 1233 0 l 257
154 355 m 257
 469 355 l 257
 469 412 l 257
 349 412 l 257
 349 1152 l 257
 151 1139 l 257
 152 1083 l 257
 276 1088 l 257
 276 412 l 257
 154 412 l 257
 154 355 l 257
421 -18 m 257
 494 -18 l 257
 1286 1187 l 257
 1216 1187 l 257
 421 -18 l 257
1060 309 m 257
 1349 721 l 257
 1349 309 l 257
 1060 309 l 257
EndSplineSet
EndChar

StartChar: onesuperior
Encoding: 185 185 339
Width: 687
VWidth: 0
Flags: HW
PickledData: "(dp1
S'org.robofab.postScriptHintData'
p2
(dp3
sS'com.typemytype.robofont.layerData'
p4
(dp5
S'b'
(dp6
S'name'
p7
S'uni00B9'
p8
sS'lib'
p9
(dp10
sS'unicodes'
p11
(tsS'width'
p12
I531
sS'contours'
p13
(tsS'components'
p14
(tsS'anchors'
p15
(tsss."
LayerCount: 2
Fore
SplineSet
172 543 m 257
 513 543 l 257
 513 600 l 257
 384 600 l 257
 384 1322 l 257
 177 1286 l 257
 184 1228 l 257
 306 1249 l 257
 306 600 l 257
 172 600 l 257
 172 543 l 257
EndSplineSet
EndChar

StartChar: ordfeminine
Encoding: 170 170 340
Width: 793
VWidth: 0
Flags: HW
PickledData: "(dp1
S'org.robofab.postScriptHintData'
p2
(dp3
sS'com.typemytype.robofont.layerData'
p4
(dp5
S'b'
(dp6
S'name'
p7
S'ordfeminine'
p8
sS'lib'
p9
(dp10
sS'unicodes'
p11
(tsS'width'
p12
I801
sS'contours'
p13
(tsS'components'
p14
(tsS'anchors'
p15
(tsss."
LayerCount: 2
Fore
SplineSet
319 536 m 256
 402 536 487 565 540 609 c 257
 543 547 l 257
 727 547 l 257
 727 610 l 257
 623 610 l 257
 623 969 l 258
 623 1070 558 1174 376 1174 c 256
 292 1174 200 1154 132 1103 c 257
 163 1045 l 257
 225 1090 307 1108 376 1108 c 256
 483 1108 537 1059 537 959 c 258
 537 884 l 257
 483 893 421 901 360 901 c 256
 225 901 105 859 105 718 c 256
 105 621 177 536 319 536 c 256
328 598 m 256
 236 598 189 648 189 721 c 256
 189 820 272 844 370 844 c 256
 431 844 488 837 537 829 c 257
 537 672 l 257
 481 623 402 598 328 598 c 256
EndSplineSet
EndChar

StartChar: ordmasculine
Encoding: 186 186 341
Width: 854
VWidth: 0
Flags: HW
PickledData: "(dp1
S'org.robofab.postScriptHintData'
p2
(dp3
sS'com.typemytype.robofont.layerData'
p4
(dp5
S'b'
(dp6
S'name'
p7
S'ordmasculine'
p8
sS'lib'
p9
(dp10
sS'unicodes'
p11
(tsS'width'
p12
I809
sS'contours'
p13
(tsS'components'
p14
(tsS'anchors'
p15
(tsss."
LayerCount: 2
Fore
SplineSet
428 529 m 256
 607 529 752 645 752 852 c 256
 752 1059 607 1174 429 1174 c 256
 251 1174 106 1059 106 852 c 256
 106 645 251 529 428 529 c 256
429 598 m 256
 305 598 195 682 195 852 c 256
 195 1022 305 1105 428 1105 c 256
 552 1105 663 1022 663 852 c 256
 663 682 552 598 429 598 c 256
EndSplineSet
EndChar

StartChar: oslash
Encoding: 248 248 342
Width: 1005
VWidth: 0
Flags: HW
PickledData: "(dp1
S'org.robofab.postScriptHintData'
p2
(dp3
sS'com.typemytype.robofont.layerData'
p4
(dp5
S'b'
(dp6
S'name'
p7
S'oslash'
p8
sS'lib'
p9
(dp10
sS'unicodes'
p11
(tsS'width'
p12
I1023
sS'contours'
p13
(tsS'components'
p14
(tsS'anchors'
p15
(tsss."
LayerCount: 2
Fore
SplineSet
218 -167 m 257
 856 948 l 257
 810 973 l 257
 173 -141 l 257
 218 -167 l 257
EndSplineSet
Refer: 326 111 N 1 0 0 1 0 0 2
EndChar

StartChar: p
Encoding: 112 112 345
Width: 1042
VWidth: 0
Flags: HW
PickledData: "(dp1
S'org.robofab.postScriptHintData'
p2
(dp3
sS'com.typemytype.robofont.layerData'
p4
(dp5
S'b'
(dp6
S'name'
p7
S'p'
sS'lib'
p8
(dp9
sS'unicodes'
p10
(tsS'width'
p11
I1037
sS'contours'
p12
(tsS'components'
p13
(tsS'anchors'
p14
(tsss."
AnchorPoint: "top" 566 805 basechar 0
LayerCount: 2
Fore
SplineSet
561 -22 m 0
 803.940504926 -22 984.039774154 140.377195986 984.039774154 412.007198621 c 0
 984.039774154 672.747842483 699.896686626 704.598132058 582 826 c 1
 485 826 379 790 291 724 c 1
 288 804 l 1
 63 804 l 1
 63 733 l 1
 195 733 l 1
 195 -246 l 1
 52 -246 l 1
 52 -317 l 1
 438 -317 l 1
 438 -246 l 1
 292 -246 l 1
 292 80 l 1
 368 14 467 -22 561 -22 c 0
292 153 m 1
 293 648 l 1
 378 714 476 751 561 751 c 0
 754 751 884 619 884 401 c 0
 884 181 748 52 548 52 c 0
 461 52 367 88 292 153 c 1
EndSplineSet
EndChar

StartChar: paragraph
Encoding: 182 182 346
Width: 1021
VWidth: 0
Flags: HW
PickledData: "(dp1
S'org.robofab.postScriptHintData'
p2
(dp3
sS'com.typemytype.robofont.layerData'
p4
(dp5
S'b'
(dp6
S'name'
p7
S'paragraph'
p8
sS'lib'
p9
(dp10
sS'unicodes'
p11
(tsS'width'
p12
I953
sS'contours'
p13
(tsS'components'
p14
(tsS'anchors'
p15
(tsss."
LayerCount: 2
Fore
SplineSet
494 -12 m 257
 926 -12 l 257
 926 60 l 257
 783 60 l 257
 783 1085 l 257
 936 1085 l 257
 936 1152 l 257
 447 1152 l 258
 217 1152 118 1011 118 882 c 256
 118 746.460296298 223.283693537 599.994926285 437.810603536 599.994926285 c 0
 438.539142405 599.994926285 439.268941174 599.996615468 440 600 c 258
 687 600 l 257
 687 60 l 257
 494 60 l 257
 494 -12 l 257
501 681 m 257
 501 1085 l 257
 687 1085 l 257
 687 681 l 257
 501 681 l 257
EndSplineSet
EndChar

StartChar: parenleft
Encoding: 40 40 347
Width: 533
VWidth: 0
Flags: HW
PickledData: "(dp1
S'org.robofab.postScriptHintData'
p2
(dp3
sS'com.typemytype.robofont.layerData'
p4
(dp5
S'b'
(dp6
S'name'
p7
S'parenleft'
p8
sS'lib'
p9
(dp10
sS'unicodes'
p11
(tsS'width'
p12
I500
sS'contours'
p13
(tsS'components'
p14
(tsS'anchors'
p15
(tsss."
LayerCount: 2
Fore
SplineSet
488 -118 m 257
 489 -55 l 257
 302 30 209 280 209 529 c 256
 209 779 302 1028 489 1113 c 257
 488 1174 l 257
 227 1076 96 801 96 527 c 256
 96 252 227 -21 488 -118 c 257
EndSplineSet
EndChar

StartChar: parenright
Encoding: 41 41 348
Width: 534
VWidth: 0
Flags: HW
PickledData: "(dp1
S'org.robofab.postScriptHintData'
p2
(dp3
sS'com.typemytype.robofont.layerData'
p4
(dp5
S'b'
(dp6
S'name'
p7
S'parenright'
p8
sS'lib'
p9
(dp10
sS'unicodes'
p11
(tsS'width'
p12
I501
sS'contours'
p13
(tsS'components'
p14
(tsS'anchors'
p15
(tsss."
LayerCount: 2
Fore
SplineSet
99 -118 m 257
 361 -21 492 252 492 527 c 256
 492 801 361 1076 99 1174 c 257
 97 1113 l 257
 284 1028 379 779 379 529 c 256
 379 280 284 30 97 -55 c 257
 99 -118 l 257
EndSplineSet
EndChar

StartChar: partialdiff
Encoding: 8706 8706 349
Width: 1014
VWidth: 0
Flags: HW
PickledData: "(dp1
S'org.robofab.postScriptHintData'
p2
(dp3
s."
LayerCount: 2
Fore
SplineSet
401 -21 m 256
 743 -21 859 365 859 659 c 256
 859 985 738 1189 496 1189 c 256
 348 1189 256 1124 256 1032 c 256
 256 983 285 958 342 958 c 257
 342 1068 421 1130 530 1130 c 256
 692.702926895 1130 803.501313489 937.211707454 803.501313489 596.251672585 c 0
 803.501313489 583.055534652 803.335347088 569.637448263 803 556 c 257
 817 561 l 257
 797 637 710 717 561 717 c 256
 251 717 130 426 130 250 c 256
 130 108 198 -21 401 -21 c 256
439 38 m 256
 296 38 246 133 246 246 c 256
 246 389 332 660 581 660 c 256
 697 660 772 607 795 515 c 257
 768 277 639 38 439 38 c 256
EndSplineSet
EndChar

StartChar: percent
Encoding: 37 37 351
Width: 1635
VWidth: 0
Flags: HW
PickledData: "(dp1
S'org.robofab.postScriptHintData'
p2
(dp3
sS'com.typemytype.robofont.layerData'
p4
(dp5
S'b'
(dp6
S'name'
p7
S'percent'
p8
sS'lib'
p9
(dp10
sS'unicodes'
p11
(tsS'width'
p12
I1578
sS'contours'
p13
(tsS'components'
p14
(tsS'anchors'
p15
(tsss."
LayerCount: 2
Fore
SplineSet
401 679 m 256
 276 679 186 771 186 898 c 256
 186 1023 276 1114 401 1114 c 256
 528 1114 619 1023 619 898 c 256
 619 771 528 679 401 679 c 256
401 616 m 256
 571 616 693 734 693 898 c 256
 693 1058 571 1175 401 1175 c 256
 233 1175 111 1058 111 898 c 256
 111 734 233 616 401 616 c 256
339 -47 m 257
 1363 1190 l 257
 1315 1229 l 257
 287 -1 l 257
 339 -47 l 257
1248 41 m 256
 1122 41 1032 133 1032 260 c 256
 1032 385 1122 476 1248 476 c 256
 1375 476 1465 385 1465 260 c 256
 1465 133 1375 41 1248 41 c 256
1248 -22 m 256
 1418 -22 1540 96 1540 260 c 256
 1540 420 1418 537 1248 537 c 256
 1080 537 958 420 958 260 c 256
 958 96 1080 -22 1248 -22 c 256
EndSplineSet
EndChar

StartChar: period
Encoding: 46 46 352
Width: 487
VWidth: 0
Flags: HW
PickledData: "(dp1
S'org.robofab.postScriptHintData'
p2
(dp3
sS'com.typemytype.robofont.layerData'
p4
(dp5
S'b'
(dp6
S'name'
p7
S'period'
p8
sS'lib'
p9
(dp10
sS'unicodes'
p11
(tsS'width'
p12
I452
sS'contours'
p13
(tsS'components'
p14
(tsS'anchors'
p15
(tsss."
LayerCount: 2
Fore
SplineSet
182 0 m 257
 315 0 l 257
 315 138 l 257
 182 138 l 257
 182 0 l 257
EndSplineSet
EndChar

StartChar: periodcentered
Encoding: 183 183 353
Width: 495
VWidth: 0
Flags: HW
PickledData: "(dp1
S'org.robofab.postScriptHintData'
p2
(dp3
sS'com.typemytype.robofont.layerData'
p4
(dp5
S'b'
(dp6
S'name'
p7
S'periodcentered'
p8
sS'lib'
p9
(dp10
sS'unicodes'
p11
(tsS'width'
p12
I453
sS'contours'
p13
(tsS'components'
p14
(tsS'anchors'
p15
(tsss."
LayerCount: 2
Fore
SplineSet
256 480 m 256
 302 480 336 511 336 553 c 256
 336 594 302 625 256 625 c 256
 213 625 180 594 180 553 c 256
 180 511 213 480 256 480 c 256
EndSplineSet
EndChar

StartChar: perthousand
Encoding: 8240 8240 354
Width: 2343
VWidth: 0
Flags: HW
PickledData: "(dp1
S'org.robofab.postScriptHintData'
p2
(dp3
s."
LayerCount: 2
Fore
SplineSet
1960 -22 m 256
 2130 -22 2253 96 2253 260 c 256
 2253 420 2130 537 1960 537 c 256
 1792 537 1670 420 1670 260 c 256
 1670 96 1792 -22 1960 -22 c 256
1960 41 m 256
 1835 41 1745 133 1745 260 c 256
 1745 385 1835 476 1960 476 c 256
 2087 476 2178 385 2178 260 c 256
 2178 133 2087 41 1960 41 c 256
EndSplineSet
Refer: 351 37 N 1 0 0 1 0 0 2
EndChar

StartChar: pi
Encoding: 960 960 355
Width: 1138
VWidth: 0
Flags: HW
PickledData: "(dp1
S'org.robofab.postScriptHintData'
p2
(dp3
s."
LayerCount: 2
Fore
SplineSet
900 -13 m 256
 936 -13 982 -2 1020 16 c 257
 1020 71 l 257
 989 61 961 56 936 56 c 256
 850 56 802 116 802 240 c 256
 802 337 836 543 867 711 c 257
 1044 711 l 257
 1044 804 l 257
 326 804 l 258
 199 804 156 703 156 588 c 257
 210 588 l 257
 213 676 248 711 303 711 c 258
 392 711 l 257
 324 257 l 258
 302 112 258 48 133 48 c 257
 133 -3 l 257
 349 -3 399 65 416 239 c 258
 463 711 l 257
 806 711 l 257
 762 557 710 345 710 223 c 256
 710 67 771 -13 900 -13 c 256
EndSplineSet
EndChar

StartChar: plus
Encoding: 43 43 356
Width: 811
VWidth: 0
Flags: HW
PickledData: "(dp1
S'org.robofab.postScriptHintData'
p2
(dp3
sS'com.typemytype.robofont.layerData'
p4
(dp5
S'b'
(dp6
S'name'
p7
S'plus'
p8
sS'lib'
p9
(dp10
sS'unicodes'
p11
(tsS'width'
p12
I690
sS'contours'
p13
(tsS'components'
p14
(tsS'anchors'
p15
(tsss."
LayerCount: 2
Fore
SplineSet
370 135 m 257
 449 135 l 257
 449 537 l 257
 796 537 l 257
 796 616 l 257
 449 616 l 257
 449 1006 l 257
 370 1006 l 257
 370 616 l 257
 21 616 l 257
 21 537 l 257
 370 537 l 257
 370 135 l 257
EndSplineSet
EndChar

StartChar: plusminus
Encoding: 177 177 357
Width: 771
VWidth: 0
Flags: HW
PickledData: "(dp1
S'org.robofab.postScriptHintData'
p2
(dp3
sS'com.typemytype.robofont.layerData'
p4
(dp5
S'b'
(dp6
S'name'
p7
S'plusminus'
p8
sS'lib'
p9
(dp10
sS'unicodes'
p11
(tsS'width'
p12
I659
sS'contours'
p13
(tsS'components'
p14
(tsS'anchors'
p15
(tsss."
LayerCount: 2
Fore
SplineSet
349 152 m 257
 425 152 l 257
 425 542 l 257
 779 542 l 257
 779 620 l 257
 425 620 l 257
 425 999 l 257
 349 999 l 257
 349 620 l 257
 -5 620 l 257
 -5 542 l 257
 349 542 l 257
 349 152 l 257
-7 0 m 257
 777 0 l 257
 777 75 l 257
 -7 75 l 257
 -7 0 l 257
EndSplineSet
EndChar

StartChar: product
Encoding: 8719 8719 358
Width: 1365
VWidth: 0
Flags: HW
PickledData: "(dp1
S'org.robofab.postScriptHintData'
p2
(dp3
sS'com.typemytype.robofont.layerData'
p4
(dp5
S'b'
(dp6
S'name'
p7
S'product'
p8
sS'lib'
p9
(dp10
sS'unicodes'
p11
(tsS'width'
p12
I1305
sS'contours'
p13
(tsS'components'
p14
(tsS'anchors'
p15
(tsss."
LayerCount: 2
Fore
SplineSet
117 0 m 257
 522 0 l 257
 522 73 l 257
 371 73 l 257
 371 1080 l 257
 994 1080 l 257
 994 73 l 257
 844 73 l 257
 844 0 l 257
 1248 0 l 257
 1248 73 l 257
 1098 73 l 257
 1098 1080 l 257
 1248 1080 l 257
 1248 1152 l 257
 117 1152 l 257
 117 1080 l 257
 268 1080 l 257
 268 73 l 257
 117 73 l 257
 117 0 l 257
EndSplineSet
EndChar

StartChar: q
Encoding: 113 113 359
Width: 1068
VWidth: 0
Flags: HW
PickledData: "(dp1
S'org.robofab.postScriptHintData'
p2
(dp3
sS'com.typemytype.robofont.layerData'
p4
(dp5
S'b'
(dp6
S'name'
p7
S'q'
sS'lib'
p8
(dp9
sS'unicodes'
p10
(tsS'width'
p11
I1049
sS'contours'
p12
(tsS'components'
p13
(tsS'anchors'
p14
(tsss."
LayerCount: 2
Fore
SplineSet
624 -330 m 1
 1009 -330 l 1
 1009 -256 l 1
 868 -256 l 1
 868 733 l 1
 1003 733 l 1
 1003 804 l 1
 775 804 l 1
 771 716 l 1
 684 784 565 826 458 826 c 0
 232.299715551 826 59.9828344984 662.884045177 59.9828344984 403.490784132 c 0
 59.9828344984 145.471944014 243.785672385 -22 479 -22 c 0
 578 -22 687 17 770 84 c 1
 770 -256 l 1
 624 -256 l 1
 624 -330 l 1
770 648 m 1
 770 155 l 1
 689 91 586 53 495 53 c 0
 302 53 159 186 159 394 c 0
 159 613 291 751 473 751 c 0
 571 751 682 712 770 648 c 1
EndSplineSet
EndChar

StartChar: question
Encoding: 63 63 360
Width: 707
VWidth: 0
Flags: HW
PickledData: "(dp1
S'org.robofab.postScriptHintData'
p2
(dp3
sS'com.typemytype.robofont.layerData'
p4
(dp5
S'b'
(dp6
S'name'
p7
S'question'
p8
sS'lib'
p9
(dp10
sS'unicodes'
p11
(tsS'width'
p12
I629
sS'contours'
p13
(tsS'components'
p14
(tsS'anchors'
p15
(tsss."
LayerCount: 2
Fore
SplineSet
285 300 m 257
 347 300 l 257
 396 700 672 613 672 909 c 256
 672 1084 547 1195 351 1195 c 256
 174 1195 37 1125 26 928 c 257
 106 928 l 257
 126 1069 205 1124 352 1124 c 256
 497 1124 586 1041 586 909 c 256
 586 659 311 739 285 300 c 257
315 -19 m 256
 362 -19 397 14 397 57 c 256
 397 99 362 132 315 132 c 256
 270 132 236 99 236 57 c 256
 236 14 270 -19 315 -19 c 256
EndSplineSet
EndChar

StartChar: quotedbl
Encoding: 34 34 362
Width: 617
VWidth: 0
Flags: HW
PickledData: "(dp1
S'org.robofab.postScriptHintData'
p2
(dp3
sS'com.typemytype.robofont.layerData'
p4
(dp5
S'b'
(dp6
S'name'
p7
S'quotedbl'
p8
sS'lib'
p9
(dp10
sS'unicodes'
p11
(tsS'width'
p12
I514
sS'contours'
p13
(tsS'components'
p14
(tsS'anchors'
p15
(tsss."
LayerCount: 2
Fore
SplineSet
184 856 m 257
 239 856 l 257
 261 1246 l 257
 154 1246 l 257
 184 856 l 257
385 856 m 257
 439 856 l 257
 469 1246 l 257
 361 1246 l 257
 385 856 l 257
EndSplineSet
EndChar

StartChar: quotedblbase
Encoding: 8222 8222 363
Width: 738
VWidth: 0
Flags: HW
PickledData: "(dp1
S'org.robofab.postScriptHintData'
p2
(dp3
sS'com.typemytype.robofont.layerData'
p4
(dp5
S'b'
(dp6
S'name'
p7
S'quotedblbase'
p8
sS'lib'
p9
(dp10
sS'unicodes'
p11
(tsS'width'
p12
I652
sS'contours'
p13
(tsS'components'
p14
(tsS'anchors'
p15
(tsss."
LayerCount: 2
Fore
SplineSet
184 -187 m 257
 290 -186 323 -108 323 -8 c 258
 323 122 l 257
 193 122 l 257
 193 -8 l 257
 254 -8 l 257
 253 -90 248 -116 184 -136 c 257
 184 -187 l 257
435 -187 m 257
 540 -186 574 -108 574 -8 c 258
 574 122 l 257
 444 122 l 257
 444 -8 l 257
 504 -8 l 257
 503 -90 498 -116 435 -136 c 257
 435 -187 l 257
EndSplineSet
EndChar

StartChar: quotedblleft
Encoding: 8220 8220 364
Width: 713
VWidth: 0
Flags: HW
PickledData: "(dp1
S'org.robofab.postScriptHintData'
p2
(dp3
sS'com.typemytype.robofont.layerData'
p4
(dp5
S'b'
(dp6
S'name'
p7
S'quotedblleft'
p8
sS'lib'
p9
(dp10
sS'unicodes'
p11
(tsS'width'
p12
I642
sS'contours'
p13
(tsS'components'
p14
(tsS'anchors'
p15
(tsss."
LayerCount: 2
Fore
SplineSet
168 960 m 257
 298 960 l 257
 298 1090 l 257
 238 1090 l 257
 239 1172 245 1197 308 1218 c 257
 308 1269 l 257
 202 1268 168 1191 168 1091 c 258
 168 960 l 257
394 960 m 257
 523 960 l 257
 523 1090 l 257
 465 1090 l 257
 465 1172 471 1197 534 1218 c 257
 534 1269 l 257
 428 1268 394 1191 394 1091 c 258
 394 960 l 257
EndSplineSet
EndChar

StartChar: quotedblright
Encoding: 8221 8221 365
Width: 714
VWidth: 0
Flags: HW
PickledData: "(dp1
S'org.robofab.postScriptHintData'
p2
(dp3
sS'com.typemytype.robofont.layerData'
p4
(dp5
S'b'
(dp6
S'name'
p7
S'quotedblright'
p8
sS'lib'
p9
(dp10
sS'unicodes'
p11
(tsS'width'
p12
I649
sS'contours'
p13
(tsS'components'
p14
(tsS'anchors'
p15
(tsss."
LayerCount: 2
Fore
SplineSet
185 938 m 257
 291 940 324 1018 324 1117 c 258
 324 1248 l 257
 195 1248 l 257
 195 1119 l 257
 255 1119 l 257
 253 1037 248 1010 185 990 c 257
 185 938 l 257
408 938 m 257
 515 940 548 1018 548 1117 c 258
 548 1248 l 257
 419 1248 l 257
 419 1119 l 257
 478 1119 l 257
 477 1037 472 1010 408 990 c 257
 408 938 l 257
EndSplineSet
EndChar

StartChar: quoteleft
Encoding: 8216 8216 366
Width: 438
VWidth: 0
Flags: HW
PickledData: "(dp1
S'org.robofab.postScriptHintData'
p2
(dp3
sS'com.typemytype.robofont.layerData'
p4
(dp5
S'b'
(dp6
S'name'
p7
S'quoteleft'
p8
sS'lib'
p9
(dp10
sS'unicodes'
p11
(tsS'width'
p12
I399
sS'contours'
p13
(tsS'components'
p14
(tsS'anchors'
p15
(tsss."
LayerCount: 2
Fore
SplineSet
134 960 m 257
 263 960 l 257
 263 1090 l 257
 204 1090 l 257
 204 1172 211 1197 274 1218 c 257
 274 1269 l 257
 168 1268 134 1191 134 1091 c 258
 134 960 l 257
EndSplineSet
EndChar

StartChar: quoteright
Encoding: 8217 8217 367
Width: 445
VWidth: 0
Flags: HW
PickledData: "(dp1
S'org.robofab.postScriptHintData'
p2
(dp3
sS'com.typemytype.robofont.layerData'
p4
(dp5
S'b'
(dp6
S'name'
p7
S'quoteright'
p8
sS'lib'
p9
(dp10
sS'unicodes'
p11
(tsS'width'
p12
I409
sS'contours'
p13
(tsS'components'
p14
(tsS'anchors'
p15
(tsss."
LayerCount: 2
Fore
SplineSet
174 938 m 257
 281 940 314 1018 314 1117 c 258
 314 1248 l 257
 185 1248 l 257
 185 1119 l 257
 244 1119 l 257
 243 1037 238 1010 174 990 c 257
 174 938 l 257
EndSplineSet
EndChar

StartChar: quotesinglbase
Encoding: 8218 8218 368
Width: 440
VWidth: 0
Flags: HW
PickledData: "(dp1
S'org.robofab.postScriptHintData'
p2
(dp3
sS'com.typemytype.robofont.layerData'
p4
(dp5
S'b'
(dp6
S'name'
p7
S'quotesinglbase'
p8
sS'lib'
p9
(dp10
sS'unicodes'
p11
(tsS'width'
p12
I403
sS'contours'
p13
(tsS'components'
p14
(tsS'anchors'
p15
(tsss."
LayerCount: 2
Fore
SplineSet
177 -187 m 257
 284 -186 316 -108 316 -8 c 258
 316 122 l 257
 187 122 l 257
 187 -8 l 257
 247 -8 l 257
 246 -90 240 -116 177 -136 c 257
 177 -187 l 257
EndSplineSet
EndChar

StartChar: quotesingle
Encoding: 39 39 369
Width: 323
VWidth: 0
Flags: HW
PickledData: "(dp1
S'org.robofab.postScriptHintData'
p2
(dp3
sS'com.typemytype.robofont.layerData'
p4
(dp5
S'b'
(dp6
S'name'
p7
S'quotesingle'
p8
sS'lib'
p9
(dp10
sS'unicodes'
p11
(tsS'width'
p12
I239
sS'contours'
p13
(tsS'components'
p14
(tsS'anchors'
p15
(tsss."
LayerCount: 2
Fore
SplineSet
140 856 m 257
 195 856 l 257
 218 1246 l 257
 110 1246 l 257
 140 856 l 257
EndSplineSet
EndChar

StartChar: r
Encoding: 114 114 370
Width: 781
VWidth: 0
Flags: HW
PickledData: "(dp1
S'org.robofab.postScriptHintData'
p2
(dp3
sS'com.typemytype.robofont.layerData'
p4
(dp5
S'b'
(dp6
S'name'
p7
S'r'
sS'lib'
p8
(dp9
sS'unicodes'
p10
(tsS'width'
p11
I773
sS'contours'
p12
((dp13
S'points'
p14
((dp15
S'segmentType'
p16
S'line'
p17
sS'x'
I338
sS'smooth'
p18
I0
sS'y'
I449
s(dp19
S'y'
I643
sS'x'
I338
sg18
I0
s(dp20
S'y'
I756
sS'x'
I441
sg18
I0
s(dp21
g16
S'curve'
p22
sS'x'
I570
sg18
I1
sS'y'
I756
s(dp23
S'y'
I756
sS'x'
I614
sg18
I0
s(dp24
S'y'
I742
sS'x'
I651
sg18
I0
s(dp25
g16
S'curve'
p26
sS'x'
I704
sg18
I0
sS'y'
I716
s(dp27
g16
S'line'
p28
sS'x'
I722
sg18
I0
sS'y'
I784
s(dp29
S'y'
I810
sS'x'
I664
sg18
I0
s(dp30
S'y'
I820
sS'x'
I622
sg18
I0
s(dp31
g16
S'curve'
p32
sS'x'
I575
sg18
I1
sS'y'
I820
s(dp33
S'y'
I820
sS'x'
I467
sg18
I0
s(dp34
S'y'
I769
sS'x'
I381
sg18
I0
s(dp35
g16
S'curve'
p36
sS'x'
I316
sg18
I0
sS'y'
I582
stp37
stp38
sS'components'
p39
(tsS'anchors'
p40
(tsss."
AnchorPoint: "bot" 318 0 basechar 0
AnchorPoint: "top" 483 805 basechar 0
LayerCount: 2
Fore
SplineSet
362 450 m 1
 362 631 456 737 563 737 c 0
 615 737 655 723 700 696 c 1
 723 780 l 1
 673 806 623 820 568 820 c 0
 488 820 408 776 361 653 c 1
 361 804 l 1
 97 804 l 1
 97 733 l 1
 264 733 l 1
 264 71 l 1
 95 71 l 1
 95 0 l 1
 521 0 l 1
 521 71 l 1
 361 71 l 1
 361 453 l 1
 362 450 l 1
EndSplineSet
EndChar

StartChar: radical
Encoding: 8730 8730 372
Width: 1137
VWidth: 0
Flags: HW
PickledData: "(dp1
S'org.robofab.postScriptHintData'
p2
(dp3
sS'com.typemytype.robofont.layerData'
p4
(dp5
S'b'
(dp6
S'name'
p7
S'radical'
p8
sS'lib'
p9
(dp10
sS'unicodes'
p11
(tsS'width'
p12
I1118
sS'contours'
p13
(tsS'components'
p14
(tsS'anchors'
p15
(tsss."
LayerCount: 2
Fore
SplineSet
487 -14 m 257
 555 -14 l 257
 1012 1363 l 257
 942 1363 l 257
 529 117 l 257
 300 646 l 257
 38 646 l 257
 38 580 l 257
 219 580 l 257
 487 -14 l 257
EndSplineSet
EndChar

StartChar: registered
Encoding: 174 174 375
Width: 1521
VWidth: 0
Flags: HW
PickledData: "(dp1
S'org.robofab.postScriptHintData'
p2
(dp3
sS'com.typemytype.robofont.layerData'
p4
(dp5
S'b'
(dp6
S'name'
p7
S'registered'
p8
sS'lib'
p9
(dp10
sS'unicodes'
p11
(tsS'width'
p12
I1512
sS'contours'
p13
(tsS'components'
p14
(tsS'anchors'
p15
(tsss."
LayerCount: 2
Fore
SplineSet
446 249 m 257
 697 249 l 257
 697 295 l 257
 604 295 l 257
 604 583 l 257
 759 583 l 257
 944 249 l 257
 1087 249 l 257
 1087 297 l 257
 988 297 l 257
 823 589 l 257
 943 600 1013 665 1013 765 c 256
 1013 885 933 956 797 956 c 258
 441 956 l 257
 441 909 l 257
 539 909 l 257
 539 295 l 257
 446 295 l 257
 446 249 l 257
604 633 m 257
 604 909 l 257
 797 909 l 258
 892 909 949 857 949 765 c 256
 949 681 892 633 795 633 c 258
 604 633 l 257
742 45 m 256
 388 45 209 303 209 582 c 256
 209 854 391 1126 742 1126 c 256
 1090 1126 1275 854 1275 582 c 256
 1275 310 1090 45 742 45 c 256
742 -22 m 256
 1147 -22 1358 271 1358 582 c 256
 1358 893 1145 1192 742 1192 c 256
 340 1192 126 893 126 582 c 256
 126 272.524069182 336.287192721 -22.0025351398 739.947650323 -22.0025351398 c 0
 740.631212386 -22.0025351398 741.315328972 -22.0016905457 742 -22 c 256
EndSplineSet
EndChar

StartChar: ring
Encoding: 730 730 376
Width: 381
VWidth: 0
Flags: HW
PickledData: "(dp1
S'org.robofab.postScriptHintData'
p2
(dp3
sS'com.typemytype.robofont.layerData'
p4
(dp5
S'b'
(dp6
S'name'
p7
S'ring'
p8
sS'lib'
p9
(dp10
sS'unicodes'
p11
(tsS'width'
p12
I317
sS'contours'
p13
(tsS'components'
p14
(tsS'anchors'
p15
(tsss."
AnchorPoint: "top" 188 804 mark 0
LayerCount: 2
Fore
SplineSet
189 882 m 256
 275 882 325 937 325 1015 c 256
 325 1091 275 1144 188 1144 c 256
 101 1144 51 1091 50 1015 c 256
 51 937 102 882 189 882 c 256
189 927 m 256
 134 927 102 963 102 1014 c 256
 102 1064 134 1099 189 1099 c 256
 242 1099 274 1064 274 1014 c 256
 274 963 242 927 189 927 c 256
EndSplineSet
EndChar

StartChar: s
Encoding: 115 115 377
Width: 903
VWidth: 0
Flags: HW
PickledData: "(dp1
S'org.robofab.postScriptHintData'
p2
(dp3
sS'com.typemytype.robofont.layerData'
p4
(dp5
S'b'
(dp6
S'name'
p7
S's'
sS'lib'
p8
(dp9
sS'unicodes'
p10
(tsS'width'
p11
I919
sS'contours'
p12
(tsS'components'
p13
(tsS'anchors'
p14
(tsss."
AnchorPoint: "bot" 472 0 basechar 0
AnchorPoint: "top" 447 805 basechar 0
LayerCount: 2
Fore
SplineSet
489 -21 m 0
 647.293183891 -21 801.056387472 46.9852000517 801.056387472 204.59417481 c 0
 801.056387472 375.828816946 684.904833317 408.476744515 520 446 c 2
 399 473 l 2
 297.759519547 496.054762875 234.992845873 528.104095775 234.992845873 606.471020319 c 0
 234.992845873 708.438085257 338.501184733 754 443 754 c 0
 529 754 637 715 680 659 c 1
 689 538 l 1
 764 538 l 1
 764 806 l 1
 681 806 l 1
 681 738 l 1
 622 795 520 826 431 826 c 0
 272 826 138 752 138 602 c 0
 138 472 227 421 365 390 c 1
 490 363 l 2
 642.189407023 330.960124837 709.007584152 305.931504437 709.007584152 196.59133176 c 0
 709.007584152 104.424743418 611.332224323 48 480 48 c 0
 372 48 272 84 214 158 c 1
 208 256 l 1
 135 256 l 1
 135 0 l 1
 214 0 l 1
 214 76 l 1
 267 20 374 -21 489 -21 c 0
EndSplineSet
EndChar

StartChar: section
Encoding: 167 167 385
Width: 932
VWidth: 0
Flags: HW
PickledData: "(dp1
S'org.robofab.postScriptHintData'
p2
(dp3
s."
LayerCount: 2
Fore
SplineSet
486 -150 m 256
 686 -150 781 -49 781 103 c 256
 781 180 757 228 721 267 c 257
 788.351044217 309.948491965 828.071605015 386.24411909 828.071605015 470.776720665 c 0
 828.071605015 598.849805499 739.422015727 657.688074814 521 776 c 256
 360 864 290 892 290 1015 c 256
 290 1120 360 1190 489 1190 c 256
 630 1190 677 1100 685 988 c 257
 733 988 755 1013 755 1053 c 256
 755 1147 681 1241 492 1241 c 256
 315 1241 207 1146 207 1008 c 256
 207 910 248 849 312 802 c 257
 233 779 171 716 171 625 c 256
 171 501 234 444 428 346 c 256
 670 224 707 191 707 85 c 256
 707 -28 642 -100 494 -100 c 256
 353 -100 272 -44 269 95 c 257
 230 95 199 77 199 25 c 256
 199 -80 285 -150 486 -150 c 256
684 300 m 257
 636 335 564 373 482 415 c 256
 308 505 249 535 249 640 c 256
 249 700 283 750 347 775 c 257
 365 762 472 706 498 693 c 256
 691 590 748 536 748 452 c 256
 748 391 731 340 684 300 c 257
EndSplineSet
EndChar

StartChar: semicolon
Encoding: 59 59 386
Width: 373
VWidth: 0
Flags: HW
PickledData: "(dp1
S'org.robofab.postScriptHintData'
p2
(dp3
sS'com.typemytype.robofont.layerData'
p4
(dp5
S'b'
(dp6
S'name'
p7
S'semicolon'
p8
sS'lib'
p9
(dp10
sS'unicodes'
p11
(tsS'width'
p12
I294
sS'contours'
p13
(tsS'components'
p14
(tsS'anchors'
p15
(tsss."
LayerCount: 2
Fore
SplineSet
98 11 m 257
 220 12 253 95 253 204 c 258
 253 346 l 257
 108 346 l 257
 108 206 l 257
 178 206 l 257
 178 118 173 83 98 66 c 257
 98 11 l 257
113 691 m 257
 249 691 l 257
 249 832 l 257
 113 832 l 257
 113 691 l 257
EndSplineSet
EndChar

StartChar: seven
Encoding: 55 55 387
Width: 976
VWidth: 0
Flags: HW
PickledData: "(dp1
S'org.robofab.postScriptHintData'
p2
(dp3
sS'com.typemytype.robofont.layerData'
p4
(dp5
S'b'
(dp6
S'name'
p7
S'seven'
p8
sS'lib'
p9
(dp10
sS'unicodes'
p11
(tsS'width'
p12
I964
sS'contours'
p13
(tsS'components'
p14
(tsS'anchors'
p15
(tsss."
LayerCount: 2
Fore
SplineSet
385 0 m 257
 489 0 l 257
 489 0 672 629 877 1084 c 257
 877 1152 l 257
 123 1152 l 257
 123 841 l 257
 217 841 l 257
 217 1078 l 257
 766 1078 l 257
 530 512 385 0 385 0 c 257
EndSplineSet
EndChar

StartChar: six
Encoding: 54 54 388
Width: 885
VWidth: 0
Flags: HW
PickledData: "(dp1
S'org.robofab.postScriptHintData'
p2
(dp3
sS'com.typemytype.robofont.layerData'
p4
(dp5
S'b'
(dp6
S'name'
p7
S'six'
p8
sS'lib'
p9
(dp10
sS'unicodes'
p11
(tsS'width'
p12
I829
sS'contours'
p13
(tsS'components'
p14
(tsS'anchors'
p15
(tsss."
LayerCount: 2
Fore
SplineSet
442 -21 m 256
 678 -21 821 124 821 347 c 256
 821 560 673 697 467 697 c 256
 375 697 276 651 236 609 c 257
 602 1188 l 257
 519 1240 l 257
 158 651 l 257
 102 565 63 459 63 329 c 256
 63 122 222 -21 442 -21 c 256
444 53 m 256
 270 53 164 173 164 332 c 256
 164 519 305 624 452 624 c 256
 624 624 729 513 729 341 c 256
 729 168 620 53 444 53 c 256
EndSplineSet
EndChar

StartChar: slash
Encoding: 47 47 389
Width: 447
VWidth: 0
Flags: HW
PickledData: "(dp1
S'org.robofab.postScriptHintData'
p2
(dp3
sS'com.typemytype.robofont.layerData'
p4
(dp5
S'b'
(dp6
S'name'
p7
S'slash'
p8
sS'lib'
p9
(dp10
sS'unicodes'
p11
(tsS'width'
p12
I295
sS'contours'
p13
(tsS'components'
p14
(tsS'anchors'
p15
(tsss."
LayerCount: 2
Fore
SplineSet
-19 -16 m 257
 57 -29 l 257
 457 1187 l 257
 386 1200 l 257
 -19 -16 l 257
EndSplineSet
EndChar

StartChar: sterling
Encoding: 163 163 392
Width: 1048
VWidth: 0
Flags: HW
PickledData: "(dp1
S'org.robofab.postScriptHintData'
p2
(dp3
s."
LayerCount: 2
Fore
SplineSet
281 -21 m 256
 388 -21 468 42 512 128 c 257
 592 44 684 -9 781 -9 c 256
 951 -9 1020 100 1021 263 c 256
 1021 272 1021 291 1020 300 c 257
 954 300 l 257
 952 165 910 75 780 75 c 256
 700 75 611 132 547 200 c 257
 565.675798551 251.358446016 576.285933536 302.06291931 576.285933536 356.184574152 c 0
 576.285933536 417.981185816 562.453197137 484.232874785 531 561 c 257
 891 561 l 257
 891 630 l 257
 500 630 l 257
 445 734 383 829 383 931 c 256
 383 1077 492 1170 646 1170 c 256
 814 1170 881 1071 881 941 c 257
 967 941 l 257
 967 1130 855 1247 644 1247 c 256
 441 1247 292 1123 292 926 c 256
 292 828 352 719 398 630 c 257
 179 630 l 257
 179 561 l 257
 435 561 l 257
 483.299823278 471.016767591 497.891405703 389.788922417 497.891405703 325.716208333 c 0
 497.891405703 292.949890498 494.075378778 264.67002521 489 242 c 257
 442 297 357 342 281 342 c 256
 146 342 63 261 63 153 c 256
 63 53 141 -21 281 -21 c 256
278 41 m 256
 193 41 137 84 137 154 c 256
 137 228 192 275 278 275 c 256
 335 275 412 236 464 175 c 257
 439 89 351 41 278 41 c 256
EndSplineSet
EndChar

StartChar: summation
Encoding: 8721 8721 393
Width: 1248
VWidth: 0
Flags: HW
PickledData: "(dp1
S'org.robofab.postScriptHintData'
p2
(dp3
sS'com.typemytype.robofont.layerData'
p4
(dp5
S'b'
(dp6
S'name'
p7
S'summation'
p8
sS'lib'
p9
(dp10
sS'unicodes'
p11
(tsS'width'
p12
I1212
sS'contours'
p13
(tsS'components'
p14
(tsS'anchors'
p15
(tsss."
LayerCount: 2
Fore
SplineSet
122 0 m 257
 1091 0 l 257
 1091 360 l 257
 1007 360 l 257
 1007 71 l 257
 355 71 l 257
 740 576 l 257
 740 619 l 257
 379 1081 l 257
 990 1081 l 257
 990 799 l 257
 1073 799 l 257
 1073 1152 l 257
 122 1152 l 257
 122 1081 l 257
 277 1081 l 257
 661 586 l 257
 271 71 l 257
 122 71 l 257
 122 0 l 257
EndSplineSet
EndChar

StartChar: t
Encoding: 116 116 394
Width: 594
VWidth: 0
Flags: HW
PickledData: "(dp1
S'org.robofab.postScriptHintData'
p2
(dp3
sS'com.typemytype.robofont.layerData'
p4
(dp5
S'b'
(dp6
S'name'
p7
S't'
sS'lib'
p8
(dp9
sS'unicodes'
p10
(tsS'width'
p11
I572
sS'contours'
p12
(tsS'components'
p13
(tsS'anchors'
p14
(tsss."
AnchorPoint: "bot" 392 7 basechar 0
AnchorPoint: "top" 236 1028 basechar 0
LayerCount: 2
Fore
SplineSet
428 0 m 2
 540 0 l 1
 540 71 l 1
 442 71 l 2
 328 71 282 114 282 233 c 2
 282 733 l 1
 508 733 l 1
 509 804 l 1
 282 804 l 1
 282 1117 l 1
 185 1082 l 1
 185 804 l 1
 41 804 l 1
 41 733 l 1
 185 733 l 1
 185 227 l 2
 185 61 279 0 428 0 c 2
EndSplineSet
EndChar

StartChar: thorn
Encoding: 254 254 400
Width: 1062
VWidth: 0
Flags: HW
PickledData: "(dp1
S'org.robofab.postScriptHintData'
p2
(dp3
sS'com.typemytype.robofont.layerData'
p4
(dp5
S'b'
(dp6
S'name'
p7
S'thorn'
p8
sS'lib'
p9
(dp10
sS'unicodes'
p11
(tsS'width'
p12
I1069
sS'contours'
p13
(tsS'components'
p14
(tsS'anchors'
p15
(tsss."
LayerCount: 2
Fore
SplineSet
25 -364 m 257
 286 -364 l 257
 288 1152 l 257
 37 1152 l 257
 37 1078 l 257
 188 1078 l 257
 188 -291 l 257
 25 -291 l 257
 25 -364 l 257
EndSplineSet
Refer: 296 -1 N 1 0 0 1 -35 21 2
EndChar

StartChar: three
Encoding: 51 51 401
Width: 1000
VWidth: 0
Flags: HW
PickledData: "(dp1
S'org.robofab.postScriptHintData'
p2
(dp3
sS'com.typemytype.robofont.layerData'
p4
(dp5
S'b'
(dp6
S'name'
p7
S'three'
p8
sS'lib'
p9
(dp10
sS'unicodes'
p11
(tsS'width'
p12
I964
sS'contours'
p13
(tsS'components'
p14
(tsS'anchors'
p15
(tsss."
LayerCount: 2
Fore
SplineSet
416 567 m 257
 667.311746216 567 791.05826773 487.49316363 791.05826773 326.234859412 c 0
 791.05826773 155.399625168 678.499282446 57 488 57 c 256
 342 57 231 127 172 255 c 257
 96 209 l 257
 154 65 298 -21 487 -21 c 256
 742 -21 890 111 890 334 c 256
 890 488 788 581 611 607 c 257
 774 632 867 728 867 873 c 256
 867 1060 720 1174 474 1174 c 256
 289 1174 150 1088 91 941 c 257
 167 906 l 257
 215 1027 325 1097 473 1097 c 256
 661 1097 771 1012 771 872 c 256
 771 725 659 643 416 643 c 257
 416 567 l 257
EndSplineSet
EndChar

StartChar: threequarters
Encoding: 190 190 402
Width: 1751
VWidth: 0
Flags: HW
PickledData: "(dp1
S'org.robofab.postScriptHintData'
p2
(dp3
s."
LayerCount: 2
Fore
SplineSet
385 353 m 256
 562 353 673 442 673 582 c 256
 673 687 597 758 476 778 c 257
 584 795 652 864 652 959 c 256
 652 1089 549 1174 389 1174 c 256
 266 1174 163 1116 118 1026 c 257
 176 994 l 257
 211 1068 290 1113 386 1113 c 256
 502 1113 576 1051 576 958 c 256
 576 863 499 805 343 805 c 257
 345 744 l 257
 504.804497609 744 595.009154064 684.828398313 595.009154064 578.154241166 c 0
 595.009154064 478.220908627 514.212417767 415 386 415 c 257
 284 415 202 463 168 542 c 257
 109 506 l 257
 146 413 253 353 385 353 c 256
1351 0 m 257
 1642 0 l 257
 1642 57 l 257
 1537 57 l 257
 1537 253 l 257
 1651 253 l 257
 1651 309 l 257
 1537 309 l 257
 1537 809 l 257
 1462 809 l 257
 1098 310 l 257
 1112 253 l 257
 1468 253 l 257
 1468 57 l 257
 1351 57 l 257
 1351 0 l 257
549 -18 m 257
 622 -18 l 257
 1414 1187 l 257
 1344 1187 l 257
 549 -18 l 257
1171 309 m 257
 1468 721 l 257
 1468 309 l 257
 1171 309 l 257
EndSplineSet
EndChar

StartChar: threesuperior
Encoding: 179 179 403
Width: 968
VWidth: 0
Flags: HW
PickledData: "(dp1
S'org.robofab.postScriptHintData'
p2
(dp3
s."
LayerCount: 2
Fore
SplineSet
487 526 m 256
 661 526 774 614 774 750 c 256
 774 848 708 932 575 950 c 257
 686 966 753 1039 753 1133 c 256
 753 1264 650 1347 489 1347 c 256
 367 1347 264 1289 219 1198 c 257
 277 1167 l 257
 312 1241 391 1286 488 1286 c 256
 603 1286 677 1224 677 1131 c 256
 677 1036 600 978 444 978 c 257
 446 917 l 257
 618.775242257 917 696.009154064 857.828398313 696.009154064 751.154241166 c 0
 696.009154064 651.220908627 615.212417767 588 487 588 c 256
 385 588 303 636 269 715 c 257
 210 679 l 257
 247 586 354 526 487 526 c 256
EndSplineSet
EndChar

StartChar: tilde
Encoding: 732 732 404
Width: 501
VWidth: 0
Flags: HW
PickledData: "(dp1
S'org.robofab.postScriptHintData'
p2
(dp3
sS'com.typemytype.robofont.layerData'
p4
(dp5
S'b'
(dp6
S'name'
p7
S'tilde'
p8
sS'lib'
p9
(dp10
sS'unicodes'
p11
(tsS'width'
p12
I429
sS'contours'
p13
(tsS'components'
p14
(tsS'anchors'
p15
(tsss."
AnchorPoint: "top" 257 794 mark 0
LayerCount: 2
Fore
SplineSet
377 929 m 256
 457 929 482 989 491 1078 c 257
 448 1078 l 257
 434 1014 415 1001 379 1001 c 256
 318 1001 217 1082 140 1082 c 256
 71 1082 32 1032 21 933 c 257
 65 933 l 257
 78 993 94 1010 128 1010 c 256
 193 1010 286 929 377 929 c 256
EndSplineSet
EndChar

StartChar: trademark
Encoding: 8482 8482 405
Width: 1668
VWidth: 0
Flags: HW
PickledData: "(dp1
S'org.robofab.postScriptHintData'
p2
(dp3
sS'com.typemytype.robofont.layerData'
p4
(dp5
S'b'
(dp6
S'name'
p7
S'trademark'
p8
sS'lib'
p9
(dp10
sS'unicodes'
p11
(tsS'width'
p12
I1581
sS'contours'
p13
(tsS'components'
p14
(tsS'anchors'
p15
(tsss."
LayerCount: 2
Fore
SplineSet
799 550 m 257
 1010 550 l 257
 1010 604 l 257
 933 604 l 257
 933 1031 l 257
 1147 585 l 257
 1165 585 l 257
 1369 1029 l 257
 1369 604 l 257
 1294 604 l 257
 1294 550 l 257
 1509 550 l 257
 1509 604 l 257
 1435 604 l 257
 1435 1098 l 257
 1509 1098 l 257
 1509 1152 l 257
 1360 1152 l 257
 1156 695 l 257
 946 1152 l 257
 799 1152 l 257
 799 1098 l 257
 875 1098 l 257
 875 604 l 257
 799 604 l 257
 799 550 l 257
289 550 m 257
 517 550 l 257
 517 603 l 257
 436 603 l 257
 436 1095 l 257
 612 1095 l 257
 612 936 l 257
 671 936 l 257
 671 1152 l 257
 139 1152 l 257
 139 936 l 257
 198 936 l 257
 198 1095 l 257
 370 1095 l 257
 370 603 l 257
 289 603 l 257
 289 550 l 257
EndSplineSet
EndChar

StartChar: two
Encoding: 50 50 406
Width: 988
VWidth: 0
Flags: HW
PickledData: "(dp1
S'org.robofab.postScriptHintData'
p2
(dp3
sS'com.typemytype.robofont.layerData'
p4
(dp5
S'b'
(dp6
S'name'
p7
S'two'
p8
sS'lib'
p9
(dp10
sS'unicodes'
p11
(tsS'width'
p12
I964
sS'contours'
p13
(tsS'components'
p14
(tsS'anchors'
p15
(tsss."
LayerCount: 2
Fore
SplineSet
124 0 m 257
 856 0 l 257
 855 288 l 257
 775 288 l 257
 774 77 l 257
 242 77 l 257
 576 411 l 258
 738 574 852 707 852 846 c 256
 852 1046 718 1174 493 1174 c 256
 271 1174 131 1044 131 842 c 256
 131 806 138 761 151 719 c 257
 238 719 l 257
 228 765 222 806 222 833 c 256
 222 997 328 1093 494 1093 c 256
 664.487785484 1093 754.031624583 989.991423482 754.031624583 841.64166939 c 0
 754.031624583 736.527824527 661.428175391 620.417626233 514 472 c 258
 124 79 l 257
 124 0 l 257
EndSplineSet
EndChar

StartChar: twosuperior
Encoding: 178 178 407
Width: 925
VWidth: 0
Flags: HW
PickledData: "(dp1
S'org.robofab.postScriptHintData'
p2
(dp3
sS'com.typemytype.robofont.layerData'
p4
(dp5
S'b'
(dp6
S'name'
p7
S'uni00B2'
p8
sS'lib'
p9
(dp10
sS'unicodes'
p11
(tsS'width'
p12
I897
sS'contours'
p13
(tsS'components'
p14
(tsS'anchors'
p15
(tsss."
LayerCount: 2
Fore
SplineSet
200 600 m 257
 200 538 l 257
 728 538 l 257
 728 747 l 257
 664 747 l 257
 664 599 l 257
 292 599 l 257
 534 832 l 258
 633 928 712 1010 712 1125 c 256
 712 1268 605 1347 453 1347 c 256
 281 1347 192 1239 192 1102 c 256
 192 1074 196 1046 203 1017 c 257
 272 1017 l 257
 265 1044 261 1070 261 1094 c 256
 261 1202 328 1284 453 1284 c 256
 571.153409829 1284 636.050960004 1220.80667478 636.050960004 1120.33563932 c 0
 636.050960004 1031.01752734 579.418486674 973.435492193 488 883 c 258
 200 600 l 257
EndSplineSet
EndChar

StartChar: u
Encoding: 117 117 408
Width: 1035
VWidth: 0
Flags: HW
PickledData: "(dp1
S'org.robofab.postScriptHintData'
p2
(dp3
sS'com.typemytype.robofont.layerData'
p4
(dp5
S'b'
(dp6
S'name'
p7
S'u'
sS'lib'
p8
(dp9
sS'unicodes'
p10
(tsS'width'
p11
I1025
sS'contours'
p12
(tsS'components'
p13
(tsS'anchors'
p14
(tsss."
AnchorPoint: "top" 489 804 basechar 0
LayerCount: 2
Fore
SplineSet
434 -21 m 0
 551 -21 655 27 754 99 c 1
 759 0 l 1
 1000 0 l 1
 1000 70 l 1
 849 70 l 1
 849 804 l 1
 604 804 l 1
 604 733 l 1
 752 733 l 1
 752 174 l 1
 660 103 570 56 451 56 c 0
 329 56 276 137 276 235 c 2
 276 804 l 1
 31 804 l 1
 31 733 l 1
 179 733 l 1
 179 226 l 2
 179 116 236 -21 434 -21 c 0
EndSplineSet
EndChar

StartChar: uc_main_stem
Encoding: 65558 -1 411
Width: 682
VWidth: 0
Flags: HW
PickledData: "(dp1
S'org.robofab.postScriptHintData'
p2
(dp3
sS'com.schriftgestaltung.Glyphs.Export'
p4
I00
sS'com.typemytype.robofont.layerData'
p5
(dp6
S'b'
(dp7
S'name'
p8
S'uc_main_stem'
p9
sS'lib'
p10
(dp11
sS'unicodes'
p12
(tsS'width'
p13
I626
sS'contours'
p14
(tsS'components'
p15
(tsS'anchors'
p16
(tsss."
LayerCount: 2
Fore
SplineSet
119 0 m 257
 561 0 l 257
 561 71 l 257
 392 71 l 257
 392 1081 l 257
 561 1081 l 257
 561 1152 l 257
 119 1152 l 257
 119 1081 l 257
 287 1081 l 257
 287 71 l 257
 119 71 l 257
 119 0 l 257
EndSplineSet
EndChar

StartChar: underscore
Encoding: 95 95 417
Width: 947
VWidth: 0
Flags: HW
PickledData: "(dp1
S'org.robofab.postScriptHintData'
p2
(dp3
sS'com.typemytype.robofont.layerData'
p4
(dp5
S'b'
(dp6
S'name'
p7
S'underscore'
p8
sS'lib'
p9
(dp10
sS'unicodes'
p11
(tsS'width'
p12
I1126
sS'contours'
p13
(tsS'components'
p14
(tsS'anchors'
p15
(tsss."
LayerCount: 2
Fore
SplineSet
92 -143 m 257
 855 -143 l 257
 855 -82 l 257
 92 -82 l 257
 92 -143 l 257
EndSplineSet
EndChar

StartChar: uni00B5
Encoding: 181 181 424
Width: 1035
VWidth: 0
Flags: HW
PickledData: "(dp1
S'org.robofab.postScriptHintData'
p2
(dp3
sS'com.typemytype.robofont.layerData'
p4
(dp5
S'b'
(dp6
S'name'
p7
S'uni00B5'
p8
sS'lib'
p9
(dp10
sS'unicodes'
p11
(tsS'width'
p12
I1025
sS'contours'
p13
(tsS'components'
p14
(tsS'anchors'
p15
(tsss."
LayerCount: 2
Fore
SplineSet
179 -267 m 257
 276 -267 l 257
 276 405 l 257
 179 405 l 257
 179 -267 l 257
EndSplineSet
Refer: 408 117 N 1 0 0 1 0 0 2
EndChar

StartChar: uni0237
Encoding: 567 567 490
Width: 398
VWidth: 0
Flags: HW
PickledData: "(dp1
S'org.robofab.postScriptHintData'
p2
(dp3
sS'com.typemytype.robofont.layerData'
p4
(dp5
S'b'
(dp6
S'name'
p7
S'uni0237'
p8
sS'lib'
p9
(dp10
sS'unicodes'
p11
(tsS'width'
p12
I398
sS'contours'
p13
(tsS'components'
p14
(tsS'anchors'
p15
(tsss."
AnchorPoint: "top" 228 804 basechar 0
LayerCount: 2
Fore
SplineSet
23 -240 m 257
 95 -240 l 258
 250.204081633 -240 266.04123282 -151.9454394 266.04123282 -82.2231893174 c 0
 266.04123282 -64.3456892961 265 -47.6734693878 265 -34 c 258
 265 804 l 257
 48 804 l 257
 48 770 l 257
 221 770 l 257
 221 -39 l 258
 221 -49.076433121 221.055661487 -58.6996227027 221.055661487 -67.8702778087 c 0
 221.055661487 -161.541969248 215.248407643 -208 85 -208 c 258
 23 -208 l 257
 23 -240 l 257
EndSplineSet
EndChar

StartChar: uni02C9
Encoding: 713 713 491
Width: 600
VWidth: 0
Flags: HW
PickledData: "(dp1
S'org.robofab.postScriptHintData'
p2
(dp3
s."
LayerCount: 2
Fore
SplineSet
100 921 m 257
 499 921 l 257
 499 993 l 257
 100 993 l 257
 100 921 l 257
EndSplineSet
EndChar

StartChar: uni0307
Encoding: 775 775 492
Width: 410
VWidth: 0
Flags: HW
PickledData: "(dp1
S'org.robofab.postScriptHintData'
p2
(dp3
sS'com.typemytype.robofont.layerData'
p4
(dp5
S'b'
(dp6
S'name'
p7
S'uni0307'
p8
sS'lib'
p9
(dp10
sS'unicodes'
p11
(tsS'width'
p12
I342
sS'contours'
p13
(tsS'components'
p14
(tsS'anchors'
p15
(tsss."
AnchorPoint: "top" 206 805 mark 0
LayerCount: 2
Fore
SplineSet
204 960 m 256
 255 960 281 997 281 1032 c 256
 281 1070 253 1103 204 1103 c 256
 156 1103 129 1069 128 1032 c 256
 128 997 156 960 204 960 c 256
EndSplineSet
EndChar

StartChar: uni0311
Encoding: 785 785 493
Width: 962
VWidth: 0
Flags: HW
PickledData: "(dp1
S'org.robofab.postScriptHintData'
p2
(dp3
sS'com.typemytype.robofont.layerData'
p4
(dp5
S'b'
(dp6
S'name'
p7
S'uni0311'
p8
sS'lib'
p9
(dp10
sS'unicodes'
p11
(tsS'width'
p12
I962
sS'contours'
p13
(tsS'components'
p14
(tsS'anchors'
p15
(tsss."
AnchorPoint: "top" 488 804 mark 0
LayerCount: 2
Fore
SplineSet
352 934 m 257
 382 934 l 257
 400 996 434 1026 487 1026 c 256
 539 1026 573 996 591 934 c 257
 619 934 l 257
 604.178520842 1017.9883819 562.019553487 1059.01785377 489.62894071 1059.01785377 c 0
 488.757014704 1059.01785377 487.880702819 1059.01190139 487 1059 c 256
 486.14309996 1059.01190139 485.290165925 1059.01785377 484.441192839 1059.01785377 c 0
 413.956218805 1059.01785377 370.7738736 1017.9883819 352 934 c 257
EndSplineSet
EndChar

StartChar: uni2113
Encoding: 8467 8467 512
Width: 600
VWidth: 0
Flags: HW
PickledData: "(dp1
S'org.robofab.postScriptHintData'
p2
(dp3
s."
LayerCount: 2
Fore
SplineSet
438 -11 m 257
 451 56 l 257
 323.496329753 56 267.627431654 69.6757292284 267.627431654 183.213965825 c 0
 267.627431654 210.370042949 270.823528151 243.238962474 277 283 c 258
 423 1215 l 257
 155 1215 l 257
 148 1142 l 257
 323 1142 l 257
 180 262 l 258
 174.48807085 227.793616155 171.604287284 197.45060632 171.604287284 170.625859219 c 0
 171.604287284 34.467971115 245.90226676 -11.0451766602 427.929035011 -11.0451766602 c 0
 431.250095292 -11.0451766602 434.607015943 -11.0300264076 438 -11 c 257
EndSplineSet
EndChar

StartChar: uni2126
Encoding: 8486 8486 513
Width: 1426
VWidth: 0
Flags: HW
PickledData: "(dp1
S'org.robofab.postScriptHintData'
p2
(dp3
s."
LayerCount: 2
Fore
SplineSet
160 0 m 257
 579 0 l 257
 579 72 l 257
 358 194 253 422 253 628 c 256
 253 873 407 1094 713 1094 c 256
 1018 1094 1173 872 1173 627 c 256
 1173 422 1068 194 847 72 c 257
 847 0 l 257
 1266 0 l 257
 1266 71 l 257
 958 71 l 257
 1175 201 1279 421 1279 626 c 256
 1279 909 1079 1174 713 1174 c 256
 348 1174 148 909 148 625 c 256
 148 421 251 201 469 71 c 257
 160 71 l 257
 160 0 l 257
EndSplineSet
EndChar

StartChar: uni2206
Encoding: 8710 8710 514
Width: 847
VWidth: 0
Flags: HW
PickledData: "(dp1
S'org.robofab.postScriptHintData'
p2
(dp3
sS'com.typemytype.robofont.layerData'
p4
(dp5
S'b'
(dp6
S'name'
p7
S'uni2206'
p8
sS'lib'
p9
(dp10
sS'unicodes'
p11
(tsS'width'
p12
I679
sS'contours'
p13
(tsS'components'
p14
(tsS'anchors'
p15
(tsss."
LayerCount: 2
Fore
SplineSet
67 0 m 257
 794 0 l 257
 794 71 l 257
 477 1052 l 257
 387 1052 l 257
 67 68 l 257
 67 0 l 257
136 76 m 257
 136 76 405 925 411 952 c 257
 418 924 685 76 685 76 c 257
 136 76 l 257
EndSplineSet
EndChar

StartChar: uniFB00
Encoding: 65559 -1 517
Width: 1343
VWidth: 0
Flags: HW
PickledData: "(dp1
S'org.robofab.postScriptHintData'
p2
(dp3
s."
LayerCount: 2
Fore
SplineSet
1154 734 m 257
 1154 805 l 257
 936 805 l 257
 936 1007 l 258
 936 1092 982 1133 1032 1133 c 256
 1086 1133 1131 1109 1142 1023 c 257
 1216 1047 l 257
 1204 1173 1114 1206 1030 1206 c 256
 920 1206 838 1132 838 1004 c 258
 838 805 l 257
 354 804 l 257
 354 1005 l 258
 354 1092 391 1134 454 1134 c 256
 519 1134 549 1094 558 1023 c 257
 633 1047 l 257
 625 1158 549 1206 450 1206 c 256
 319 1206 254 1129 254 1006 c 258
 254 804 l 257
 98 804 l 257
 98 733 l 257
 254 733 l 257
 254 71 l 257
 102 71 l 257
 102 0 l 257
 536 0 l 257
 536 71 l 257
 354 71 l 257
 354 733 l 257
 838 734 l 257
 838 71 l 257
 690 71 l 257
 690 0 l 257
 1125 0 l 257
 1125 71 l 257
 936 71 l 257
 936 734 l 257
 1154 734 l 257
EndSplineSet
EndChar

StartChar: uniFB03
Encoding: 65560 -1 518
Width: 1868
VWidth: 0
Flags: HW
PickledData: "(dp1
S'org.robofab.postScriptHintData'
p2
(dp3
sS'com.typemytype.robofont.layerData'
p4
(dp5
S'b'
(dp6
S'name'
p7
S'uniFB03'
p8
sS'lib'
p9
(dp10
sS'unicodes'
p11
(tsS'width'
p12
I1855
sS'contours'
p13
(tsS'components'
p14
(tsS'anchors'
p15
(tsss."
LayerCount: 2
Fore
SplineSet
163 0 m 257
 601 0 l 257
 601 71 l 257
 414 71 l 257
 414 733 l 257
 836 733 l 257
 836 804 l 257
 414 804 l 257
 414 997 l 258
 414 1095 511 1152 652 1152 c 256
 746 1152 862 1115 956 1051 c 257
 1018 1074 l 257
 917 1168 769 1220 642 1220 c 256
 454 1220 317 1136 317 994 c 258
 317 804 l 257
 158 804 l 257
 158 733 l 257
 317 733 l 257
 317 71 l 257
 163 71 l 257
 163 0 l 257
EndSplineSet
Refer: 243 64257 N 1 0 0 1 657 0 2
EndChar

StartChar: v
Encoding: 118 118 523
Width: 1053
VWidth: 0
Flags: HW
PickledData: "(dp1
S'org.robofab.postScriptHintData'
p2
(dp3
sS'com.typemytype.robofont.layerData'
p4
(dp5
S'b'
(dp6
S'name'
p7
S'v'
sS'lib'
p8
(dp9
sS'unicodes'
p10
(tsS'width'
p11
I1054
sS'contours'
p12
(tsS'components'
p13
(tsS'anchors'
p14
(tsss."
LayerCount: 2
Fore
SplineSet
481 0 m 1
 578 0 l 1
 900 734 l 1
 1037 734 l 1
 1037 805 l 1
 650 805 l 1
 650 734 l 1
 802 734 l 1
 536 93 l 1
 263 734 l 1
 417 734 l 1
 417 805 l 1
 16 805 l 1
 16 734 l 1
 158 734 l 1
 481 0 l 1
EndSplineSet
EndChar

StartChar: w
Encoding: 119 119 524
Width: 1519
VWidth: 0
Flags: HW
PickledData: "(dp1
S'org.robofab.postScriptHintData'
p2
(dp3
sS'com.typemytype.robofont.layerData'
p4
(dp5
S'b'
(dp6
S'name'
p7
S'w'
sS'lib'
p8
(dp9
sS'unicodes'
p10
(tsS'width'
p11
I1574
sS'contours'
p12
(tsS'components'
p13
(tsS'anchors'
p14
(tsss."
AnchorPoint: "top" 761 804 basechar 0
LayerCount: 2
Fore
SplineSet
414 0 m 1
 519 0 l 1
 758 651 l 1
 998 0 l 1
 1101 0 l 1
 1355 734 l 1
 1480 734 l 1
 1480 805 l 1
 1136 805 l 1
 1136 734 l 1
 1264 734 l 1
 1050 88 l 1
 811 734 l 1
 946 734 l 1
 946 805 l 1
 572 805 l 1
 572 734 l 1
 705 734 l 1
 472 89 l 1
 245 734 l 1
 381 734 l 1
 381 805 l 1
 26 805 l 1
 26 734 l 1
 148 734 l 1
 414 0 l 1
EndSplineSet
EndChar

StartChar: x
Encoding: 120 120 529
Width: 1060
VWidth: 0
Flags: HW
PickledData: "(dp1
S'org.robofab.postScriptHintData'
p2
(dp3
sS'com.typemytype.robofont.layerData'
p4
(dp5
S'b'
(dp6
S'name'
p7
S'x'
sS'lib'
p8
(dp9
sS'unicodes'
p10
(tsS'width'
p11
I1088
sS'contours'
p12
(tsS'components'
p13
(tsS'anchors'
p14
(tsss."
LayerCount: 2
Fore
SplineSet
50 0 m 1
 425 0 l 1
 425 71 l 1
 283 71 l 1
 528 364 l 1
 780 71 l 1
 621 71 l 1
 621 0 l 1
 1018 0 l 1
 1018 71 l 1
 878 71 l 1
 584 414 l 1
 853 733 l 1
 1010 733 l 1
 1010 804 l 1
 617 804 l 1
 617 733 l 1
 761 733 l 1
 535 462 l 1
 305 733 l 1
 449 733 l 1
 449 804 l 1
 65 804 l 1
 65 733 l 1
 206 733 l 1
 479 414 l 1
 188 71 l 1
 50 71 l 1
 50 0 l 1
EndSplineSet
EndChar

StartChar: y
Encoding: 121 121 530
Width: 1067
VWidth: 0
Flags: HW
PickledData: "(dp1
S'org.robofab.postScriptHintData'
p2
(dp3
sS'com.typemytype.robofont.layerData'
p4
(dp5
S'b'
(dp6
S'name'
p7
S'y'
sS'lib'
p8
(dp9
sS'unicodes'
p10
(tsS'width'
p11
I1072
sS'contours'
p12
(tsS'components'
p13
(tsS'anchors'
p14
(tsss."
AnchorPoint: "top" 558 804 basechar 0
LayerCount: 2
Fore
SplineSet
223 -281 m 1
 315 -281 l 2
 484 -281 523 -226 584 -76 c 1
 923 733 l 1
 1054 733 l 1
 1054 804 l 1
 668 804 l 1
 668 733 l 1
 825 733 l 1
 569 111 l 1
 294 733 l 1
 428 733 l 1
 428 804 l 1
 35 804 l 1
 35 733 l 1
 194 733 l 1
 502 57 l 1
 549 57 l 1
 494 -77 l 1
 453 -185 422 -198 308 -198 c 2
 223 -198 l 1
 223 -281 l 1
EndSplineSet
EndChar

StartChar: yen
Encoding: 165 165 534
Width: 1420
VWidth: 0
Flags: HW
PickledData: "(dp1
S'org.robofab.postScriptHintData'
p2
(dp3
sS'com.typemytype.robofont.layerData'
p4
(dp5
S'b'
(dp6
S'name'
p7
S'yen'
p8
sS'lib'
p9
(dp10
sS'unicodes'
p11
(tsS'width'
p12
I1477
sS'contours'
p13
(tsS'components'
p14
(tsS'anchors'
p15
(tsss."
LayerCount: 2
Fore
SplineSet
307 235 m 257
 968 235 l 257
 968 297 l 257
 307 297 l 257
 307 235 l 257
307 409 m 257
 968 409 l 257
 968 471 l 257
 307 471 l 257
 307 409 l 257
EndSplineSet
Refer: 140 89 N 1 0 0 1 0 0 2
EndChar

StartChar: z
Encoding: 122 122 536
Width: 926
VWidth: 0
Flags: HW
PickledData: "(dp1
S'org.robofab.postScriptHintData'
p2
(dp3
sS'com.typemytype.robofont.layerData'
p4
(dp5
S'b'
(dp6
S'name'
p7
S'z'
sS'lib'
p8
(dp9
sS'unicodes'
p10
(tsS'width'
p11
I955
sS'contours'
p12
(tsS'components'
p13
(tsS'anchors'
p14
(tsss."
AnchorPoint: "top" 479 804 basechar 0
LayerCount: 2
Fore
SplineSet
128 0 m 1
 799 0 l 1
 799 275 l 1
 719 275 l 1
 719 69 l 1
 241 69 l 1
 786 724 l 1
 786 805 l 1
 147 805 l 1
 147 553 l 1
 227 553 l 1
 227 736 l 1
 679 736 l 1
 128 75 l 1
 128 0 l 1
EndSplineSet
EndChar

StartChar: zero
Encoding: 48 48 540
Width: 1094
VWidth: 0
Flags: HW
PickledData: "(dp1
S'org.robofab.postScriptHintData'
p2
(dp3
sS'com.typemytype.robofont.layerData'
p4
(dp5
S'b'
(dp6
S'name'
p7
S'zero'
p8
sS'lib'
p9
(dp10
sS'unicodes'
p11
(tsS'width'
p12
I1090
sS'contours'
p13
(tsS'components'
p14
(tsS'anchors'
p15
(tsss."
LayerCount: 2
Fore
SplineSet
546 49 m 256
 544.880590255 48.9891844469 543.763870963 48.9837790425 542.64984576 48.9837790425 c 0
 337.75957446 48.9837790425 224 231.827828472 224 568 c 256
 224 914 339 1103 546 1103 c 256
 755 1103 870 914 870 568 c 256
 870 232 755 49 546 49 c 256
546 -22 m 256
 821 -22 967 186 967 568 c 256
 967 951 821 1174 546 1174 c 256
 273 1174 127 950 127 568 c 256
 127 187 273 -22 546 -22 c 256
EndSplineSet
EndChar
